<svg xmlns="http://www.w3.org/2000/svg"><defs><font id="MyriadPro-Regular" horiz-adv-x="300"><font-face font-family="Myriad Pro" font-weight="400" panose-1="2 11 5 3 3 4 3 2 2 4" ascent="750" descent="-250" x-height="484" cap-height="674" bbox="-157 -250 1126 952" underline-thickness="50" underline-position="-200" unicode-range="U+0020-FB04"/><glyph glyph-name="f_f_j" unicode="ffj" horiz-adv-x="809" d="M705 690l-26-66q-41 26-98 26-121 0-121-142v-24h282V45q0-140-58-199-27-27-69-41t-81-14l-9 69q67 5 96 37 19 22 26 59.5T654 79v338H461V0h-88v417H169V0H82v417H14v67h68v18q0 104 58 161 45 47 124 47 43 0 85-21l-24-65q-32 17-61 17-39 0-63-26-32-35-32-112v-19h204v26q0 97 55.5 154T585 721q75 0 120-31z"/><glyph glyph-name="f_j" unicode="fj" horiz-adv-x="522" d="M169 0H82v417H14v67h68v26q0 97 55 154t156 57q34 0 69-9t54-23l-25-67q-39 28-102 28-120 0-120-142v-24h281V45q0-140-58-199-27-27-69-41t-81-14l-9 69q67 5 96 37 19 22 26.5 60T363 79v338H169V0z"/><glyph glyph-name="f_f" unicode="ff" horiz-adv-x="583" d="M460 0h-88v417H169V0H82v417H14v67h68v16q0 111 54 165 45 45 122 45 37 0 69-17l-18-65q-26 12-52 12-88 0-88-135v-21h203v23q0 115 57 169 46 45 117 45 41 0 75-14l-11-68q-26 11-57 11-94 0-94-140v-26h117v-67H460V0z"/><glyph glyph-name="f_f_i" unicode="ffi" horiz-adv-x="815" d="M705 690l-26-66q-41 26-98 26-121 0-121-142v-24h282V0h-88v417H461V0h-88v417H169V0H82v417H14v67h68v18q0 104 58 161 45 47 124 47 43 0 85-21l-24-65q-32 17-61 17-39 0-63-26-32-35-32-112v-19h204v26q0 97 55.5 154T585 721q75 0 120-31z"/><glyph glyph-name="f_f_l" unicode="ffl" horiz-adv-x="815" d="M349 692l-23-66q-30 15-60 15-41 0-65-26-32-35-32-111v-20h204v21q0 106 69 167 57 49 155 49 86 0 145-32V0h-87v640q-26 13-73 13-64 0-93-40t-29-105v-24h114v-67H461V0h-88v417H169V0H82v417H14v67h68v12q0 111 56 166 50 48 131 48 41 0 80-18z"/><glyph glyph-name="f_i" unicode="fi" horiz-adv-x="523" d="M169 0H82v417H14v67h68v26q0 97 55 154t156 57q34 0 69-9t54-23l-25-67q-39 28-102 28-120 0-120-142v-24h281V0h-87v417H169V0z"/><glyph glyph-name="f_l" unicode="fl" horiz-adv-x="523" d="M169 0H82v417H14v67h68v21q0 107 68 167 58 49 155 49 87 0 145-32V0h-87v640q-24 13-72 13-64 0-93-40t-29-105v-24h113v-67H169V0z"/><glyph glyph-name=".notdef" horiz-adv-x="500" d="M0 0v700h500V0H0zm250 395l170 255H80zm30-45L450 95v510zM80 50h340L250 305zM50 605V95l170 255z"/><glyph glyph-name=".null" horiz-adv-x="0"/><glyph glyph-name="nonmarkingreturn" horiz-adv-x="333"/><glyph glyph-name="space" horiz-adv-x="212"/><glyph glyph-name="exclam" unicode="!" horiz-adv-x="230" d="M149 194H81L67 674h96zM115-11Q89-11 72.5 6.5T56 51t16.5 44.5T115 113q27 0 43-17.5T174 51 158 6.5 115-11z"/><glyph glyph-name="quotedbl" unicode="&quot;" horiz-adv-x="337" d="M51 685h87l-17-240H67zm149 0h87l-17-240h-53z"/><glyph glyph-name="numbersign" unicode="#" horiz-adv-x="497" d="M188 255h104l19 145H207zM153 0H93l26 196H37v59h91l19 145H61v59h95l26 191h58l-25-191h104l26 191h59l-25-191h82v-59h-91l-18-145h86v-59h-95L317 0h-60l26 196H179z"/><glyph glyph-name="dollar" unicode="$" horiz-adv-x="513" d="M281-86h-63V15q-94 2-153 44l24 67q64-43 144-43 53 0 86 27.5t33 70.5q0 40-27.5 68T239 300q-83 33-124 72T74 473t41 106 110 55v101h62v-97q75-2 130-35l-25-66q-60 34-126 34-53 0-79.5-26T160 485q0-37 27.5-61.5T284 371q80-32 117.5-75T439 188q0-62-42-110T281 18V-86z"/><glyph glyph-name="percent" unicode="%" horiz-adv-x="792" d="M187 661q69 0 110-51t41-143q0-98-44.5-151.5T182 262q-64 0-107.5 51T30 458q0 94 45 148.5T187 661zm-3-53q-40 0-62-41.5T100 461q-2-64 21-105t63-41q42 0 63 40t21 108q0 64-20.5 104.5T184 608zm48-619h-56l382 672h56zm379 403q69 0 109.5-51T761 198q0-98-44.5-151.5T606-7q-64 0-107.5 51T454 188q0 95 45 149.5T611 392zm-3-53q-40 0-62.5-41.5T523 192q-1-64 22-105t63-41q42 0 63 40t21 108q0 64-20.5 104.5T608 339z"/><glyph glyph-name="ampersand" unicode="&amp;" horiz-adv-x="605" d="M602 0H498q-24 24-63 66-83-77-197-77-95 0-151 55T31 178q0 125 132 197v3q-56 70-56 141 0 66 46 116t125 50q64 0 106.5-39.5T427 542q0-54-34.5-97.5T279 362v-3q118-137 164-188 45 69 65 197h80q-29-168-97-249 17-18 111-119zM253 55q83 0 139 61-126 138-190 212-87-56-87-137 0-58 39-97t99-39zm19 570q-40 0-62.5-28.5T187 527q0-58 51-121 57 32 84.5 62t27.5 70q0 35-20 61t-58 26z"/><glyph glyph-name="quotesingle" unicode="'" horiz-adv-x="188" d="M51 685h87l-17-240H67z"/><glyph glyph-name="parenleft" unicode="(" horiz-adv-x="284" d="M195 694h69Q138 525 138 285q0-229 126-406h-69Q64 52 64 285q1 236 131 409z"/><glyph glyph-name="parenright" unicode=")" horiz-adv-x="284" d="M88-121H20Q146 55 146 288T20 694h68q131-168 131-407 0-234-131-408z"/><glyph glyph-name="asterisk" unicode="*" horiz-adv-x="415" d="M269 685l60-34-95-125v-2l151 20v-68l-151 18v-2l96-120-63-36-60 140h-2l-65-141-57 36 95 122v2L30 476v68l147-19v2L83 649l61 35 62-139h2z"/><glyph glyph-name="plus" unicode="+" horiz-adv-x="596" d="M266 532h64V297h226v-60H330V0h-64v237H40v60h226v235z"/><glyph glyph-name="comma" unicode="," horiz-adv-x="207" d="M79-117l-63-6Q56-15 76 116l98 10Q157 63 128.5-9T79-117z"/><glyph glyph-name="hyphen" unicode="-" horiz-adv-x="307" d="M30 303h247v-65H30v65z"/><glyph glyph-name="period" unicode="." horiz-adv-x="207" d="M111-11Q85-11 68.5 7T52 52q0 28 17 45.5t43 17.5 42.5-17.5T171 52 154.5 6.5 111-11z"/><glyph glyph-name="slash" unicode="/" horiz-adv-x="343" d="M66-40H-1l279 725h68z"/><glyph glyph-name="zero" unicode="0" horiz-adv-x="513" d="M262 661q102 0 158.5-86.5T477 332q0-165-59-254T251-11q-97 0-155.5 87.5T36 323q0 160 62 249t164 89zm-5-68q-60 0-96.5-71T124 322q0-125 35.5-195T256 57q66 0 99.5 71.5T389 328q0 124-33 194.5T257 593z"/><glyph glyph-name="one" unicode="1" horiz-adv-x="513" d="M236 0v568h-2l-113-61-17 67 142 76h75V0h-85z"/><glyph glyph-name="two" unicode="2" horiz-adv-x="513" d="M460 0H45v54l69 67q135 129 188 200t54 140q0 55-30.5 91T227 588q-72 0-138-55l-28 62q78 66 184 66 98 0 148.5-56T444 472q0-83-53-159.5T220 123l-52-48v-2h292V0z"/><glyph glyph-name="three" unicode="3" horiz-adv-x="513" d="M42 33l24 68q64-41 144-41 77 0 112.5 38.5T357 186q-1 64-49.5 97T189 316h-49v66h49q55 0 100 28.5t45 81.5q0 42-28.5 70T220 590q-70 0-130-43l-23 64q28 21 74.5 35.5T237 661q90 0 138-45t48-110q0-51-30.5-91.5T303 353v-2q63-13 104-57t41-110q0-83-62.5-139T211-11Q109-11 42 33z"/><glyph glyph-name="four" unicode="4" horiz-adv-x="513" d="M400 0h-83v177H15v58l290 415h95V246h91v-69h-91V0zM104 246h213v217q0 51 3 102h-3q-26-49-54-96L104 248v-2z"/><glyph glyph-name="five" unicode="5" horiz-adv-x="513" d="M433 650v-74H185l-25-167q30 4 53 4 82 0 140-35 93-53 93-167 0-96-68.5-159T204-11Q104-11 42 29l22 67q61-36 139-36 64 0 109 39t45 102q-1 66-47 105t-140 39q-34 0-90-7l42 312h311z"/><glyph glyph-name="six" unicode="6" horiz-adv-x="513" d="M416 660v-72q-30 2-66-4-98-16-156-80.5T124 353h3q57 75 157 75 87 0 141.5-57.5T480 218q0-94-59.5-161.5T264-11Q160-11 97 64.5T34 266q0 183 110 293 82 81 208 96 33 5 64 5zM264 57q57 0 92 43t35 113q0 69-36.5 109T257 362q-39 0-73.5-22T131 282q-10-17-10-39 2-83 39-134.5T264 57z"/><glyph glyph-name="seven" unicode="7" horiz-adv-x="513" d="M57 650h410v-58L184 0H93l282 575v2H57v73z"/><glyph glyph-name="eight" unicode="8" horiz-adv-x="513" d="M255-11q-99 0-158.5 51T37 165q0 119 129 174l-1 3Q62 391 62 488q0 76 57 124.5T263 661q89 0 139-47t50-113q0-101-107-152v-3q131-52 131-168 0-84-63.5-136.5T255-11zm2 64q59 0 94.5 32.5T387 169q0 56-36 89t-107 53q-56-16-86.5-51.5T127 177q-2-51 34-87.5T257 53zm1 545q-53 0-83-30t-30-74q0-87 124-120 45 15 72 45.5t27 72.5q0 44-27.5 75T258 598z"/><glyph glyph-name="nine" unicode="9" horiz-adv-x="513" d="M96-10v72q20-2 71 3 81 11 136 63 69 62 86 173h-3q-57-70-153-70-86 0-139 57T41 430q0 95 62.5 163T263 661q99 0 157-74.5T478 387q0-197-112-305Q290 8 177-5q-43-7-81-5zm160 604q-56 0-92-44.5T128 436q0-61 34-99.5t91-38.5q43 0 76.5 18.5T381 366q8 13 8 32 0 88-33.5 142T256 594z"/><glyph glyph-name="colon" unicode=":" horiz-adv-x="207" d="M111 342q-26 0-42.5 17.5T52 404q0 28 17 45.5t43 17.5 42-17.5 17-45.5q0-27-16.5-44.5T111 342zm0-353Q85-11 68.5 6.5T52 51q0 28 17 45.5t43 17.5 42-17.5T171 51q0-27-16.5-44.5T111-11z"/><glyph glyph-name="semicolon" unicode=";" horiz-adv-x="207" d="M78-117l-61-6Q57-15 77 116l97 10q-18-64-46.5-136T78-117zm41 459q-26 0-42.5 17.5T60 404q0 28 16.5 45.5T119 467q27 0 43-17.5t16-45.5q0-27-16-44.5T119 342z"/><glyph glyph-name="less" unicode="&lt;" horiz-adv-x="596" d="M66 239v54l464 239v-69L139 267v-2L530 69V0z"/><glyph glyph-name="equal" unicode="=" horiz-adv-x="596" d="M556 337H40v60h516v-60zm0-196H40v60h516v-60z"/><glyph glyph-name="greater" unicode="&gt;" horiz-adv-x="596" d="M530 294v-56L66 0v69l394 196v2L66 463v69z"/><glyph glyph-name="question" unicode="?" horiz-adv-x="406" d="M219 191h-78l-2 26q-10 87 62 173 70 82 70 137 0 39-24.5 62T176 613q-60 0-101-31l-24 63q55 40 143 40 81 0 124-42.5T361 538q0-46-21-84t-65-90q-61-73-57-147zM178-11q-26 0-42.5 17.5T119 51q0 28 17 45.5t43 17.5 42.5-17.5T238 51q0-27-16.5-44.5T178-11z"/><glyph glyph-name="at" unicode="@" horiz-adv-x="737" d="M448 255l21 113q-23 7-50 7-66 0-112.5-53.5T260 195q0-34 17-55t49-21q41 0 77 43t45 93zm60-276l16-43q-76-40-178-40-127 0-215 86T43 208q0 159 101.5 271.5T408 592q129 0 210-81.5T699 303q0-108-52-173T521 65q-33 0-54.5 22.5T447 153h-4q-52-88-141-88-45 0-76.5 34.5T194 191q0 96 67.5 166.5T431 428q61 0 107-21l-34-181q-22-110 30-112 41-1 74.5 50T642 297q0 111-64 180t-178 69q-126 0-213-92t-87-240q0-123 72-196.5T357-56q89 0 151 35z"/><glyph glyph-name="A" unicode="A" horiz-adv-x="612" d="M424 212H185L115 0H25l229 674h105L589 0h-93zm-221 68h203l-66 194q-14 41-35 123h-2q-17-70-34-122z"/><glyph glyph-name="B" unicode="B" horiz-adv-x="542" d="M76 2v663q66 14 159 14 124 0 185-49 56-42 56-119 0-49-30.5-89T362 363v-2q56-14 97.5-57T501 192q0-80-57-135Q375-6 211-6 134-6 76 2zm87 604V389h79q68 0 107 31.5t39 81.5q0 110-148 110-49 0-77-6zm0-283V66q23-4 73-4 75 0 124 31.5t49 99.5q0 65-48.5 97.5T235 323h-72z"/><glyph glyph-name="C" unicode="C" horiz-adv-x="580" d="M529 91l18-69q-64-32-178-32-147 0-240 90T36 331q0 158 97.5 256T388 685q102 0 160-30l-21-71q-58 28-136 28-120 0-191.5-73.5T128 334q0-125 68.5-198T387 63q84 0 142 28z"/><glyph glyph-name="D" unicode="D" horiz-adv-x="666" d="M76 2v663q93 14 185 14 183 0 273-84 95-87 95-242 0-167-97-262Q435-6 234-6 146-6 76 2zm87 599V69q28-5 88-5 139 0 213 74.5T538 350q1 122-68.5 191T265 610q-61 0-102-9z"/><glyph glyph-name="E" unicode="E" horiz-adv-x="492" d="M425 388v-72H163V73h292V0H76v674h364v-73H163V388h262z"/><glyph glyph-name="F" unicode="F" horiz-adv-x="487" d="M76 0v674h363v-73H163V377h255v-72H163V0H76z"/><glyph glyph-name="G" unicode="G" horiz-adv-x="646" d="M589 354V30Q486-7 382-7 223-7 130 82q-94 91-94 251 1 154 99.5 251T401 681q104 0 168-31l-21-71q-65 29-149 29-124 0-197.5-72.5T128 337q0-127 70.5-199.5T388 65q80 0 116 18v201H367v70h222z"/><glyph glyph-name="H" unicode="H" horiz-adv-x="652" d="M76 674h87V392h326v282h88V0h-88v316H163V0H76v674z"/><glyph glyph-name="I" unicode="I" horiz-adv-x="239" d="M76 674h87V0H76v674z"/><glyph glyph-name="J" unicode="J" horiz-adv-x="370" d="M214 230v444h87V223Q301-11 97-11 43-11 4 5l13 71q33-13 73-13 63 0 93.5 36.5T214 230z"/><glyph glyph-name="K" unicode="K" horiz-adv-x="542" d="M76 0v674h87V349h3q23 33 53 72l206 253h108L289 388 552 0H449L227 331l-64-74V0H76z"/><glyph glyph-name="L" unicode="L" horiz-adv-x="472" d="M76 0v674h87V73h288V0H76z"/><glyph glyph-name="M" unicode="M" horiz-adv-x="804" d="M661 0l-17 296q-11 207-10 291h-3q-34-115-85-256L427 4h-66L252 325q-53 159-78 262h-2q-3-132-13-298L141 0H58l47 674h111l115-326q46-136 68-227h3q22 89 71 227l120 326h111L746 0h-85z"/><glyph glyph-name="N" unicode="N" horiz-adv-x="658" d="M158 0H76v674h95l216-341q73-115 121-219l2 1q-10 112-10 277v282h82V0h-88L280 342q-83 132-126 225l-3-1q7-119 7-278V0z"/><glyph glyph-name="O" unicode="O" horiz-adv-x="689" d="M349 685q137 0 220-95t83-246q0-168-89-261.5T339-11q-134 0-218.5 95T36 331q0 159 88 256.5T349 685zm-4-71q-103 0-159.5-81.5T129 333q0-113 58-193t157-80q100 0 158 80t58 200q0 110-56.5 192T345 614z"/><glyph glyph-name="P" unicode="P" horiz-adv-x="532" d="M76 0v666q78 13 167 13 127 0 189-56 59-51 59-141t-52-144q-69-74-206-74-46 0-70 6V0H76zm87 603V341q27-7 72-7 80 0 124.5 37.5T404 478q0 65-42.5 98.5T245 610q-56 0-82-7z"/><glyph glyph-name="Q" unicode="Q" horiz-adv-x="689" d="M657-26l-25-73Q495-63 374-21q-28 10-41 10-127 5-212 95T36 330q0 160 88 257.5T350 685q136 0 219-95t83-246q0-126-52.5-209.5T460 21v-4q108-27 197-43zM343 60q101 0 159 80t58 200q0 110-56 192t-157 82q-105 0-162-82.5T129 332q-1-112 57.5-192T343 60z"/><glyph glyph-name="R" unicode="R" horiz-adv-x="538" d="M76 0v665q68 14 167 14 134 0 195-55 53-47 53-128 0-64-35.5-108.5T364 324v-3q74-26 99-136Q500 29 515 0h-90q-14 24-45 161-15 70-45.5 99.5T245 292h-82V0H76zm87 604V358h89q69 0 110.5 35t41.5 93q0 63-41.5 94T249 612q-58 0-86-8z"/><glyph glyph-name="S" unicode="S" horiz-adv-x="493" d="M42 33l22 73q72-44 156-44 66 0 103.5 31.5T361 177q0 47-29 77.5T234 311Q56 374 56 502q0 80 60.5 131.5T274 685q91 0 149-33l-24-71q-59 32-128 32-63 0-95-30.5T144 512q0-46 30.5-74T278 382q89-34 130.5-80T450 184q0-83-61-138.5T214-10q-48 0-96 12.5T42 33z"/><glyph glyph-name="T" unicode="T" horiz-adv-x="497" d="M204 0v600H-1v74h499v-74H292V0h-88z"/><glyph glyph-name="U" unicode="U" horiz-adv-x="647" d="M75 674h88V275q0-108 43-161.5T320 60q78 0 121 53t43 162v399h88V281q0-148-69.5-220T317-11q-111 0-176.5 69.5T75 277v397z"/><glyph glyph-name="V" unicode="V" horiz-adv-x="558" d="M320 0h-96L4 674h94l105-332q51-161 72-252h2q21 88 77 251l114 333h93z"/><glyph glyph-name="W" unicode="W" horiz-adv-x="846" d="M277 0h-91L15 674h92l80-341q31-131 50-233h2q11 68 55 234l90 340h91l82-342q36-150 47-231h2q13 70 54 233l89 340h89L647 0h-91l-85 351q-32 133-44 220h-2q-19-104-52-220z"/><glyph glyph-name="X" unicode="X" horiz-adv-x="571" d="M546 0H445l-86 149q-52 84-78 133h-2q-30-61-73-134L125 0H25l206 341L33 674h101l89-158q42-73 62-114h3q24 50 61 114l92 158h100L336 346z"/><glyph glyph-name="Y" unicode="Y" horiz-adv-x="541" d="M314 0h-88v286L13 674h99l95-186q40-78 67-139h2q16 37 68 139l97 186h99L314 287V0z"/><glyph glyph-name="Z" unicode="Z" horiz-adv-x="553" d="M30 0v51l374 547v3H62v73h455v-53L145 76v-3h377V0H30z"/><glyph glyph-name="bracketleft" unicode="[" horiz-adv-x="284" d="M265-112H82v797h183v-55H150V-57h115v-55z"/><glyph glyph-name="backslash" unicode="\" horiz-adv-x="341" d="M342-40h-68L2 685h68z"/><glyph glyph-name="bracketright" unicode="]" horiz-adv-x="284" d="M19 686h183v-798H19v55h115v688H19v55z"/><glyph glyph-name="asciicircum" unicode="^" horiz-adv-x="596" d="M536 189h-70L299 577h-2L130 189H60l207 461h62z"/><glyph glyph-name="underscore" unicode="_" horiz-adv-x="500" d="M0-75h500v-50H0v50z"/><glyph glyph-name="grave" unicode="`" d="M22 693h97l87-143h-62z"/><glyph glyph-name="a" unicode="a" horiz-adv-x="482" d="M421 0h-80l-7 61h-3q-22-31-60.5-51.5T183-11q-70 0-109 41t-39 98q0 88 75.5 134.5T326 308v10q0 112-110 112-70 0-126-36l-20 58q66 43 159 43 53 0 90.5-17t57-46.5 28-62T413 297V116q0-72 8-116zm-93 163v84q-205 4-205-109 0-41 23.5-62.5T206 54q44 0 74.5 23.5T323 135q5 15 5 28z"/><glyph glyph-name="b" unicode="b" horiz-adv-x="569" d="M145 0H69q4 66 4 125v585h87V406h2q51 89 165 89 90 0 147.5-68.5T531 248q0-122-64.5-190.5T314-11q-111 0-162 91h-3zm15 281v-87q0-12 4-32 13-46 49-74.5T296 59q68 0 107.5 51T443 245q0 77-38 128.5T299 425q-46 0-83.5-29.5T165 317q-5-25-5-36z"/><glyph glyph-name="c" unicode="c" horiz-adv-x="448" d="M403 84l15-66q-54-28-139-28-109 0-175 68T38 237q0 113 71.5 185T298 494q72 0 122-25l-20-68q-40 23-102 23-80 0-125.5-52T127 241q0-83 47.5-132T295 60q53 0 108 24z"/><glyph glyph-name="d" unicode="d" horiz-adv-x="564" d="M403 710h88V125q0-81 4-125h-79l-4 84h-2q-21-42-64.5-68.5T245-11q-89 0-148 68.5T38 235q-1 117 62 188.5T255 495q52 0 90-21t56-53h2v289zm0-507v84q0 22-4 37-10 44-44.5 73T272 426q-67 0-106-52.5T127 239q0-77 37.5-128T270 60q45 0 81 28.5t48 76.5q4 16 4 38z"/><glyph glyph-name="e" unicode="e" horiz-adv-x="501" d="M462 226H122q1-84 48-126t118-42q75 0 134 25l15-63q-66-30-161-30-111 0-174.5 66.5T38 234q0 112 62 186.5T265 495q56 0 97.5-22.5t62.5-59 30.5-73T465 267q0-14-3-41zm-339 63h257q1 54-27.5 98.5T258 432q-61 0-95-44t-40-99z"/><glyph glyph-name="f" unicode="f" horiz-adv-x="292" d="M169 0H82v417H14v67h68v23q0 116 56 169 46 45 118 45 41 0 75-14l-12-68q-24 11-56 11-94 0-94-140v-26h117v-67H169V0z"/><glyph glyph-name="g" unicode="g" horiz-adv-x="559" d="M413 484h77q-4-70-4-133V70q0-159-69-221-62-58-176-58-101 0-161 40l22 67q61-38 142-38 72 0 114 41t42 128v54h-2Q349 2 244 2 155 2 96.5 69.5T38 238q0 117 65 187t153 70q107 0 151-84h2zm-14-278v87q0 25-5 40-13 41-45 67t-78 26q-64 0-104-50t-40-133q0-75 37.5-124.5T270 69q41 0 74.5 24.5T392 159q7 21 7 47z"/><glyph glyph-name="h" unicode="h" horiz-adv-x="555" d="M73 0v710h88V408h2q22 39 63 62 43 25 90 25 28 0 54.5-9.5t54-31 44-64.5T485 288V0h-88v278q0 64-27 104t-85 40q-41 0-73-25t-45-63q-6-14-6-42V0H73z"/><glyph glyph-name="i" unicode="i" horiz-adv-x="234" d="M161 0H73v484h88V0zm-44 675q24 0 39-15.5t15-39.5q1-23-14.5-38.5T115 566q-23 0-38 15.5T62 620t15.5 39 39.5 16z"/><glyph glyph-name="j" unicode="j" horiz-adv-x="243" d="M-36-209l-9 69q67 5 96 37 19 22 26 59.5T84 79v405h88V45q0-140-58-199-27-27-69-41t-81-14zm165 884q24 0 38.5-15.5T182 620q1-23-14.5-38.5T127 566q-24 0-39 16t-15 38q0 24 15.5 39.5T129 675z"/><glyph glyph-name="k" unicode="k" horiz-adv-x="469" d="M160 710V262h2q14 20 43 55l142 167h106L266 285 479 0H372L205 232l-45-50V0H73v710h87z"/><glyph glyph-name="l" unicode="l" horiz-adv-x="236" d="M73 0v710h88V0H73z"/><glyph glyph-name="m" unicode="m" horiz-adv-x="834" d="M73 0v353q0 78-4 131h77l4-78h3q52 89 152 89 48 0 84.5-26.5T442 398h2q21 39 54 63 45 34 107 34 27 0 52.5-10t50.5-31.5 40.5-65T764 285V0h-86v274q0 149-105 149-36 0-64-23t-40-57q-7-21-7-44V0h-86v290q0 60-26 96.5T275 423q-39 0-68.5-26T166 335q-7-18-7-43V0H73z"/><glyph glyph-name="n" unicode="n" horiz-adv-x="555" d="M73 0v353q0 78-4 131h78l5-80h2q20 38 62 64.5t98 26.5q28 0 55.5-9.5t54.5-31 44-64T485 289V0h-88v279q0 64-27 103.5T285 422q-42 0-74-26t-44-64q-6-16-6-41V0H73z"/><glyph glyph-name="o" unicode="o" horiz-adv-x="549" d="M278 495q104 0 168.5-69T511 246q0-125-71.5-191T270-11q-100 0-166 68T38 238q0 118 68 187.5T278 495zm-2-66q-73 0-111-55.5T127 241q0-80 41.5-133T274 55q63 0 105 53.5T421 243q0 44-14 84.5t-48 71-83 30.5z"/><glyph glyph-name="p" unicode="p" horiz-adv-x="569" d="M73-198v524q0 66-4 158h79l4-83h2q57 94 172 94 89 0 147-68.5T531 249q0-124-64-192T311-11q-48 0-87.5 20T162 65h-2v-263H73zm87 478v-83q0-14 4-36 12-46 48.5-74.5T296 58q69 0 108 51t39 136q0 76-38.5 128T299 425q-46 0-83-30t-50-79q-6-22-6-36z"/><glyph glyph-name="q" unicode="q" horiz-adv-x="563" d="M403-198V75h-2q-21-38-61.5-62T243-11q-87 0-146 68.5T38 234q0 126 66.5 193.5T257 495q106 0 149-84h2l3 73h83q-3-61-3-133v-549h-88zm0 395v91q0 22-4 37-10 42-44 71t-82 29q-67 0-106.5-51.5T127 239q0-77 37-128.5T270 59q43 0 77 25.5t49 70.5q7 21 7 42z"/><glyph glyph-name="r" unicode="r" horiz-adv-x="327" d="M73 0v333q0 91-4 151h77l3-95h4q16 49 53 77.5t81 28.5q13 0 25-3v-83q-14 3-30 3-46 0-77.5-31T164 299q-4-24-4-41V0H73z"/><glyph glyph-name="s" unicode="s" horiz-adv-x="396" d="M39 23l22 67q54-35 116-35 46 0 70 20t24 52q0 31-20.5 51T181 216Q53 262 53 353q0 60 45.5 101T220 495q68 0 119-30l-22-64q-44 28-99 28-38 0-59.5-19T137 363q0-29 20.5-46t71.5-36q65-25 96-59t31-87q0-65-48-105T175-10Q95-10 39 23z"/><glyph glyph-name="t" unicode="t" horiz-adv-x="331" d="M93 600l86 23V484h126v-67H179V156q0-94 66-94 29 0 51 6l4-66q-29-12-78-12-63 0-95 37-34 35-34 126v264H18v67h75v116z"/><glyph glyph-name="u" unicode="u" horiz-adv-x="551" d="M478 484V132q0-81 4-132h-78l-5 79h-2q-21-36-61.5-63T237-11q-31 0-58.5 9.5t-53 32-40.5 66T70 201v283h88V216q0-154 108-154 41 0 72 23.5t44 56.5q8 21 8 45v297h88z"/><glyph glyph-name="v" unicode="v" horiz-adv-x="481" d="M13 484h94l95-272q26-70 39-124h3q13 46 41 124l94 272h92L281 0h-84z"/><glyph glyph-name="w" unicode="w" horiz-adv-x="736" d="M18 484h90l64-246q27-104 36-154h3q11 49 43 153l79 247h74l75-242q27-88 43-158h3q10 60 37 157l69 243h87L565 0h-80l-74 231q-29 91-43 159h-2q-14-69-44-160L244 0h-80z"/><glyph glyph-name="x" unicode="x" horiz-adv-x="463" d="M16 484h98l69-104q20-30 49-79h3q11 19 48 80l68 103h95L281 250 451 0H351l-71 109q-20 30-52 84h-2q-9-16-51-84L105 0H8l172 247z"/><glyph glyph-name="y" unicode="y" horiz-adv-x="471" d="M9 484h96l106-286q19-54 31-99h2q1 3 12.5 41.5T275 200l96 284h93L332 139Q283 10 246.5-58T166-164q-53-47-108-57l-22 74q42 13 77 43 47 37 74 98 7 16 7 21 0 7-6 23z"/><glyph glyph-name="z" unicode="z" horiz-adv-x="428" d="M18 0v51l219 285q10 12 63 75v2H38v71h369l-1-55-216-281q-26-35-62-76v-2h283V0H18z"/><glyph glyph-name="braceleft" unicode="{" horiz-adv-x="284" d="M28 262v51q48 0 64.5 20.5T109 387q0 28-8 84t-8 83q0 66 39 98.5T238 685h21v-55h-18q-79 0-79-86 0-29 7-71 7-44 7-76 1-88-72-108v-2q73-18 72-109 0-34-7-76-7-44-7-72 0-87 79-87h18v-55h-21Q93-112 93 25q0 28 8 82t8 81q0 74-81 74z"/><glyph glyph-name="bar" unicode="|" horiz-adv-x="239" d="M86 750h67V-250H86V750z"/><glyph glyph-name="braceright" unicode="}" horiz-adv-x="284" d="M256 313v-51q-81 0-81-74 0-27 8-81t8-82q0-137-145-137H25v55h17q80 1 80 87 0 14-7 72-8 48-8 76 0 91 72 109v2q-72 20-72 108 0 26 8 76 7 56 7 71 0 85-79 86H25v55h20q67 0 106.5-32.5T191 554q0-27-8-83t-8-84q0-33 16.5-53.5T256 313z"/><glyph glyph-name="asciitilde" unicode="~" horiz-adv-x="596" d="M108 210H49q-3 72 31 111.5t88 39.5q30 0 58.5-9.5T309 316q89-42 125-42 52 0 54 84h60q3-78-30-114.5T433 207q-50 0-145 44-6 3-19.5 9.5t-19 9.5-16.5 8-17.5 7-15.5 5-16.5 4-15.5 1q-57 0-60-85z"/><glyph glyph-name="uni00A0" horiz-adv-x="212"/><glyph glyph-name="exclamdown" unicode="¡" horiz-adv-x="230" d="M164-198H67l14 477h68zm-48 686q26 0 42-17.5t16-44.5-16-44.5-43-17.5q-26 0-42.5 17.5T56 426t17 44.5 43 17.5z"/><glyph glyph-name="cent" unicode="¢" horiz-adv-x="513" d="M330-14h-62V87q-91 11-145 70-56 63-56 169 0 97 55 164.5T268 573v100h62v-98q61 0 109-25l-20-67q-42 25-104 25-72 0-116-51t-44-127q0-81 44-128.5T311 154q59 0 114 25l16-63q-48-26-111-29V-14z"/><glyph glyph-name="sterling" unicode="£" horiz-adv-x="513" d="M471 0H56v50q51 26 82.5 73T170 225q0 37-5 70H62v63h93q-11 66-11 108 0 88 54 141.5T336 661q69 0 109-25l-20-66q-36 20-89 20-56 0-83-34t-27-91q0-43 12-107h144v-63H246q6-73-4-112-16-63-69-108v-2h298V0z"/><glyph glyph-name="currency" unicode="¤" horiz-adv-x="513" d="M256 534q69 0 116-40l71 75 44-46-78-71q35-50 35-117 0-74-35-123l75-74-45-44-68 77q-44-43-117-43-71 0-114 40L73 94l-43 44 72 71q-37 48-37 120 0 71 39 123l-75 71 44 46 69-76q46 41 114 41zm-1-63q-54 0-86.5-40.5T136 330q0-67 37-103t81-36q48 0 83.5 36T373 334q0 56-31.5 96.5T255 471z"/><glyph glyph-name="yen" unicode="¥" horiz-adv-x="513" d="M292 0h-83v175H54v50h155v72H54v50h130L16 650h94l104-206q24-51 40-91h3q16 46 40 93l108 204h92L318 347h130v-50H292v-72h156v-50H292V0z"/><glyph glyph-name="brokenbar" unicode="¦" horiz-adv-x="239" d="M86 174h67v-350H86v350zm0 500h67V324H86v350z"/><glyph glyph-name="section" unicode="§" horiz-adv-x="519" d="M130 351q0-28 24.5-51t81.5-44q88-31 114-48 38 27 38 77 0 62-89 93-101 38-123 51-46-33-46-78zm288 299l-21-57q-52 32-120 32-45 0-74.5-20.5T173 551q0-36 29-55t96-41q79-26 121-61t42-97q0-71-65-121 38-31 38-88 0-74-56.5-112T244-62Q144-62 87-20l24 57Q169-4 243-4q50 0 81 21.5T355 78q0 35-26 57.5T233 182q-88 30-131 64t-43 94q0 70 73 117-35 28-37 84 0 64 53 103t132 39 138-33z"/><glyph glyph-name="dieresis" unicode="¨" d="M58 570q-22 0-36.5 15T7 621t15 36 36 15 35-14.5 14-36.5q0-21-14-36t-35-15zm185 0q-22 0-36 15t-14 36 14.5 36 35.5 15 35-14.5 14-36.5q0-21-14-36t-35-15z"/><glyph glyph-name="copyright" unicode="©" horiz-adv-x="677" d="M340 648q126 0 213.5-90T641 340q0-129-87.5-219.5T340 30q-127 0-215.5 90.5T36 340q0 128 88.5 218T340 648zm0-41q-108 0-181-78T86 337q0-112 73-189t181-77q106 0 178.5 77.5T591 340q0 112-72.5 189.5T340 607zm134-114l-12-39q-43 23-97 23-68 0-104-38.5T225 337q0-61 37-101t104-40q61 0 101 26l12-38q-47-31-123-31-85 0-134 51.5T173 334q0 83 56 134.5T364 520q36 0 67.5-8.5T474 493z"/><glyph glyph-name="ordfeminine" unicode="ª" horiz-adv-x="346" d="M305 266h-60l-6 42h-2q-37-47-101-47-48 0-75.5 27T33 356q0 55 53 85.5T234 470v10q0 11-4.5 23.5T207 529t-47 13q-52 0-86-27l-16 43q46 33 114 33 127 0 127-140V344q0-42 6-78zm-70 106v55q-136 2-136-67 0-24 17-37.5t41-13.5q43 0 68 36 10 17 10 27z"/><glyph glyph-name="guillemotleft" unicode="«" horiz-adv-x="419" d="M232 436L98 252 232 68h-71L29 252l132 184h71zm164 0L262 252 396 68h-71L193 252l132 184h71z"/><glyph glyph-name="logicalnot" unicode="¬" horiz-adv-x="596" d="M40 399h516V121h-64v218H40v60z"/><glyph glyph-name="uni00AD" unicode="­" horiz-adv-x="307" d="M30 303h247v-65H30v65z"/><glyph glyph-name="registered" unicode="®" horiz-adv-x="419" d="M184 501v-66h-38v164q25 5 63 5 36 0 57-12 16-12 16-36 0-28-34-38v-2q23-9 30-40 7-33 12-41h-41q-4 4-13 40-4 26-34 26h-18zm1 74v-47h18q38 0 38 24 0 25-35 25-13 0-21-2zm25 110q71 0 119.5-47.5T378 521q0-70-48.5-118T210 355 90 403 41 521q0 68 49.5 116T210 685zm0-33q-54 0-90.5-38T83 521t36.5-93 91.5-38q54 0 89.5 37.5T336 520t-36 93.5-90 38.5z"/><glyph glyph-name="macron" unicode="¯" d="M38 643h225v-57H38v57z"/><glyph glyph-name="degree" unicode="°" horiz-adv-x="318" d="M162 685q59 0 95.5-38.5T294 555q0-59-40-96.5T160 421q-57 0-94 37.5T29 550q-1 57 38 96t95 39zm-1-47q-37 0-57.5-26.5T83 550t22.5-58.5T161 468q34 0 56.5 24.5T240 554q0 32-20 58t-59 26z"/><glyph glyph-name="plusminus" unicode="±" horiz-adv-x="596" d="M266 572h64V377h226v-60H330V117h-64v200H40v60h226v195zM40 60h516V0H40v60z"/><glyph glyph-name="twosuperior" unicode="²" horiz-adv-x="311" d="M12 443v37l63 58q68 62 97 100t29 74q0 30-19.5 49.5T125 781q-42 0-84-31l-21 46q52 42 122 42 65 0 99-34t34-79q0-52-32.5-95T142 528l-31-28v-2h171v-55H12z"/><glyph glyph-name="threesuperior" unicode="³" horiz-adv-x="305" d="M45 759l-17 47q49 32 115 32 61 0 91.5-27.5T265 743q0-30-20.5-53.5T188 653v-2q41-5 67-32t26-64q0-49-42.5-83T123 438q-74 0-114 27l18 50q42-26 93-26 43 0 65.5 20.5T207 556q0 36-31 53.5T101 627H74v46h28q33 0 61.5 16t29.5 47q0 21-15.5 35.5T130 786q-46 0-85-27z"/><glyph glyph-name="acute" unicode="´" d="M189 693h97L164 550h-63z"/><glyph glyph-name="mu" unicode="µ" horiz-adv-x="553" d="M403 75h-3q-18-34-54-59T261-9q-76 0-106 53v-60q0-138 11-182H87Q73-156 73-20v504h87V198q0-60 27-98.5T269 61q41 0 72 24t44 57q8 21 8 45v297h87V133q0-40 10-57.5T526 57l-7-64q-13-4-30-4-75 0-86 86z"/><glyph glyph-name="paragraph" unicode="¶" horiz-adv-x="512" d="M293-49h-63v313h-7q-68 0-128.5 52T34 456q0 42 13 78.5T89 604t85.5 52.5T309 676q79 0 117-9V-49h-62v664h-71V-49z"/><glyph glyph-name="periodcentered" unicode="·" horiz-adv-x="207" d="M103 200q-26 0-43 18t-16 45q0 27 17 45t43 18 42-17.5 17-45.5q0-27-16.5-45T103 200z"/><glyph glyph-name="cedilla" unicode="¸" d="M136 2h54l-33-52q29-4 49.5-23t20.5-46q0-42-29.5-61.5T123-200q-39 0-68 17l15 43q24-15 54-15 43 0 43 32-1 35-78 42z"/><glyph glyph-name="onesuperior" unicode="¹" horiz-adv-x="244" d="M177 443h-70v328h-2l-72-34-11 52 94 44h61V443z"/><glyph glyph-name="ordmasculine" unicode="º" horiz-adv-x="355" d="M179 591q72 0 115-45.5T337 428q-1-81-48.5-124T177 261q-68 0-113.5 45T18 423q0 76 47 122t114 46zm-2-50q-45 0-68.5-35T85 425q0-49 27.5-81.5T178 311q40 0 66 32t26 83q0 44-24 79.5T177 541z"/><glyph glyph-name="guillemotright" unicode="»" horiz-adv-x="419" d="M157 252L23 436h71l133-184L94 68H24zm163 0L186 436h71l133-184L257 68h-70z"/><glyph glyph-name="onequarter" unicode="¼" horiz-adv-x="759" d="M198 266h-70v329h-2l-72-35-11 52 94 44h61V266zm-4-277h-56l380 672h56zM664 0h-68v103H407v40l178 249h79V152h55v-49h-55V0zm-68 152v118q0 3 3 63h-2q-19-37-34-59l-86-120v-2h119z"/><glyph glyph-name="onehalf" unicode="½" horiz-adv-x="759" d="M184 266h-70v329h-2l-72-35-11 52 93 44h62V266zm-9-277h-56l379 672h57zM440 0v37l63 59q68 61 97 99t29 74q0 30-19.5 50T553 339q-39 0-84-31l-21 45q49 42 122 42 66 0 99.5-33.5T703 282q0-51-32-94T570 85l-31-28v-2h171V0H440z"/><glyph glyph-name="threequarters" unicode="¾" horiz-adv-x="759" d="M66 583l-17 47q48 31 115 31 61 0 91.5-27t30.5-67q0-30-20.5-54T210 477v-2q41-6 66.5-32.5T302 378q0-49-42-83t-115-34q-72 0-115 28l18 50q38-26 93-26 43 0 65.5 20.5T229 380q-1 35-32 52.5T123 450H95v46h28q34 0 62.5 16t28.5 48q0 20-16 34.5T151 609q-47 0-85-26zM231-11h-56l380 672h56zM674 0h-67v103H418v40l177 249h79V152h56v-49h-56V0zm-67 152v118q0 3 3 63h-2q-19-37-34-59l-87-120 1-2h119z"/><glyph glyph-name="questiondown" unicode="¿" horiz-adv-x="406" d="M237 489q27 0 43-17.5t16-44.5-16.5-45-42.5-18-42.5 18-16.5 45 16.5 44.5T237 489zm-40-204h78l3-26q9-84-63-171-37-44-53-74t-16-62q0-39 24-62t71-23q61 0 101 31l24-64q-59-40-144-40-81 0-124 42.5T55-59q0 46 21.5 83.5T142 113q60 74 56 146z"/><glyph glyph-name="Agrave" unicode="À" horiz-adv-x="612" d="M424 212H185L115 0H25l229 674h105L589 0h-93zm-221 68h203l-66 194q-14 41-35 123h-2q-17-70-34-122zm-43 547h107l92-116h-71z"/><glyph glyph-name="Aacute" unicode="Á" horiz-adv-x="612" d="M424 212H185L115 0H25l229 674h105L589 0h-93zm-221 68h203l-66 194q-14 41-35 123h-2q-17-70-34-122zm145 547h106L327 710h-72z"/><glyph glyph-name="Acircumflex" unicode="Â" horiz-adv-x="612" d="M424 212H185L115 0H25l229 674h105L589 0h-93zm-221 68h203l-66 194q-14 41-35 123h-2q-17-70-34-122zm73 544h67l105-114h-74l-63 69h-2l-64-69h-71z"/><glyph glyph-name="Atilde" unicode="Ã" horiz-adv-x="612" d="M424 212H185L115 0H25l229 674h105L589 0h-93zm-221 68h203l-66 194q-14 41-35 123h-2q-17-70-34-122zm29 435h-47q-1 46 17.5 74t50.5 28q22 0 60-20 32-18 47-18 13 0 19.5 8t7.5 31h47q2-97-68-97-23 0-61 19-36 19-47 19-21 0-26-44z"/><glyph glyph-name="Adieresis" unicode="Ä" horiz-adv-x="612" d="M424 212H185L115 0H25l229 674h105L589 0h-93zm-221 68h203l-66 194q-14 41-35 123h-2q-17-70-34-122zm14 439q-21 0-35 15t-14 36 14 35.5 36 14.5q20 0 33.5-14.5T265 770q0-22-13.5-36.5T217 719zm185 0q-21 0-34.5 14.5T354 770q0 21 14 35.5t35 14.5 34.5-14.5T451 770q0-22-13.5-36.5T402 719z"/><glyph glyph-name="Aring" unicode="Å" horiz-adv-x="612" d="M424 212H185L115 0H25l229 674h105L589 0h-93zm-221 68h203l-66 194q-14 41-35 123h-2q-17-70-34-122zm105 598q45 0 72-26t27-64-28-63.5-71-25.5q-45 0-72.5 25.5T208 787q0 39 27.5 65t72.5 26zm-1-36q-22 0-35-16t-13-39q0-20 13.5-35.5T307 736t34.5 15.5T355 789t-13.5 37.5T307 842z"/><glyph glyph-name="AE" unicode="Æ" horiz-adv-x="788" d="M89 0H-1l308 674h422v-73H442l26-215h251v-72H479l30-241h247V0H434l-30 238H197zm137 308h168l-22 194q-11 84-12 109h-4q-10-28-43-106z"/><glyph glyph-name="Ccedilla" unicode="Ç" horiz-adv-x="580" d="M529 91l18-69q-64-32-177-32l-23-40q30-6 50-26t20-49q0-41-30-61t-73-20q-42 0-71 17l14 45q24-13 56-13 42 0 42 30 0 35-78 43l42 77Q191 9 113.5 96.5T36 331q0 158 97.5 256T388 685q102 0 160-30l-21-71q-58 28-136 28-120 0-191.5-73.5T128 334q0-125 68.5-198T387 63q84 0 142 28z"/><glyph glyph-name="Egrave" unicode="È" horiz-adv-x="492" d="M425 388v-72H163V73h292V0H76v674h364v-73H163V388h262zM119 827h106l93-116h-72z"/><glyph glyph-name="Eacute" unicode="É" horiz-adv-x="492" d="M425 388v-72H163V73h292V0H76v674h364v-73H163V388h262zM302 827h106L281 710h-72z"/><glyph glyph-name="Ecircumflex" unicode="Ê" horiz-adv-x="492" d="M425 388v-72H163V73h292V0H76v674h364v-73H163V388h262zM223 824h67l105-114h-74l-64 69h-2l-63-69h-72z"/><glyph glyph-name="Edieresis" unicode="Ë" horiz-adv-x="492" d="M425 388v-72H163V73h292V0H76v674h364v-73H163V388h262zM163 721q-22 0-36 15t-14 36q0 20 14.5 35t35.5 15 34.5-14.5T211 772q0-22-13.5-36.5T163 721zm185 0q-21 0-35 15t-14 36 14 35.5 35 14.5 35-14.5 14-35.5q0-22-13.5-36.5T348 721z"/><glyph glyph-name="Igrave" unicode="Ì" horiz-adv-x="239" d="M76 674h87V0H76v674zM-25 827H81l92-116h-71z"/><glyph glyph-name="Iacute" unicode="Í" horiz-adv-x="239" d="M76 674h87V0H76v674zm83 153h107L138 710H67z"/><glyph glyph-name="Icircumflex" unicode="Î" horiz-adv-x="239" d="M76 674h87V0H76v674zm9 150h67l105-114h-73l-64 69h-2l-64-69h-71z"/><glyph glyph-name="Idieresis" unicode="Ï" horiz-adv-x="239" d="M76 674h87V0H76v674zm-48 47q-22 0-36 15t-14 36q0 20 14.5 35T28 822t34.5-14.5T76 772q0-22-13.5-36.5T28 721zm185 0q-21 0-35 15t-14 36 14.5 35.5T214 822t34.5-14.5T262 772q0-22-13.5-36.5T213 721z"/><glyph glyph-name="Eth" unicode="Ð" horiz-adv-x="671" d="M-2 307v70h83v290q88 15 185 15 183 0 273-84 95-87 95-245 0-166-97-263T239-7Q143-7 81 0v307H-2zm350 70v-70H168V67q29-4 87-4 141 0 214.5 74.5T543 352q1 123-68.5 191.5T270 612q-61 0-102-9V377h180z"/><glyph glyph-name="Ntilde" unicode="Ñ" horiz-adv-x="658" d="M158 0H76v674h95l216-341q73-115 121-219l2 1q-10 112-10 277v282h82V0h-88L280 342q-83 132-126 225l-3-1q7-119 7-278V0zm99 715h-47q-2 46 16.5 74t51.5 28q21 0 59-20 32-18 48-18 12 0 18.5 8t8.5 31h46q2-97-67-97-23 0-61 19-36 19-47 19-23 0-26-44z"/><glyph glyph-name="Ograve" unicode="Ò" horiz-adv-x="689" d="M349 685q137 0 220-95t83-246q0-168-89-261.5T339-11q-134 0-218.5 95T36 331q0 159 88 256.5T349 685zm-4-71q-103 0-159.5-81.5T129 333q0-113 58-193t157-80q100 0 158 80t58 200q0 110-56.5 192T345 614zM199 829h107l92-116h-71z"/><glyph glyph-name="Oacute" unicode="Ó" horiz-adv-x="689" d="M349 685q137 0 220-95t83-246q0-168-89-261.5T339-11q-134 0-218.5 95T36 331q0 159 88 256.5T349 685zm-4-71q-103 0-159.5-81.5T129 333q0-113 58-193t157-80q100 0 158 80t58 200q0 110-56.5 192T345 614zm39 215h106L363 713h-72z"/><glyph glyph-name="Ocircumflex" unicode="Ô" horiz-adv-x="689" d="M349 685q137 0 220-95t83-246q0-168-89-261.5T339-11q-134 0-218.5 95T36 331q0 159 88 256.5T349 685zm-4-71q-103 0-159.5-81.5T129 333q0-113 58-193t157-80q100 0 158 80t58 200q0 110-56.5 192T345 614zm-35 213h67l105-114h-74l-64 69h-2l-63-69h-72z"/><glyph glyph-name="Otilde" unicode="Õ" horiz-adv-x="689" d="M349 685q137 0 220-95t83-246q0-168-89-261.5T339-11q-134 0-218.5 95T36 331q0 159 88 256.5T349 685zm-4-71q-103 0-159.5-81.5T129 333q0-113 58-193t157-80q100 0 158 80t58 200q0 110-56.5 192T345 614zm-78 103h-47q-2 46 16.5 74t51.5 28q24 0 59-20 32-18 48-18 12 0 18.5 8t8.5 31h46q2-97-67-97-23 0-61 19-36 19-47 19-23 0-26-44z"/><glyph glyph-name="Odieresis" unicode="Ö" horiz-adv-x="689" d="M349 685q137 0 220-95t83-246q0-168-89-261.5T339-11q-134 0-218.5 95T36 331q0 159 88 256.5T349 685zm-4-71q-103 0-159.5-81.5T129 333q0-113 58-193t157-80q100 0 158 80t58 200q0 110-56.5 192T345 614zm-93 107q-22 0-35.5 14.5T203 772q0 21 14 35.5t35 14.5 34.5-14.5T300 772q0-22-13.5-36.5T252 721zm185 0q-21 0-35 15t-14 36 14.5 35.5T438 822t34.5-14.5T486 772q0-22-13.5-36.5T437 721z"/><glyph glyph-name="multiply" unicode="×" horiz-adv-x="596" d="M40 482l44 44 214-219 214 219 44-44-215-219L556 44 512 0 298 219 84 0 40 44l214 219z"/><glyph glyph-name="Oslash" unicode="Ø" horiz-adv-x="689" d="M112-43L63-4l62 88q-89 95-89 249 0 157 88.5 254.5T347 685q95 0 168-53l59 81 53-36-62-86q87-95 87-248 0-168-88.5-261T346-11q-97 0-171 54zm64 201l296 410q-55 47-126 47-104 0-162.5-81.5T125 338q0-94 50-181zm337 357L218 107q51-48 126-48 102 0 160.5 81T563 340q0 98-47 175h-3z"/><glyph glyph-name="Ugrave" unicode="Ù" horiz-adv-x="647" d="M75 674h88V275q0-108 43-161.5T320 60q78 0 121 53t43 162v399h88V281q0-148-69.5-220T317-11q-111 0-176.5 69.5T75 277v397zm108 153h106l93-116h-72z"/><glyph glyph-name="Uacute" unicode="Ú" horiz-adv-x="647" d="M75 674h88V275q0-108 43-161.5T320 60q78 0 121 53t43 162v399h88V281q0-148-69.5-220T317-11q-111 0-176.5 69.5T75 277v397zm291 153h107L345 710h-71z"/><glyph glyph-name="Ucircumflex" unicode="Û" horiz-adv-x="647" d="M75 674h88V275q0-108 43-161.5T320 60q78 0 121 53t43 162v399h88V281q0-148-69.5-220T317-11q-111 0-176.5 69.5T75 277v397zm220 150h67l105-114h-74l-63 69h-2l-64-69h-71z"/><glyph glyph-name="Udieresis" unicode="Ü" horiz-adv-x="647" d="M75 674h88V275q0-108 43-161.5T320 60q78 0 121 53t43 162v399h88V281q0-148-69.5-220T317-11q-111 0-176.5 69.5T75 277v397zm158 47q-21 0-35 15t-14 36q0 20 14.5 35t35.5 15q20 0 34-14.5t14-35.5-14-36-35-15zm186 0q-22 0-35.5 14.5T370 772q0 21 14 35.5t35 14.5 34.5-14.5T467 772q0-22-13.5-36.5T419 721z"/><glyph glyph-name="Yacute" unicode="Ý" horiz-adv-x="541" d="M314 0h-88v286L13 674h99l95-186q40-78 67-139h2q16 37 68 139l97 186h99L314 287V0zm6 821h106L299 705h-72z"/><glyph glyph-name="Thorn" unicode="Þ" horiz-adv-x="531" d="M76 0v674h86V542q43 8 96 8 115 0 178-55 55-52 55-131 0-103-69.5-158T238 151q-41 0-76 5V0H76zm86 473V227q28-6 75-6 80 0 123.5 36t43.5 98q0 63-41 94.5T250 481q-56 0-88-8z"/><glyph glyph-name="germandbls" unicode="ß" horiz-adv-x="548" d="M161 0H73v452q0 153 71 218 57 51 147 51 75 0 126.5-45T469 552q0-49-23-82-72-30-72-81 0-16 7-31.5t16-25.5 28-30q26-26 40-42.5t27.5-47T506 148q0-71-48.5-115T327-11q-65 0-106 21l16 67q40-20 84-20 46 0 72 24t26 60q0 54-54 103-39 37-58.5 66T287 377q0 79 89 123 9 22 9 43 0 51-28.5 80T281 652q-60 0-90-46t-30-150V0z"/><glyph glyph-name="agrave" unicode="à" horiz-adv-x="482" d="M421 0h-80l-7 61h-3q-22-31-60.5-51.5T183-11q-70 0-109 41t-39 98q0 88 75.5 134.5T326 308v10q0 112-110 112-70 0-126-36l-20 58q66 43 159 43 53 0 90.5-17t57-46.5 28-62T413 297V116q0-72 8-116zm-93 163v84q-205 4-205-109 0-41 23.5-62.5T206 54q44 0 74.5 23.5T323 135q5 15 5 28zM95 693h97l87-143h-62z"/><glyph glyph-name="aacute" unicode="á" horiz-adv-x="482" d="M421 0h-80l-7 61h-3q-22-31-60.5-51.5T183-11q-70 0-109 41t-39 98q0 88 75.5 134.5T326 308v10q0 112-110 112-70 0-126-36l-20 58q66 43 159 43 53 0 90.5-17t57-46.5 28-62T413 297V116q0-72 8-116zm-93 163v84q-205 4-205-109 0-41 23.5-62.5T206 54q44 0 74.5 23.5T323 135q5 15 5 28zm-53 530h97L250 550h-63z"/><glyph glyph-name="acircumflex" unicode="â" horiz-adv-x="482" d="M421 0h-80l-7 61h-3q-22-31-60.5-51.5T183-11q-70 0-109 41t-39 98q0 88 75.5 134.5T326 308v10q0 112-110 112-70 0-126-36l-20 58q66 43 159 43 53 0 90.5-17t57-46.5 28-62T413 297V116q0-72 8-116zm-93 163v84q-205 4-205-109 0-41 23.5-62.5T206 54q44 0 74.5 23.5T323 135q5 15 5 28zM205 693h61l96-143h-67l-58 95h-2l-58-95h-66z"/><glyph glyph-name="atilde" unicode="ã" horiz-adv-x="482" d="M421 0h-80l-7 61h-3q-22-31-60.5-51.5T183-11q-70 0-109 41t-39 98q0 88 75.5 134.5T326 308v10q0 112-110 112-70 0-126-36l-20 58q66 43 159 43 53 0 90.5-17t57-46.5 28-62T413 297V116q0-72 8-116zm-93 163v84q-205 4-205-109 0-41 23.5-62.5T206 54q44 0 74.5 23.5T323 135q5 15 5 28zM163 567h-48q-1 48 17 76t51 28q23 0 62-22 30-17 42-17 13 0 19.5 9.5T315 675h46q3-101-68-101-23 0-61 20-30 18-43 18-23 0-26-45z"/><glyph glyph-name="adieresis" unicode="ä" horiz-adv-x="482" d="M421 0h-80l-7 61h-3q-22-31-60.5-51.5T183-11q-70 0-109 41t-39 98q0 88 75.5 134.5T326 308v10q0 112-110 112-70 0-126-36l-20 58q66 43 159 43 53 0 90.5-17t57-46.5 28-62T413 297V116q0-72 8-116zm-93 163v84q-205 4-205-109 0-41 23.5-62.5T206 54q44 0 74.5 23.5T323 135q5 15 5 28zM149 570q-22 0-36.5 15T98 621t15 36 36 15 35-14.5 14-36.5q0-21-14-36t-35-15zm185 0q-22 0-36 15t-14 36 14.5 36 35.5 15 35-14.5 14-36.5q0-21-14-36t-35-15z"/><glyph glyph-name="aring" unicode="å" horiz-adv-x="482" d="M421 0h-80l-7 61h-3q-22-31-60.5-51.5T183-11q-70 0-109 41t-39 98q0 88 75.5 134.5T326 308v10q0 112-110 112-70 0-126-36l-20 58q66 43 159 43 53 0 90.5-17t57-46.5 28-62T413 297V116q0-72 8-116zm-93 163v84q-205 4-205-109 0-41 23.5-62.5T206 54q44 0 74.5 23.5T323 135q5 15 5 28zm-88 374q-44 0-72.5 26T139 628q0 41 28 68t74 27q44 0 71.5-27t27.5-67-28.5-66-71.5-26zm-1 37q23 0 37.5 16.5T291 630t-14.5 39-37.5 16-36-16.5-13-40.5q0-21 14-37.5t35-16.5z"/><glyph glyph-name="ae" unicode="æ" horiz-adv-x="773" d="M734 233H410q-2-84 40.5-130T564 57q74 0 132 28l16-62q-63-34-159-34-63 0-113 28.5T369 96h-2q-23-50-70.5-78.5T187-11q-72 0-111.5 40.5T36 127q0 84 76 130t216 45v20q0 12-4.5 27.5t-15 35-35 32.5-58.5 13q-70 0-124-37l-21 58q70 44 151 44 123 0 156-103h2q25 49 69 76t100 27q42 0 76-15.5t54.5-39.5 34.5-55 19-59 5-54-3-39zm-405-61v71q-206 4-206-109 0-37 24-58.5T207 54q45 0 75.5 23.5T324 137q5 14 5 35zm80 124h243q2 28-7.5 57.5t-37 54T539 432q-59 0-93-43.5T409 296z"/><glyph glyph-name="ccedilla" unicode="ç" horiz-adv-x="448" d="M403 84l15-66Q370-7 293-10l-26-40q29-4 49.5-23t20.5-46q0-42-29.5-61.5T233-200q-39 0-68 17l15 43q24-15 54-15 43 0 43 32-1 35-78 42l42 73Q148 4 93 70T38 237q0 113 71.5 185T298 494q72 0 122-25l-20-68q-40 23-102 23-80 0-125.5-52T127 241q0-83 47.5-132T295 60q53 0 108 24z"/><glyph glyph-name="egrave" unicode="è" horiz-adv-x="501" d="M462 226H122q1-84 48-126t118-42q75 0 134 25l15-63q-66-30-161-30-111 0-174.5 66.5T38 234q0 112 62 186.5T265 495q56 0 97.5-22.5t62.5-59 30.5-73T465 267q0-14-3-41zm-339 63h257q1 54-27.5 98.5T258 432q-61 0-95-44t-40-99zm12 404h97l88-143h-63z"/><glyph glyph-name="eacute" unicode="é" horiz-adv-x="501" d="M462 226H122q1-84 48-126t118-42q75 0 134 25l15-63q-66-30-161-30-111 0-174.5 66.5T38 234q0 112 62 186.5T265 495q56 0 97.5-22.5t62.5-59 30.5-73T465 267q0-14-3-41zm-339 63h257q1 54-27.5 98.5T258 432q-61 0-95-44t-40-99zm181 404h97L279 550h-63z"/><glyph glyph-name="ecircumflex" unicode="ê" horiz-adv-x="501" d="M462 226H122q1-84 48-126t118-42q75 0 134 25l15-63q-66-30-161-30-111 0-174.5 66.5T38 234q0 112 62 186.5T265 495q56 0 97.5-22.5t62.5-59 30.5-73T465 267q0-14-3-41zm-339 63h257q1 54-27.5 98.5T258 432q-61 0-95-44t-40-99zm109 404h60l96-143h-67l-58 95h-2l-58-95h-66z"/><glyph glyph-name="edieresis" unicode="ë" horiz-adv-x="501" d="M462 226H122q1-84 48-126t118-42q75 0 134 25l15-63q-66-30-161-30-111 0-174.5 66.5T38 234q0 112 62 186.5T265 495q56 0 97.5-22.5t62.5-59 30.5-73T465 267q0-14-3-41zm-339 63h257q1 54-27.5 98.5T258 432q-61 0-95-44t-40-99zm53 281q-22 0-36.5 15T125 621t15 36 36 15 35-14.5 14-36.5q0-21-14-36t-35-15zm185 0q-22 0-36 15t-14 36 14.5 36 35.5 15 35-14.5 14-36.5q0-21-14-36t-35-15z"/><glyph glyph-name="igrave" unicode="ì" horiz-adv-x="234" d="M161 0H73v484h88V0zM-28 693h97l88-143H95z"/><glyph glyph-name="iacute" unicode="í" horiz-adv-x="234" d="M161 0H73v484h88V0zm-6 693h97L130 550H67z"/><glyph glyph-name="icircumflex" unicode="î" horiz-adv-x="234" d="M161 0H73v484h88V0zM86 693h61l96-143h-68l-58 95h-2l-58-95H-8z"/><glyph glyph-name="idieresis" unicode="ï" horiz-adv-x="234" d="M161 0H73v484h88V0zM25 570q-22 0-36.5 15T-26 621t15 36 36 15 35-14.5T74 621q0-21-14-36t-35-15zm185 0q-22 0-36 15t-14 36 14.5 36 35.5 15 35-14.5 14-36.5q0-21-14-36t-35-15z"/><glyph glyph-name="eth" unicode="ð" horiz-adv-x="541" d="M267 55q65 0 104.5 52.5T411 243q0 92-34 134-41 47-106 47-71 0-107.5-58T127 237q0-77 40-129.5T267 55zM116 507l-19 43 116 55q-38 28-104 60l38 55q79-36 141-81l128 61 21-44-106-50q85-69 128-159 42-87 42-194 0-67-19.5-119T428 51 353 4.5 267-11q-100 0-164.5 67.5T38 236q0 113 67 180.5T263 484q66 0 111-43l2 3q-45 75-118 129z"/><glyph glyph-name="ntilde" unicode="ñ" horiz-adv-x="555" d="M73 0v353q0 78-4 131h78l5-80h2q20 38 62 64.5t98 26.5q28 0 55.5-9.5t54.5-31 44-64T485 289V0h-88v279q0 64-27 103.5T285 422q-42 0-74-26t-44-64q-6-16-6-41V0H73zm130 567h-48q-1 48 17 76t51 28q23 0 62-22 30-17 42-17 25 0 28 43h47q2-101-69-101-23 0-61 20-30 18-43 18-23 0-26-45z"/><glyph glyph-name="ograve" unicode="ò" horiz-adv-x="549" d="M278 495q104 0 168.5-69T511 246q0-125-71.5-191T270-11q-100 0-166 68T38 238q0 118 68 187.5T278 495zm-2-66q-73 0-111-55.5T127 241q0-80 41.5-133T274 55q63 0 105 53.5T421 243q0 44-14 84.5t-48 71-83 30.5zM145 693h97l87-143h-62z"/><glyph glyph-name="oacute" unicode="ó" horiz-adv-x="549" d="M278 495q104 0 168.5-69T511 246q0-125-71.5-191T270-11q-100 0-166 68T38 238q0 118 68 187.5T278 495zm-2-66q-73 0-111-55.5T127 241q0-80 41.5-133T274 55q63 0 105 53.5T421 243q0 44-14 84.5t-48 71-83 30.5zm33 264h97L284 550h-63z"/><glyph glyph-name="ocircumflex" unicode="ô" horiz-adv-x="549" d="M278 495q104 0 168.5-69T511 246q0-125-71.5-191T270-11q-100 0-166 68T38 238q0 118 68 187.5T278 495zm-2-66q-73 0-111-55.5T127 241q0-80 41.5-133T274 55q63 0 105 53.5T421 243q0 44-14 84.5t-48 71-83 30.5zm-33 264h61l96-143h-68l-58 95h-2l-58-95h-65z"/><glyph glyph-name="otilde" unicode="õ" horiz-adv-x="549" d="M278 495q104 0 168.5-69T511 246q0-125-71.5-191T270-11q-100 0-166 68T38 238q0 118 68 187.5T278 495zm-2-66q-73 0-111-55.5T127 241q0-80 41.5-133T274 55q63 0 105 53.5T421 243q0 44-14 84.5t-48 71-83 30.5zm-77 138h-48q-1 48 17 76t51 28q23 0 62-22 30-17 42-17 25 0 28 43h47q2-101-69-101-23 0-61 20-30 18-43 18-23 0-26-45z"/><glyph glyph-name="odieresis" unicode="ö" horiz-adv-x="549" d="M278 495q104 0 168.5-69T511 246q0-125-71.5-191T270-11q-100 0-166 68T38 238q0 118 68 187.5T278 495zm-2-66q-73 0-111-55.5T127 241q0-80 41.5-133T274 55q63 0 105 53.5T421 243q0 44-14 84.5t-48 71-83 30.5zm-94 141q-22 0-36.5 15T131 621t15 36 36 15 35-14.5 14-36.5q0-21-14-36t-35-15zm185 0q-22 0-36 15t-14 36 14.5 36 35.5 15 35-14.5 14-36.5q0-21-14-36t-35-15z"/><glyph glyph-name="divide" unicode="÷" horiz-adv-x="596" d="M298 387q-24 0-38.5 15.5T245 442q0 25 15 40.5t39 15.5q23 0 37.5-15.5T351 442q0-24-14.5-39.5T298 387zm258-150H40v60h516v-60zM298 36q-24 0-38.5 15.5T245 91q0 25 15 40.5t39 15.5q23 0 37.5-15.5T351 91q0-24-14.5-39.5T298 36z"/><glyph glyph-name="oslash" unicode="ø" horiz-adv-x="549" d="M276 495q68 0 123-35l42 60 39-27-42-62q73-70 73-185 0-124-71-190.5T275-11q-72 0-124 34l-43-61L71-8l42 60q-75 70-75 187t68 186.5T276 495zM161 119l198 281q-35 29-85 29-75 0-113-56.5T123 241q0-71 36-121zm228 242L191 83q32-28 81-28 68 0 110.5 53T425 243q0 68-34 118h-2z"/><glyph glyph-name="ugrave" unicode="ù" horiz-adv-x="551" d="M478 484V132q0-81 4-132h-78l-5 79h-2q-21-36-61.5-63T237-11q-31 0-58.5 9.5t-53 32-40.5 66T70 201v283h88V216q0-154 108-154 41 0 72 23.5t44 56.5q8 21 8 45v297h88zM140 693h97l88-143h-63z"/><glyph glyph-name="uacute" unicode="ú" horiz-adv-x="551" d="M478 484V132q0-81 4-132h-78l-5 79h-2q-21-36-61.5-63T237-11q-31 0-58.5 9.5t-53 32-40.5 66T70 201v283h88V216q0-154 108-154 41 0 72 23.5t44 56.5q8 21 8 45v297h88zM321 693h97L296 550h-63z"/><glyph glyph-name="ucircumflex" unicode="û" horiz-adv-x="551" d="M478 484V132q0-81 4-132h-78l-5 79h-2q-21-36-61.5-63T237-11q-31 0-58.5 9.5t-53 32-40.5 66T70 201v283h88V216q0-154 108-154 41 0 72 23.5t44 56.5q8 21 8 45v297h88zM244 693h61l96-143h-67l-58 95h-2l-58-95h-66z"/><glyph glyph-name="udieresis" unicode="ü" horiz-adv-x="551" d="M478 484V132q0-81 4-132h-78l-5 79h-2q-21-36-61.5-63T237-11q-31 0-58.5 9.5t-53 32-40.5 66T70 201v283h88V216q0-154 108-154 41 0 72 23.5t44 56.5q8 21 8 45v297h88zm-292 86q-22 0-36.5 15T135 621t15 36 36 15 35-14.5 14-36.5q0-21-14-36t-35-15zm185 0q-22 0-36 15t-14 36 14.5 36 35.5 15 35-14.5 14-36.5q0-21-14-36t-35-15z"/><glyph glyph-name="yacute" unicode="ý" horiz-adv-x="471" d="M9 484h96l106-286q19-54 31-99h2q1 3 12.5 41.5T275 200l96 284h93L332 139Q283 10 246.5-58T166-164q-53-47-108-57l-22 74q42 13 77 43 47 37 74 98 7 16 7 21 0 7-6 23zm276 209h97L260 550h-63z"/><glyph glyph-name="thorn" unicode="þ" horiz-adv-x="569" d="M73 710h87V407h2q55 88 165 88 87 1 145.5-67.5T531 248q0-125-65-192T311-11q-100 0-149 76h-2v-263H73v908zm87-430v-89q0-22 10-44 14-41 49-65t79-24q66 0 105.5 51T443 247q0 75-39 126.5T300 425q-43 0-78.5-26T170 329q-10-28-10-49z"/><glyph glyph-name="ydieresis" unicode="ÿ" horiz-adv-x="471" d="M9 484h96l106-286q19-54 31-99h2q1 3 12.5 41.5T275 200l96 284h93L332 139Q283 10 246.5-58T166-164q-53-47-108-57l-22 74q42 13 77 43 47 37 74 98 7 16 7 21 0 7-6 23zm146 86q-22 0-36.5 15T104 621t15 36 36 15 35-14.5 14-36.5q0-21-14-36t-35-15zm185 0q-22 0-36 15t-14 36 14.5 36 36.5 15q20 0 34-14.5t14-36.5q0-21-13.5-36T340 570z"/><glyph glyph-name="Amacron" unicode="Ā" horiz-adv-x="612" d="M424 212H185L115 0H25l229 674h105L589 0h-93zm-221 68h203l-66 194q-14 41-35 123h-2q-17-70-34-122zm-18 508h239v-55H185v55z"/><glyph glyph-name="amacron" unicode="ā" horiz-adv-x="482" d="M421 0h-80l-7 61h-3q-22-31-60.5-51.5T183-11q-70 0-109 41t-39 98q0 88 75.5 134.5T326 308v10q0 112-110 112-70 0-126-36l-20 58q66 43 159 43 53 0 90.5-17t57-46.5 28-62T413 297V116q0-72 8-116zm-93 163v84q-205 4-205-109 0-41 23.5-62.5T206 54q44 0 74.5 23.5T323 135q5 15 5 28zM129 643h225v-57H129v57z"/><glyph glyph-name="Abreve" unicode="Ă" horiz-adv-x="612" d="M424 212H185L115 0H25l229 674h105L589 0h-93zm-221 68h203l-66 194q-14 41-35 123h-2q-17-70-34-122zm-22 537h52q13-49 72-49 64 0 73 49h51q-1-47-32.5-76.5T304 711t-91 29.5-32 76.5z"/><glyph glyph-name="abreve" unicode="ă" horiz-adv-x="482" d="M421 0h-80l-7 61h-3q-22-31-60.5-51.5T183-11q-70 0-109 41t-39 98q0 88 75.5 134.5T326 308v10q0 112-110 112-70 0-126-36l-20 58q66 43 159 43 53 0 90.5-17t57-46.5 28-62T413 297V116q0-72 8-116zm-93 163v84q-205 4-205-109 0-41 23.5-62.5T206 54q44 0 74.5 23.5T323 135q5 15 5 28zM117 682h52q5-31 23.5-50t48.5-19q33 0 51 20.5t21 48.5h52q0-56-34-90t-90-34q-62 0-93 36t-31 88z"/><glyph glyph-name="Aogonek" unicode="Ą" horiz-adv-x="612" d="M359 674L589 0h-34q-55-55-55-95 0-24 14-38t37-14q25 0 45 10l14-45q-30-23-81-23-43 0-68 22.5T436-119q0 57 59 123l-71 208H185L115 0H25l229 674h105zM203 280h203l-66 194q-14 41-35 123h-2q-17-70-34-122z"/><glyph glyph-name="aogonek" unicode="ą" horiz-adv-x="482" d="M90 394l-20 58q66 43 159 43 53 0 90.5-17t57-46.5 28-62T413 297V116q0-73 8-116h-25q-39-52-39-96 0-50 48-50 24 0 46 10l14-46q-32-24-83-24-39 0-64 22.5T293-121q0 49 48 124l-7 58h-3q-22-31-60.5-51.5T183-11q-70 0-109 41t-39 98q0 88 75.5 134.5T326 308v10q0 112-110 112-70 0-126-36zm238-231v84q-205 4-205-109 0-41 23.5-62.5T206 54q44 0 74.5 23.5T323 135q5 15 5 28z"/><glyph glyph-name="Cacute" unicode="Ć" horiz-adv-x="580" d="M529 91l18-69q-64-32-178-32-147 0-240 90T36 331q0 158 97.5 256T388 685q102 0 160-30l-21-71q-58 28-136 28-120 0-191.5-73.5T128 334q0-125 68.5-198T387 63q84 0 142 28zM400 829h106L379 712h-71z"/><glyph glyph-name="cacute" unicode="ć" horiz-adv-x="448" d="M403 84l15-66q-54-28-139-28-109 0-175 68T38 237q0 113 71.5 185T298 494q72 0 122-25l-20-68q-40 23-102 23-80 0-125.5-52T127 241q0-83 47.5-132T295 60q53 0 108 24zM302 693h97L277 550h-63z"/><glyph glyph-name="Ccircumflex" unicode="Ĉ" horiz-adv-x="580" d="M529 91l18-69q-64-32-178-32-147 0-240 90T36 331q0 158 97.5 256T388 685q102 0 160-30l-21-71q-58 28-136 28-120 0-191.5-73.5T128 334q0-125 68.5-198T387 63q84 0 142 28zM327 828h67l105-114h-74l-64 69h-2l-63-69h-72z"/><glyph glyph-name="ccircumflex" unicode="ĉ" horiz-adv-x="448" d="M403 84l15-66q-54-28-139-28-109 0-175 68T38 237q0 113 71.5 185T298 494q72 0 122-25l-20-68q-40 23-102 23-80 0-125.5-52T127 241q0-83 47.5-132T295 60q53 0 108 24zM229 693h61l96-143h-68l-58 95h-2l-58-95h-65z"/><glyph glyph-name="Cdotaccent" unicode="Ċ" horiz-adv-x="580" d="M529 91l18-69q-64-32-178-32-147 0-240 90T36 331q0 158 97.5 256T388 685q102 0 160-30l-21-71q-58 28-136 28-120 0-191.5-73.5T128 334q0-125 68.5-198T387 63q84 0 142 28zM361 720q-21 0-35.5 15T311 770t15 35 36 15q20 0 34-15t14-35-14-35-35-15z"/><glyph glyph-name="cdotaccent" unicode="ċ" horiz-adv-x="448" d="M403 84l15-66q-54-28-139-28-109 0-175 68T38 237q0 113 71.5 185T298 494q72 0 122-25l-20-68q-40 23-102 23-80 0-125.5-52T127 241q0-83 47.5-132T295 60q53 0 108 24zM265 570q-21 0-36 15t-15 36q0 22 15 37t37 15q20 0 34-15t14-37q0-21-14-36t-35-15z"/><glyph glyph-name="Ccaron" unicode="Č" horiz-adv-x="580" d="M529 91l18-69q-64-32-178-32-147 0-240 90T36 331q0 158 97.5 256T388 685q102 0 160-30l-21-71q-58 28-136 28-120 0-191.5-73.5T128 334q0-125 68.5-198T387 63q84 0 142 28zM399 713h-67L227 827h74l64-70h2l63 70h72z"/><glyph glyph-name="ccaron" unicode="č" horiz-adv-x="448" d="M403 84l15-66q-54-28-139-28-109 0-175 68T38 237q0 113 71.5 185T298 494q72 0 122-25l-20-68q-40 23-102 23-80 0-125.5-52T127 241q0-83 47.5-132T295 60q53 0 108 24zM294 550h-63l-96 143h67l59-95h2l59 95h66z"/><glyph glyph-name="Dcaron" unicode="Ď" horiz-adv-x="666" d="M76 2v663q93 14 185 14 183 0 273-84 95-87 95-242 0-167-97-262Q435-6 234-6 146-6 76 2zm87 599V69q28-5 88-5 139 0 213 74.5T538 350q1 122-68.5 191T265 610q-61 0-102-9zm179 111h-67L170 826h74l64-69h2l63 69h72z"/><glyph glyph-name="dcaron" unicode="ď" horiz-adv-x="574" d="M403 710h88V125q0-81 4-125h-79l-4 84h-2q-21-42-64.5-68.5T245-11q-89 0-148 68.5T38 235q-1 117 62 188.5T255 495q52 0 90-21t56-53h2v289zm0-507v84q0 22-4 37-10 44-44.5 73T272 426q-67 0-106-52.5T127 239q0-77 37.5-128T270 60q45 0 81 28.5t48 76.5q4 16 4 38zm169 319l-37 29q36 43 36 89 0 38-31 65l63 14q14-9 25-29t11-44q0-70-67-124z"/><glyph glyph-name="Dcroat" unicode="Đ" horiz-adv-x="671" d="M-2 307v70h83v290q88 15 185 15 183 0 273-84 95-87 95-245 0-166-97-263T239-7Q143-7 81 0v307H-2zm350 70v-70H168V67q29-4 87-4 141 0 214.5 74.5T543 352q1 123-68.5 191.5T270 612q-61 0-102-9V377h180z"/><glyph glyph-name="dcroat" unicode="đ" horiz-adv-x="564" d="M568 552h-77V125q0-81 4-125h-79l-4 84h-2q-21-42-64.5-68.5T245-11q-89 0-148 68.5T38 235q-1 117 62 188.5T255 495q52 0 90-21t56-53h2v131H206v55h197v103h88V607h77v-55zM403 203v84q0 22-4 37-10 44-44.5 73T272 426q-67 0-106-52.5T127 239q0-77 37.5-128T270 60q45 0 81 28.5t48 76.5q4 16 4 38z"/><glyph glyph-name="Emacron" unicode="Ē" horiz-adv-x="492" d="M425 388v-72H163V73h292V0H76v674h364v-73H163V388h262zM139 788h240v-55H139v55z"/><glyph glyph-name="emacron" unicode="ē" horiz-adv-x="501" d="M462 226H122q1-84 48-126t118-42q75 0 134 25l15-63q-66-30-161-30-111 0-174.5 66.5T38 234q0 112 62 186.5T265 495q56 0 97.5-22.5t62.5-59 30.5-73T465 267q0-14-3-41zm-339 63h257q1 54-27.5 98.5T258 432q-61 0-95-44t-40-99zm18 354h225v-57H141v57z"/><glyph glyph-name="Ebreve" unicode="Ĕ" horiz-adv-x="492" d="M425 388v-72H163V73h292V0H76v674h364v-73H163V388h262zM130 825h52q13-49 72-49 64 0 73 49h51q-1-47-32.5-76.5T253 719t-91 29.5-32 76.5z"/><glyph glyph-name="ebreve" unicode="ĕ" horiz-adv-x="501" d="M462 226H122q1-84 48-126t118-42q75 0 134 25l15-63q-66-30-161-30-111 0-174.5 66.5T38 234q0 112 62 186.5T265 495q56 0 97.5-22.5t62.5-59 30.5-73T465 267q0-14-3-41zm-339 63h257q1 54-27.5 98.5T258 432q-61 0-95-44t-40-99zm6 393h52q5-31 23.5-50t48.5-19q33 0 51 20.5t21 48.5h52q0-56-34-90t-90-34q-62 0-93 36t-31 88z"/><glyph glyph-name="Edotaccent" unicode="Ė" horiz-adv-x="492" d="M425 388v-72H163V73h292V0H76v674h364v-73H163V388h262zM258 721q-20 0-34.5 15.5T209 772t14.5 35 35.5 15q20 0 34-15t14-35-14.5-35.5T258 721z"/><glyph glyph-name="edotaccent" unicode="ė" horiz-adv-x="501" d="M462 226H122q1-84 48-126t118-42q75 0 134 25l15-63q-66-30-161-30-111 0-174.5 66.5T38 234q0 112 62 186.5T265 495q56 0 97.5-22.5t62.5-59 30.5-73T465 267q0-14-3-41zm-339 63h257q1 54-27.5 98.5T258 432q-61 0-95-44t-40-99zm132 281q-22 0-36.5 15T204 621q0 22 14.5 37t36.5 15q21 0 35-15t14-37q0-21-14-36t-35-15z"/><glyph glyph-name="Eogonek" unicode="Ę" horiz-adv-x="492" d="M447-138l13-47q-34-21-80-21-43 0-67.5 21T288-125q0 37 24 70.5T368 0H76v674h364v-73H163V388h262v-72H163V73h292V0h-15q-35-22-59-51t-24-55q0-19 12.5-29.5T403-146q24 0 44 8z"/><glyph glyph-name="eogonek" unicode="ę" horiz-adv-x="501" d="M385-136l14-45q-33-24-81-24-41 0-65.5 21T228-126q0 33 22 64t51 52v1q-9-1-27-1-109 0-172.5 67T38 234q0 112 62 186.5T265 495q56 0 97.5-22.5t62.5-59 30.5-73T465 267q0-14-3-41H122q1-84 48-126t118-42q75 0 134 25l15-63q-12-6-46-17-33-14-63.5-46T297-104q0-20 12-31t29-11q24 0 47 10zM123 289h257q1 54-27.5 98.5T258 432q-61 0-95-44t-40-99z"/><glyph glyph-name="Ecaron" unicode="Ě" horiz-adv-x="492" d="M425 388v-72H163V73h292V0H76v674h364v-73H163V388h262zM291 710h-67L119 824h74l64-69h2l63 69h71z"/><glyph glyph-name="ecaron" unicode="ě" horiz-adv-x="501" d="M462 226H122q1-84 48-126t118-42q75 0 134 25l15-63q-66-30-161-30-111 0-174.5 66.5T38 234q0 112 62 186.5T265 495q56 0 97.5-22.5t62.5-59 30.5-73T465 267q0-14-3-41zm-339 63h257q1 54-27.5 98.5T258 432q-61 0-95-44t-40-99zm162 261h-63l-96 143h67l59-95h2l60 95h65z"/><glyph glyph-name="Gcircumflex" unicode="Ĝ" horiz-adv-x="646" d="M589 354V30Q486-7 382-7 223-7 130 82q-94 91-94 251 1 154 99.5 251T401 681q104 0 168-31l-21-71q-65 29-149 29-124 0-197.5-72.5T128 337q0-127 70.5-199.5T388 65q80 0 116 18v201H367v70h222zM329 827h67l104-114h-73l-64 69h-2l-64-69h-71z"/><glyph glyph-name="gcircumflex" unicode="ĝ" horiz-adv-x="559" d="M413 484h77q-4-70-4-133V70q0-159-69-221-62-58-176-58-101 0-161 40l22 67q61-38 142-38 72 0 114 41t42 128v54h-2Q349 2 244 2 155 2 96.5 69.5T38 238q0 117 65 187t153 70q107 0 151-84h2zm-14-278v87q0 25-5 40-13 41-45 67t-78 26q-64 0-104-50t-40-133q0-75 37.5-124.5T270 69q41 0 74.5 24.5T392 159q7 21 7 47zM248 697h61l96-144h-68l-58 95h-2l-58-95h-65z"/><glyph glyph-name="Gbreve" unicode="Ğ" horiz-adv-x="646" d="M589 354V30Q486-7 382-7 223-7 130 82q-94 91-94 251 1 154 99.5 251T401 681q104 0 168-31l-21-71q-65 29-149 29-124 0-197.5-72.5T128 337q0-127 70.5-199.5T388 65q80 0 116 18v201H367v70h222zM238 827h53q11-49 71-49 64 0 73 49h51q-1-47-32.5-76.5T361 721t-91 29-32 77z"/><glyph glyph-name="gbreve" unicode="ğ" horiz-adv-x="559" d="M413 484h77q-4-70-4-133V70q0-159-69-221-62-58-176-58-101 0-161 40l22 67q61-38 142-38 72 0 114 41t42 128v54h-2Q349 2 244 2 155 2 96.5 69.5T38 238q0 117 65 187t153 70q107 0 151-84h2zm-14-278v87q0 25-5 40-13 41-45 67t-78 26q-64 0-104-50t-40-133q0-75 37.5-124.5T270 69q41 0 74.5 24.5T392 159q7 21 7 47zM148 682h52q5-31 23.5-50t48.5-19q33 0 51 20.5t21 48.5h52q0-56-34-90t-90-34q-62 0-93 36t-31 88z"/><glyph glyph-name="Gdotaccent" unicode="Ġ" horiz-adv-x="646" d="M589 354V30Q486-7 382-7 223-7 130 82q-94 91-94 251 1 154 99.5 251T401 681q104 0 168-31l-21-71q-65 29-149 29-124 0-197.5-72.5T128 337q0-127 70.5-199.5T388 65q80 0 116 18v201H367v70h222zM362 720q-21 0-35.5 15T312 770t14.5 35 35.5 15q20 0 34-15t14-35-14-35-34-15z"/><glyph glyph-name="gdotaccent" unicode="ġ" horiz-adv-x="559" d="M413 484h77q-4-70-4-133V70q0-159-69-221-62-58-176-58-101 0-161 40l22 67q61-38 142-38 72 0 114 41t42 128v54h-2Q349 2 244 2 155 2 96.5 69.5T38 238q0 117 65 187t153 70q107 0 151-84h2zm-14-278v87q0 25-5 40-13 41-45 67t-78 26q-64 0-104-50t-40-133q0-75 37.5-124.5T270 69q41 0 74.5 24.5T392 159q7 21 7 47zM279 573q-22 0-36.5 15T228 624q0 22 14.5 37t36.5 15q21 0 35-15t14-37q0-21-14-36t-35-15z"/><glyph glyph-name="uni0122" unicode="Ģ" horiz-adv-x="646" d="M589 354V30Q486-7 382-7 223-7 130 82q-94 91-94 251 1 154 99.5 251T401 681q104 0 168-31l-21-71q-65 29-149 29-124 0-197.5-72.5T128 337q0-127 70.5-199.5T388 65q80 0 116 18v201H367v70h222zM298-222l-17 41q75 14 75 66 0 32-34 60l65 14q39-25 39-73 0-51-37.5-78T298-222z"/><glyph glyph-name="uni0123" unicode="ģ" horiz-adv-x="559" d="M338 709l17-37q-78-11-78-65 0-30 35-59l-63-13q-40 26-40 71 0 49 38.5 74.5T338 709zm75-225h77q-4-70-4-133V70q0-159-69-221-62-58-176-58-101 0-161 40l22 67q61-38 142-38 72 0 114 41t42 128v54h-2Q349 2 244 2 155 2 96.5 69.5T38 238q0 117 65 187t153 70q107 0 151-84h2zm-14-278v87q0 25-5 40-13 41-45 67t-78 26q-64 0-104-50t-40-133q0-75 37.5-124.5T270 69q41 0 74.5 24.5T392 159q7 21 7 47z"/><glyph glyph-name="Hcircumflex" unicode="Ĥ" horiz-adv-x="652" d="M76 674h87V392h326v282h88V0h-88v316H163V0H76v674zm216 150h67l105-114h-74l-63 69h-2l-64-69h-71z"/><glyph glyph-name="hcircumflex" unicode="ĥ" horiz-adv-x="555" d="M73 0v710h88V408h2q22 39 63 62 43 25 90 25 28 0 54.5-9.5t54-31 44-64.5T485 288V0h-88v278q0 64-27 104t-85 40q-41 0-73-25t-45-63q-6-14-6-42V0H73zm13 843h67l105-114h-74l-63 69h-2l-64-69h-71z"/><glyph glyph-name="Hbar" unicode="Ħ" horiz-adv-x="657" d="M636 479h-57V0h-88v302H165V0H78v479H21v58h57v137h87V537h326v137h88V537h57v-58zM491 377v102H165V377h326z"/><glyph glyph-name="hbar" unicode="ħ" horiz-adv-x="555" d="M485 0h-88v278q0 64-27 104t-85 40q-41 0-73-25t-45-63q-6-14-6-42V0H73v552H-4v55h77v103h88V607h193v-55H161V408h2q22 39 63 62 43 25 90 25 28 0 54.5-9.5t54-31 44-64.5T485 288V0z"/><glyph glyph-name="Itilde" unicode="Ĩ" horiz-adv-x="239" d="M76 674h87V0H76v674zm-33 41H-4q-2 46 16.5 74T64 817q21 0 59-20 32-18 48-18 12 0 18.5 8t8.5 31h46q2-97-67-97-23 0-61 19-36 19-47 19-23 0-26-44z"/><glyph glyph-name="itilde" unicode="ĩ" horiz-adv-x="234" d="M161 0H73v484h88V0zM42 567H-6q-1 48 17 76t51 28q23 0 62-22 30-17 42-17 25 0 28 43h47q2-101-69-101-23 0-61 20-30 18-43 18-23 0-26-45z"/><glyph glyph-name="Imacron" unicode="Ī" horiz-adv-x="239" d="M76 674h87V0H76v674zM1 788h239v-55H1v55z"/><glyph glyph-name="imacron" unicode="ī" horiz-adv-x="234" d="M161 0H73v484h88V0zM5 643h225v-57H5v57z"/><glyph glyph-name="Ibreve" unicode="Ĭ" horiz-adv-x="239" d="M76 674h87V0H76v674zM-4 823h52q11-49 72-49 63 0 72 49h51q-1-47-32-76.5T119 717t-91.5 29T-4 823z"/><glyph glyph-name="ibreve" unicode="ĭ" horiz-adv-x="234" d="M161 0H73v484h88V0zM-4 682h52q5-31 23.5-50t48.5-19q33 0 51 20.5t21 48.5h52q0-56-34-90t-90-34q-62 0-93 36t-31 88z"/><glyph glyph-name="Iogonek" unicode="Į" horiz-adv-x="239" d="M163 674V0h-30Q92-57 92-98q0-25 14-38.5t37-13.5q25 0 45 9l14-45q-30-23-81-23-42 0-67.5 22.5T28-123Q28-72 76 0v674h87z"/><glyph glyph-name="iogonek" unicode="į" horiz-adv-x="234" d="M116 570q-24 0-39.5 16.5T61 626q0 24 16 40t40 16q25 0 40.5-16t15.5-40q0-23-16-39.5T116 570zm45-86V0h-30Q89-59 89-98q0-25 14-38.5t37-13.5q24 0 46 9l13-45q-30-23-81-23-42 0-67 22.5T26-123Q26-70 73 0v484h88z"/><glyph glyph-name="Idotaccent" unicode="İ" horiz-adv-x="239" d="M76 674h87V0H76v674zm45 47q-21 0-35.5 15.5T71 772t14.5 35 35.5 15q20 0 34-15t14-35-14-35.5-34-15.5z"/><glyph glyph-name="dotlessi" unicode="ı" horiz-adv-x="234" d="M161 0H73v484h88V0z"/><glyph glyph-name="IJ" unicode="Ĳ" horiz-adv-x="609" d="M76 674h87V0H76v674zm377-444v444h87V223q0-234-203-234-55 0-94 16l13 71q33-13 74-13 62 0 92.5 36.5T453 230z"/><glyph glyph-name="ij" unicode="ĳ" horiz-adv-x="477" d="M161 0H73v484h88V0zm-44 675q24 0 39-15.5t15-39.5q1-23-14.5-38.5T115 566q-23 0-38 15.5T62 620t15.5 39 39.5 16zm81-884l-10 69q67 5 96 37 19 22 26.5 60T318 79v405h88V45q0-140-58-199-27-27-69-41t-81-14zm165 884q24 0 38.5-15.5T416 620q0-23-15-38.5T361 566q-24 0-39 16t-15 38q0 24 15.5 39.5T363 675z"/><glyph glyph-name="Jcircumflex" unicode="Ĵ" horiz-adv-x="370" d="M214 230v444h87V223Q301-11 97-11 43-11 4 5l13 71q33-13 73-13 63 0 93.5 36.5T214 230zm5 594h67l105-114h-73l-64 69h-2l-64-69h-71z"/><glyph glyph-name="jcircumflex" unicode="ĵ" horiz-adv-x="243" d="M-36-209l-9 69q67 5 96 37 19 22 26 59.5T84 79v405h88V45q0-140-58-199-27-27-69-41t-81-14zM91 686h61l95-143h-67l-58 95h-2l-58-95H-3z"/><glyph glyph-name="uni0136" unicode="Ķ" horiz-adv-x="542" d="M76 0v674h87V349h3q23 33 53 72l206 253h108L289 388 552 0H449L227 331l-64-74V0H76zm139-220l-17 41q75 12 75 65 0 35-34 61l65 14q40-26 40-74 0-51-38-77.5T215-220z"/><glyph glyph-name="uni0137" unicode="ķ" horiz-adv-x="469" d="M160 710V262h2q14 20 43 55l142 167h106L266 285 479 0H372L205 232l-45-50V0H73v710h87zm17-932l-17 41q75 12 75 66 0 34-34 60l66 14q16-11 27.5-30.5T306-114q0-51-38-78t-91-30z"/><glyph glyph-name="kgreenlandic" unicode="ĸ" horiz-adv-x="469" d="M160 484V262h2q14 20 43 55l142 167h106L266 285 479 0H372L205 232l-45-50V0H73v484h87z"/><glyph glyph-name="Lacute" unicode="Ĺ" horiz-adv-x="472" d="M76 0v674h87V73h288V0H76zm103 827h106L158 710H86z"/><glyph glyph-name="lacute" unicode="ĺ" horiz-adv-x="236" d="M73 0v710h88V0H73zm81 856h106L133 739H61z"/><glyph glyph-name="uni013B" unicode="Ļ" horiz-adv-x="472" d="M76 0v674h87V73h288V0H76zm113-222l-16 41q75 14 75 66 0 33-35 60l66 14q39-25 39-73 0-51-38-78t-91-30z"/><glyph glyph-name="uni013C" unicode="ļ" horiz-adv-x="236" d="M73 0v710h88V0H73zM52-222l-17 41q75 12 75 66 0 34-34 60l65 14q40-26 40-73 0-51-38-78t-91-30z"/><glyph glyph-name="Lcaron" unicode="Ľ" horiz-adv-x="472" d="M76 0v674h87V73h288V0H76zm184 504l-17 41q32 5 53.5 21.5T318 610q0 31-34 61l65 14q40-26 40-74 0-50-38-77t-91-30z"/><glyph glyph-name="lcaron" unicode="ľ" horiz-adv-x="244" d="M240 522l-39 29q36 45 36 89 0 38-31 65l63 14q14-9 24.5-29.5T304 644q0-11-1.5-21t-3.5-18.5-6-17-7-14.5-8.5-13-8.5-10.5-8.5-9-8-7.5-7.5-7zM73 0v710h88V0H73z"/><glyph glyph-name="Ldot" unicode="Ŀ" horiz-adv-x="472" d="M76 0v674h87V73h288V0H76zm271 320q-21 0-35.5 15T297 370t15 35 36 15q20 0 34-15t14-35-14-35-35-15z"/><glyph glyph-name="ldot" unicode="ŀ" horiz-adv-x="272" d="M253 335q-20 0-34 15t-14 35q0 21 14 35.5t34 14.5q19 0 32.5-14.5T299 385q0-20-13-35t-33-15zM73 0v710h88V0H73z"/><glyph glyph-name="Lslash" unicode="Ł" horiz-adv-x="476" d="M455 0H80v270l-84-62v68l84 61v337h87V397l134 97v-69l-134-96V73h288V0z"/><glyph glyph-name="lslash" unicode="ł" horiz-adv-x="242" d="M165 0H77v288L9 230v69l68 59v352h88V425l71 61v-70l-71-61V0z"/><glyph glyph-name="Nacute" unicode="Ń" horiz-adv-x="658" d="M158 0H76v674h95l216-341q73-115 121-219l2 1q-10 112-10 277v282h82V0h-88L280 342q-83 132-126 225l-3-1q7-119 7-278V0zm212 827h107L349 710h-71z"/><glyph glyph-name="nacute" unicode="ń" horiz-adv-x="555" d="M73 0v353q0 78-4 131h78l5-80h2q20 38 62 64.5t98 26.5q28 0 55.5-9.5t54.5-31 44-64T485 289V0h-88v279q0 64-27 103.5T285 422q-42 0-74-26t-44-64q-6-16-6-41V0H73zm245 693h97L293 550h-63z"/><glyph glyph-name="uni0145" unicode="Ņ" horiz-adv-x="658" d="M158 0H76v674h95l216-341q73-115 121-219l2 1q-10 112-10 277v282h82V0h-88L280 342q-83 132-126 225l-3-1q7-119 7-278V0zm112-221l-17 41q32 5 53.5 21.5T328-115q0 33-34 61l65 14q39-25 39-74 0-50-38-77t-90-30z"/><glyph glyph-name="uni0146" unicode="ņ" horiz-adv-x="555" d="M73 0v353q0 78-4 131h78l5-80h2q20 38 62 64.5t98 26.5q28 0 55.5-9.5t54.5-31 44-64T485 289V0h-88v279q0 64-27 103.5T285 422q-42 0-74-26t-44-64q-6-16-6-41V0H73zm148-220l-17 41q75 12 75 65 0 33-34 61l65 14q40-26 40-74 0-51-38-77.5T221-220z"/><glyph glyph-name="Ncaron" unicode="Ň" horiz-adv-x="658" d="M158 0H76v674h95l216-341q73-115 121-219l2 1q-10 112-10 277v282h82V0h-88L280 342q-83 132-126 225l-3-1q7-119 7-278V0zm206 705h-67L193 819h73l65-70h2l63 70h71z"/><glyph glyph-name="ncaron" unicode="ň" horiz-adv-x="555" d="M73 0v353q0 78-4 131h78l5-80h2q20 38 62 64.5t98 26.5q28 0 55.5-9.5t54.5-31 44-64T485 289V0h-88v279q0 64-27 103.5T285 422q-42 0-74-26t-44-64q-6-16-6-41V0H73zm237 550h-63l-96 143h67l59-95h2l59 95h66z"/><glyph glyph-name="napostrophe" unicode="ŉ" horiz-adv-x="555" d="M56 536l-38 29q37 41 37 82 0 33-31 59l64 17q35-21 35-72 0-65-67-115zM73 0v353q0 78-4 131h78l5-80h2q20 38 62 64.5t98 26.5q28 0 55.5-9.5t54.5-31 44-64T485 289V0h-88v279q0 64-27 103.5T285 422q-42 0-74-26t-44-64q-6-16-6-41V0H73z"/><glyph glyph-name="Eng" unicode="Ŋ" horiz-adv-x="658" d="M158 0H76v674h95l216-341q73-115 121-219l2 1q-10 112-10 277v282h82V38q0-208-193-237l-18 68q60 12 91 42t36 83L280 342q-83 132-126 225l-3-1q7-119 7-278V0z"/><glyph glyph-name="eng" unicode="ŋ" horiz-adv-x="555" d="M73 0v353q0 78-4 131h78l5-80h2q20 38 62 64.5t98 26.5q28 0 55.5-9.5t54.5-31 44-64T485 289V59q0-109-52-167.5T295-179l-17 70Q397-85 397 51v228q0 64-27 103.5T285 422q-42 0-74-26t-44-64q-6-16-6-41V0H73z"/><glyph glyph-name="Omacron" unicode="Ō" horiz-adv-x="689" d="M349 685q137 0 220-95t83-246q0-168-89-261.5T339-11q-134 0-218.5 95T36 331q0 159 88 256.5T349 685zm-4-71q-103 0-159.5-81.5T129 333q0-113 58-193t157-80q100 0 158 80t58 200q0 110-56.5 192T345 614zM225 794h240v-55H225v55z"/><glyph glyph-name="omacron" unicode="ō" horiz-adv-x="549" d="M278 495q104 0 168.5-69T511 246q0-125-71.5-191T270-11q-100 0-166 68T38 238q0 118 68 187.5T278 495zm-2-66q-73 0-111-55.5T127 241q0-80 41.5-133T274 55q63 0 105 53.5T421 243q0 44-14 84.5t-48 71-83 30.5zM162 643h225v-57H162v57z"/><glyph glyph-name="Obreve" unicode="Ŏ" horiz-adv-x="689" d="M349 685q137 0 220-95t83-246q0-168-89-261.5T339-11q-134 0-218.5 95T36 331q0 159 88 256.5T349 685zm-4-71q-103 0-159.5-81.5T129 333q0-113 58-193t157-80q100 0 158 80t58 200q0 110-56.5 192T345 614zM220 830h52q11-49 72-49 63 0 72 49h51q-1-47-32-76.5T343 724t-91.5 29.5T220 830z"/><glyph glyph-name="obreve" unicode="ŏ" horiz-adv-x="549" d="M278 495q104 0 168.5-69T511 246q0-125-71.5-191T270-11q-100 0-166 68T38 238q0 118 68 187.5T278 495zm-2-66q-73 0-111-55.5T127 241q0-80 41.5-133T274 55q63 0 105 53.5T421 243q0 44-14 84.5t-48 71-83 30.5zM150 682h52q5-31 23.5-50t48.5-19q33 0 51 20.5t21 48.5h52q0-56-34-90t-90-34q-62 0-93 36t-31 88z"/><glyph glyph-name="Ohungarumlaut" unicode="Ő" horiz-adv-x="689" d="M349 685q137 0 220-95t83-246q0-168-89-261.5T339-11q-134 0-218.5 95T36 331q0 159 88 256.5T349 685zm-4-71q-103 0-159.5-81.5T129 333q0-113 58-193t157-80q100 0 158 80t58 200q0 110-56.5 192T345 614zm-27 216h96L302 718h-64zm148 0h95L450 718h-64z"/><glyph glyph-name="ohungarumlaut" unicode="ő" horiz-adv-x="549" d="M278 495q104 0 168.5-69T511 246q0-125-71.5-191T270-11q-100 0-166 68T38 238q0 118 68 187.5T278 495zm-2-66q-73 0-111-55.5T127 241q0-80 41.5-133T274 55q63 0 105 53.5T421 243q0 44-14 84.5t-48 71-83 30.5zm-38 264h86L214 556h-55zm144 0h87L358 556h-55z"/><glyph glyph-name="OE" unicode="Œ" horiz-adv-x="894" d="M857 73V0H512q-18 0-66-6-62-5-83-5-152 0-239.5 96.5T36 332q0 164 92 258.5T368 685q26 0 88-5 50-6 64-6h322v-73H565V388h261v-73H565V73h292zm-380 0v526q-43 15-106 15-112 0-177.5-76.5T129 336q-1-125 66-200.5T379 60q62 0 98 13z"/><glyph glyph-name="oe" unicode="œ" horiz-adv-x="863" d="M824 227H495q1-80 45.5-124.5T656 58q66 0 130 27l16-63q-58-33-157-33-136 0-191 114h-3q-26-56-77-85T264-11q-98 0-162 68.5T38 239q0 115 66 185.5T270 495q62 0 111.5-30.5T453 379h2q27 57 73 86.5T631 495q44 0 79.5-15.5T767 440t35-55 19.5-60 5.5-57-3-41zM271 429q-50 0-84-30.5T140 327t-13-86q0-79 40.5-132.5T271 55q64 0 103 52t39 135q0 77-36 132t-106 55zm224-139h247q0 23-5 45.5t-17 45-37 36.5-59 14q-59 0-92-43.5T495 290z"/><glyph glyph-name="Racute" unicode="Ŕ" horiz-adv-x="538" d="M76 0v665q68 14 167 14 134 0 195-55 53-47 53-128 0-64-35.5-108.5T364 324v-3q74-26 99-136Q500 29 515 0h-90q-14 24-45 161-15 70-45.5 99.5T245 292h-82V0H76zm87 604V358h89q69 0 110.5 35t41.5 93q0 63-41.5 94T249 612q-58 0-86-8zm139 225h106L280 713h-71z"/><glyph glyph-name="racute" unicode="ŕ" horiz-adv-x="327" d="M73 0v333q0 91-4 151h77l3-95h4q16 49 53 77.5t81 28.5q13 0 25-3v-83q-14 3-30 3-46 0-77.5-31T164 299q-4-24-4-41V0H73zm143 693h97L191 550h-62z"/><glyph glyph-name="uni0156" unicode="Ŗ" horiz-adv-x="538" d="M76 0v665q68 14 167 14 134 0 195-55 53-47 53-128 0-64-35.5-108.5T364 324v-3q74-26 99-136Q500 29 515 0h-90q-14 24-45 161-15 70-45.5 99.5T245 292h-82V0H76zm87 604V358h89q69 0 110.5 35t41.5 93q0 63-41.5 94T249 612q-58 0-86-8zm49-819l-17 41q75 14 75 66 0 32-34 60l65 14q39-25 39-73 0-51-37.5-78T212-215z"/><glyph glyph-name="uni0157" unicode="ŗ" horiz-adv-x="327" d="M73 0v333q0 91-4 151h77l3-95h4q16 49 53 77.5t81 28.5q13 0 25-3v-83q-14 3-30 3-46 0-77.5-31T164 299q-4-24-4-41V0H73zM60-222l-17 41q75 12 75 66 0 34-34 60l66 14q16-11 27.5-30.5T189-114q0-51-38-78t-91-30z"/><glyph glyph-name="Rcaron" unicode="Ř" horiz-adv-x="538" d="M76 0v665q68 14 167 14 134 0 195-55 53-47 53-128 0-64-35.5-108.5T364 324v-3q74-26 99-136Q500 29 515 0h-90q-14 24-45 161-15 70-45.5 99.5T245 292h-82V0H76zm87 604V358h89q69 0 110.5 35t41.5 93q0 63-41.5 94T249 612q-58 0-86-8zm137 109h-67L129 827h73l64-70h2l63 70h72z"/><glyph glyph-name="rcaron" unicode="ř" horiz-adv-x="327" d="M73 0v333q0 91-4 151h77l3-95h4q16 49 53 77.5t81 28.5q13 0 25-3v-83q-14 3-30 3-46 0-77.5-31T164 299q-4-24-4-41V0H73zm141 550h-64L54 693h68l59-95h2l59 95h66z"/><glyph glyph-name="Sacute" unicode="Ś" horiz-adv-x="493" d="M42 33l22 73q72-44 156-44 66 0 103.5 31.5T361 177q0 47-29 77.5T234 311Q56 374 56 502q0 80 60.5 131.5T274 685q91 0 149-33l-24-71q-59 32-128 32-63 0-95-30.5T144 512q0-46 30.5-74T278 382q89-34 130.5-80T450 184q0-83-61-138.5T214-10q-48 0-96 12.5T42 33zm256 796h107L277 713h-71z"/><glyph glyph-name="sacute" unicode="ś" horiz-adv-x="396" d="M39 23l22 67q54-35 116-35 46 0 70 20t24 52q0 31-20.5 51T181 216Q53 262 53 353q0 60 45.5 101T220 495q68 0 119-30l-22-64q-44 28-99 28-38 0-59.5-19T137 363q0-29 20.5-46t71.5-36q65-25 96-59t31-87q0-65-48-105T175-10Q95-10 39 23zm205 670h97L219 550h-63z"/><glyph glyph-name="Scircumflex" unicode="Ŝ" horiz-adv-x="493" d="M42 33l22 73q72-44 156-44 66 0 103.5 31.5T361 177q0 47-29 77.5T234 311Q56 374 56 502q0 80 60.5 131.5T274 685q91 0 149-33l-24-71q-59 32-128 32-63 0-95-30.5T144 512q0-46 30.5-74T278 382q89-34 130.5-80T450 184q0-83-61-138.5T214-10q-48 0-96 12.5T42 33zm172 794h67l104-114h-73l-64 69h-2l-63-69h-72z"/><glyph glyph-name="scircumflex" unicode="ŝ" horiz-adv-x="396" d="M39 23l22 67q54-35 116-35 46 0 70 20t24 52q0 31-20.5 51T181 216Q53 262 53 353q0 60 45.5 101T220 495q68 0 119-30l-22-64q-44 28-99 28-38 0-59.5-19T137 363q0-29 20.5-46t71.5-36q65-25 96-59t31-87q0-65-48-105T175-10Q95-10 39 23zm130 670h61l96-143h-68l-58 95h-2l-58-95H75z"/><glyph glyph-name="uni015E" unicode="Ş" horiz-adv-x="493" d="M423 652l-24-71q-59 32-128 32-63 0-95-30.5T144 512q0-46 30.5-74T278 382q89-34 130.5-80T450 184q0-71-45-123T275-5l-27-45q30-6 50-26t20-49q0-41-29.5-61T216-206q-41 0-72 17l15 45q24-13 55-13 42 0 42 30 0 35-78 43l40 74h-4q-48 0-96 12.5T42 33l22 73q72-44 156-44 66 0 103.5 31.5T361 177q0 47-29 77.5T234 311Q56 374 56 502q0 80 60.5 131.5T274 685q91 0 149-33z"/><glyph glyph-name="uni015F" unicode="ş" horiz-adv-x="396" d="M339 465l-22-64q-44 28-99 28-38 0-59.5-19T137 363q0-29 20.5-46t71.5-36q65-25 96-59t31-87q0-54-34-91.5T227-5l-28-45q29-4 49.5-23t20.5-46q0-42-29-61.5T165-200q-39 0-68 17l15 43q24-15 54-15 43 0 43 32-1 35-78 42l40 71Q91-8 39 23l22 67q54-35 116-35 46 0 70 20t24 52q0 31-20.5 51T181 216Q53 262 53 353q0 60 45.5 101T220 495q68 0 119-30z"/><glyph glyph-name="Scaron" unicode="Š" horiz-adv-x="493" d="M42 33l22 73q72-44 156-44 66 0 103.5 31.5T361 177q0 47-29 77.5T234 311Q56 374 56 502q0 80 60.5 131.5T274 685q91 0 149-33l-24-71q-59 32-128 32-63 0-95-30.5T144 512q0-46 30.5-74T278 382q89-34 130.5-80T450 184q0-83-61-138.5T214-10q-48 0-96 12.5T42 33zm250 680h-67L120 827h74l64-70h2l63 70h71z"/><glyph glyph-name="scaron" unicode="š" horiz-adv-x="396" d="M39 23l22 67q54-35 116-35 46 0 70 20t24 52q0 31-20.5 51T181 216Q53 262 53 353q0 60 45.5 101T220 495q68 0 119-30l-22-64q-44 28-99 28-38 0-59.5-19T137 363q0-29 20.5-46t71.5-36q65-25 96-59t31-87q0-65-48-105T175-10Q95-10 39 23zm196 527h-64L75 693h68l59-95h2l59 95h66z"/><glyph glyph-name="uni0162" unicode="Ţ" horiz-adv-x="497" d="M292 0h-16l-30-50q30-6 50-26t20-49q0-41-30-61t-73-20q-40 0-71 17l15 45q24-13 55-13 42 0 42 30 0 35-78 43l45 84h-17v600H-1v74h499v-74H292V0z"/><glyph glyph-name="uni0163" unicode="ţ" horiz-adv-x="331" d="M305 417H179V156q0-94 66-94 29 0 51 6l4-66q-29-12-78-12h-2l-25-40q29-4 49.5-23t20.5-46q0-42-29.5-61.5T161-200q-39 0-68 17l15 43q24-15 54-15 43 0 43 32-1 35-78 42l45 79q-28 10-45 29-34 35-34 126v264H18v67h75v116l86 23V484h126v-67z"/><glyph glyph-name="Tcaron" unicode="Ť" horiz-adv-x="497" d="M204 0v600H-1v74h499v-74H292V0h-88zm78 710h-67L111 824h73l64-69h2l63 69h72z"/><glyph glyph-name="tcaron" unicode="ť" horiz-adv-x="339" d="M277 541l-26 35q38 29 38 74 0 33-30 59l63 13q35-23 35-69 0-44-26-72t-54-40zM93 600l86 23V484h126v-67H179V156q0-94 66-94 29 0 51 6l4-66q-29-12-78-12-63 0-95 37-34 35-34 126v264H18v67h75v116z"/><glyph glyph-name="Tbar" unicode="Ŧ" horiz-adv-x="497" d="M498 600H292V378h124v-58H292V0h-88v320H80v58h124v222H-1v74h499v-74z"/><glyph glyph-name="tbar" unicode="ŧ" horiz-adv-x="331" d="M305 417H179V302h98v-54h-98v-92q0-94 66-94 29 0 51 6l4-66q-29-12-78-12-63 0-95 37-34 35-34 126v95H26v54h67v115H18v67h75v116l86 23V484h126v-67z"/><glyph glyph-name="Utilde" unicode="Ũ" horiz-adv-x="647" d="M75 674h88V275q0-108 43-161.5T320 60q78 0 121 53t43 162v399h88V281q0-148-69.5-220T317-11q-111 0-176.5 69.5T75 277v397zm171 41h-47q-1 46 17.5 74t50.5 28q21 0 59-20 34-18 48-18 13 0 19.5 8t7.5 31h47q2-97-68-97-23 0-61 19-36 19-47 19-21 0-26-44z"/><glyph glyph-name="utilde" unicode="ũ" horiz-adv-x="551" d="M478 484V132q0-81 4-132h-78l-5 79h-2q-21-36-61.5-63T237-11q-31 0-58.5 9.5t-53 32-40.5 66T70 201v283h88V216q0-154 108-154 41 0 72 23.5t44 56.5q8 21 8 45v297h88zm-278 83h-48q-1 48 17 76t51 28q23 0 62-22 30-17 42-17 25 0 28 43h47q2-101-69-101-23 0-61 20-30 18-43 18-23 0-26-45z"/><glyph glyph-name="Umacron" unicode="Ū" horiz-adv-x="647" d="M75 674h88V275q0-108 43-161.5T320 60q78 0 121 53t43 162v399h88V281q0-148-69.5-220T317-11q-111 0-176.5 69.5T75 277v397zm129 114h239v-55H204v55z"/><glyph glyph-name="umacron" unicode="ū" horiz-adv-x="551" d="M478 484V132q0-81 4-132h-78l-5 79h-2q-21-36-61.5-63T237-11q-31 0-58.5 9.5t-53 32-40.5 66T70 201v283h88V216q0-154 108-154 41 0 72 23.5t44 56.5q8 21 8 45v297h88zM163 643h225v-57H163v57z"/><glyph glyph-name="Ubreve" unicode="Ŭ" horiz-adv-x="647" d="M75 674h88V275q0-108 43-161.5T320 60q78 0 121 53t43 162v399h88V281q0-148-69.5-220T317-11q-111 0-176.5 69.5T75 277v397zm124 153h52q11-49 72-49 64 0 73 49h51q-1-47-32.5-76.5T322 721t-91 29.5-32 76.5z"/><glyph glyph-name="ubreve" unicode="ŭ" horiz-adv-x="551" d="M478 484V132q0-81 4-132h-78l-5 79h-2q-21-36-61.5-63T237-11q-31 0-58.5 9.5t-53 32-40.5 66T70 201v283h88V216q0-154 108-154 41 0 72 23.5t44 56.5q8 21 8 45v297h88zM151 682h52q5-31 23.5-50t48.5-19q33 0 51 20.5t21 48.5h52q0-56-34-90t-90-34q-62 0-93 36t-31 88z"/><glyph glyph-name="Uring" unicode="Ů" horiz-adv-x="647" d="M75 674h88V275q0-108 43-161.5T320 60q78 0 121 53t43 162v399h88V281q0-148-69.5-220T317-11q-111 0-176.5 69.5T75 277v397zm249 198q45 0 72-25.5t27-64.5q0-38-28-63.5T324 693q-44 0-72 25.5T224 781q0 39 27.5 65t72.5 26zm-1-36q-22 0-35-16t-13-39q0-20 13.5-35.5T323 730t35 15.5 14 37.5-14 37.5-35 15.5z"/><glyph glyph-name="uring" unicode="ů" horiz-adv-x="551" d="M478 484V132q0-81 4-132h-78l-5 79h-2q-21-36-61.5-63T237-11q-31 0-58.5 9.5t-53 32-40.5 66T70 201v283h88V216q0-154 108-154 41 0 72 23.5t44 56.5q8 21 8 45v297h88zm-202 53q-44 0-72.5 26T175 628q0 41 28 68t74 27q44 0 71.5-27t27.5-67q0-39-29-65.5T276 537zm-1 37q23 0 37.5 16.5T327 630t-14.5 39-38.5 16q-22 0-35.5-16.5T225 628q0-20 14.5-37t35.5-17z"/><glyph glyph-name="Uhungarumlaut" unicode="Ű" horiz-adv-x="647" d="M75 674h88V275q0-108 43-161.5T320 60q78 0 121 53t43 162v399h88V281q0-148-69.5-220T317-11q-111 0-176.5 69.5T75 277v397zm207 153h96L267 715h-64zm148 0h95L414 715h-64z"/><glyph glyph-name="uhungarumlaut" unicode="ű" horiz-adv-x="551" d="M478 484V132q0-81 4-132h-78l-5 79h-2q-21-36-61.5-63T237-11q-31 0-58.5 9.5t-53 32-40.5 66T70 201v283h88V216q0-154 108-154 41 0 72 23.5t44 56.5q8 21 8 45v297h88zM246 693h86L222 556h-55zm144 0h86L366 556h-55z"/><glyph glyph-name="Uogonek" unicode="Ų" horiz-adv-x="647" d="M416-135l13-45q-34-24-82-24-42 0-66 21.5T257-124q0 53 57 114-1 0-3-.5t-3-.5Q201-7 138 62T75 277v397h88V275q0-108 43-161.5T320 60q78 0 121 53t43 162v399h88V281q0-124-50-194.5T386-1q-61-56-61-101 0-20 12.5-31.5T370-145q23 0 46 10z"/><glyph glyph-name="uogonek" unicode="ų" horiz-adv-x="551" d="M478 484V132q0-83 4-132h-22q-40-56-40-95 0-24 14.5-38t36.5-14q25 0 45 9l14-45q-30-23-81-23-42 0-67.5 22.5T356-120q0 51 48 123l-5 76h-2q-21-36-61.5-63T237-11q-31 0-58.5 9.5t-53 32-40.5 66T70 201v283h88V216q0-154 108-154 41 0 72 23.5t44 56.5q8 21 8 45v297h88z"/><glyph glyph-name="Wcircumflex" unicode="Ŵ" horiz-adv-x="846" d="M277 0h-91L15 674h92l80-341q31-131 50-233h2q11 68 55 234l90 340h91l82-342q36-150 47-231h2q13 70 54 233l89 340h89L647 0h-91l-85 351q-32 133-44 220h-2q-19-104-52-220zm113 824h67l105-114h-73l-64 69h-2l-64-69h-71z"/><glyph glyph-name="wcircumflex" unicode="ŵ" horiz-adv-x="736" d="M18 484h90l64-246q27-104 36-154h3q11 49 43 153l79 247h74l75-242q27-88 43-158h3q10 60 37 157l69 243h87L565 0h-80l-74 231q-29 91-43 159h-2q-14-69-44-160L244 0h-80zm319 209h61l95-143h-67l-58 95h-2l-58-95h-65z"/><glyph glyph-name="Ycircumflex" unicode="Ŷ" horiz-adv-x="541" d="M314 0h-88v286L13 674h99l95-186q40-78 67-139h2q16 37 68 139l97 186h99L314 287V0zm-77 824h67l104-114h-73l-64 69h-2l-63-69h-72z"/><glyph glyph-name="ycircumflex" unicode="ŷ" horiz-adv-x="471" d="M9 484h96l106-286q19-54 31-99h2q1 3 12.5 41.5T275 200l96 284h93L332 139Q283 10 246.5-58T166-164q-53-47-108-57l-22 74q42 13 77 43 47 37 74 98 7 16 7 21 0 7-6 23zm198 209h61l96-143h-68l-58 95h-2l-58-95h-65z"/><glyph glyph-name="Ydieresis" unicode="Ÿ" horiz-adv-x="541" d="M314 0h-88v286L13 674h99l95-186q40-78 67-139h2q16 37 68 139l97 186h99L314 287V0zM187 714q-21 0-35 15t-14 36 14.5 35.5T188 815q20 0 33.5-14.5T235 765q0-22-13.5-36.5T187 714zm185 0q-21 0-34.5 14.5T324 765q0 21 14 35.5t35 14.5 34.5-14.5T421 765q0-22-13.5-36.5T372 714z"/><glyph glyph-name="Zacute" unicode="Ź" horiz-adv-x="553" d="M30 0v51l374 547v3H62v73h455v-53L145 76v-3h377V0H30zm295 827h106L304 710h-71z"/><glyph glyph-name="zacute" unicode="ź" horiz-adv-x="428" d="M18 0v51l219 285q10 12 63 75v2H38v71h369l-1-55-216-281q-26-35-62-76v-2h283V0H18zm242 693h97L235 550h-63z"/><glyph glyph-name="Zdotaccent" unicode="Ż" horiz-adv-x="553" d="M30 0v51l374 547v3H62v73h455v-53L145 76v-3h377V0H30zm251 720q-21 0-35.5 15T231 770t14.5 35 35.5 15 34.5-14.5T329 770q0-20-14-35t-34-15z"/><glyph glyph-name="zdotaccent" unicode="ż" horiz-adv-x="428" d="M18 0v51l219 285q10 12 63 75v2H38v71h369l-1-55-216-281q-26-35-62-76v-2h283V0H18zm199 570q-22 0-36.5 15T166 621q0 22 14.5 37t36.5 15q21 0 35-15t14-37q0-21-14-36t-35-15z"/><glyph glyph-name="Zcaron" unicode="Ž" horiz-adv-x="553" d="M30 0v51l374 547v3H62v73h455v-53L145 76v-3h377V0H30zm291 710h-67L150 824h73l64-69h2l63 69h72z"/><glyph glyph-name="zcaron" unicode="ž" horiz-adv-x="428" d="M18 0v51l219 285q10 12 63 75v2H38v71h369l-1-55-216-281q-26-35-62-76v-2h283V0H18zm241 550h-64L99 693h68l59-95h2l59 95h66z"/><glyph glyph-name="florin" unicode="ƒ" horiz-adv-x="513" d="M111 338v63h99l6 46q5 41 16.5 76t32.5 67.5 57.5 51.5 84.5 19q44-1 68-15l-16-64q-25 10-52 10-48 0-73.5-39T301 453l-6-52h120v-63H287l-24-205Q250 27 210.5-28.5T89-84q-48 0-78 16L27-5q23-11 56-11 44 0 65.5 38T180 141l23 197h-92z"/><glyph glyph-name="Ohorn" unicode="Ơ" horiz-adv-x="689" d="M344 60q100 0 158 80t58 200q0 110-56.5 192T345 614q-103 0-160-82t-56-199q-1-112 57.5-192.5T344 60zm249 680l68 13q18-40 18-82 0-44-26.5-69T574 582q78-90 78-238 0-168-89-261.5T339-11q-134 0-218.5 95T36 331q0 159 88 256.5T349 685q55 0 104-17 10-3 33.5-13t43.5-16.5 34-6.5q45 0 45 44 0 32-16 64z"/><glyph glyph-name="ohorn" unicode="ơ" horiz-adv-x="553" d="M276 429q-73 0-111-55.5T127 241q0-80 41.5-133T274 55q63 0 105 53.5T421 243q0 44-14 84.5t-48 71-83 30.5zm194 125l67 12q17-36 17-73 0-42-24-65.5T461 406q50-63 50-160 0-125-71.5-191T270-11q-100 0-166 68T38 238q0 118 68 187.5T278 495q41 0 83-14 8-2 24.5-9.5t31.5-12 29-4.5q40 0 40 40 0 29-16 59z"/><glyph glyph-name="Uhorn" unicode="Ư" horiz-adv-x="677" d="M593 770l67 12q17-37 17-75t-23-61-67-24l-15-1V281q0-148-69.5-220T317-11q-111 0-176.5 69.5T75 277v397h88V275q0-108 43-161.5T320 60q78 0 121 53t43 162v399h79q25 0 35.5 9t10.5 29q0 29-16 58z"/><glyph glyph-name="uhorn" unicode="ư" horiz-adv-x="551" d="M489 581l67 11q18-33 18-72 0-37-24-59.5T489 436l-11-1V132q0-81 4-132h-78l-5 79h-2q-21-36-61.5-63T237-11q-31 0-58.5 9.5t-53 32-40.5 66T70 201v283h88V216q0-154 108-154 41 0 72 23.5t44 56.5q8 21 8 45v297h69q47 0 47 39 0 27-17 58z"/><glyph glyph-name="Aringacute" unicode="Ǻ" horiz-adv-x="612" d="M312 692q-41 0-66 22t-25 55 25 56 67 23q41 0 65-22.5t24-56.5q0-33-25-55t-65-22zm-1 37q20 0 32 11t12 30q0 18-12.5 30T310 812q-19 0-30.5-12.5T268 769q0-17 12-28.5t31-11.5zm55 223h114l-143-86h-77zm58-740H185L115 0H25l229 674h105L589 0h-93zm-221 68h203l-66 194q-14 41-35 123h-2q-17-70-34-122z"/><glyph glyph-name="aringacute" unicode="ǻ" horiz-adv-x="482" d="M297 834h98L252 728h-62zm-56-314q-44 0-72.5 26T140 611q0 40 28 67t74 27q44 0 71.5-26.5T341 611q0-39-28.5-65T241 520zm-1 37q23 0 37.5 16t14.5 39q0 24-14.5 40T240 668q-22 0-35.5-16.5T191 611q0-21 14-37.5t35-16.5zM421 0h-80l-7 61h-3q-22-31-60.5-51.5T183-11q-70 0-109 41t-39 98q0 88 75.5 134.5T326 308v10q0 112-110 112-70 0-126-36l-20 58q66 43 159 43 53 0 90.5-17t57-46.5 28-62T413 297V116q0-72 8-116zm-93 163v84q-205 4-205-109 0-41 23.5-62.5T206 54q44 0 74.5 23.5T323 135q5 15 5 28z"/><glyph glyph-name="AEacute" unicode="Ǽ" horiz-adv-x="788" d="M89 0H-1l308 674h422v-73H442l26-215h251v-72H479l30-241h247V0H434l-30 238H197zm137 308h168l-22 194q-11 84-12 109h-4q-10-28-43-106zm262 519h106L467 710h-71z"/><glyph glyph-name="aeacute" unicode="ǽ" horiz-adv-x="773" d="M734 233H410q-2-84 40.5-130T564 57q74 0 132 28l16-62q-63-34-159-34-63 0-113 28.5T369 96h-2q-23-50-70.5-78.5T187-11q-72 0-111.5 40.5T36 127q0 84 76 130t216 45v20q0 12-4.5 27.5t-15 35-35 32.5-58.5 13q-70 0-124-37l-21 58q70 44 151 44 123 0 156-103h2q25 49 69 76t100 27q42 0 76-15.5t54.5-39.5 34.5-55 19-59 5-54-3-39zm-405-61v71q-206 4-206-109 0-37 24-58.5T207 54q45 0 75.5 23.5T324 137q5 14 5 35zm80 124h243q2 28-7.5 57.5t-37 54T539 432q-59 0-93-43.5T409 296zm20 397h96L403 550h-62z"/><glyph glyph-name="Oslashacute" unicode="Ǿ" horiz-adv-x="689" d="M112-43L63-4l62 88q-89 95-89 249 0 157 88.5 254.5T347 685q95 0 168-53l59 81 53-36-62-86q87-95 87-248 0-168-88.5-261T346-11q-97 0-171 54zm64 201l296 410q-55 47-126 47-104 0-162.5-81.5T125 338q0-94 50-181zm337 357L218 107q51-48 126-48 102 0 160.5 81T563 340q0 98-47 175h-3zM392 835h106L371 718h-72z"/><glyph glyph-name="oslashacute" unicode="ǿ" horiz-adv-x="549" d="M276 495q68 0 123-35l42 60 39-27-42-62q73-70 73-185 0-124-71-190.5T275-11q-72 0-124 34l-43-61L71-8l42 60q-75 70-75 187t68 186.5T276 495zM161 119l198 281q-35 29-85 29-75 0-113-56.5T123 241q0-71 36-121zm228 242L191 83q32-28 81-28 68 0 110.5 53T425 243q0 68-34 118h-2zm-74 332h97L290 550h-63z"/><glyph glyph-name="uni0218" unicode="Ș" horiz-adv-x="493" d="M42 33l22 73q72-44 156-44 66 0 103.5 31.5T361 177q0 47-29 77.5T234 311Q56 374 56 502q0 80 60.5 131.5T274 685q91 0 149-33l-24-71q-59 32-128 32-63 0-95-30.5T144 512q0-46 30.5-74T278 382q89-34 130.5-80T450 184q0-83-61-138.5T214-10q-48 0-96 12.5T42 33zm143-255l-16 41q75 14 75 66 0 33-35 60l66 14q39-25 39-73 0-51-38-78t-91-30z"/><glyph glyph-name="uni0219" unicode="ș" horiz-adv-x="396" d="M39 23l22 67q54-35 116-35 46 0 70 20t24 52q0 31-20.5 51T181 216Q53 262 53 353q0 60 45.5 101T220 495q68 0 119-30l-22-64q-44 28-99 28-38 0-59.5-19T137 363q0-29 20.5-46t71.5-36q65-25 96-59t31-87q0-65-48-105T175-10Q95-10 39 23zm97-245l-17 41q75 12 75 66 0 34-34 60l66 14q16-11 27.5-30.5T265-114q0-51-38-78t-91-30z"/><glyph glyph-name="uni021A" unicode="Ț" horiz-adv-x="497" d="M204 0v600H-1v74h499v-74H292V0h-88zm-24-222l-17 41q75 13 75 66 0 34-34 60l65 14q40-26 40-73 0-51-38-78t-91-30z"/><glyph glyph-name="uni021B" unicode="ț" horiz-adv-x="331" d="M93 600l86 23V484h126v-67H179V156q0-94 66-94 29 0 51 6l4-66q-29-12-78-12-63 0-95 37-34 35-34 126v264H18v67h75v116zm29-827l-17 41q75 12 75 65 0 35-34 61l65 14q40-26 40-74 0-51-38-77.5T122-227z"/><glyph glyph-name="uni021C" unicode="Ȝ" horiz-adv-x="480" d="M63-115L52-46q126 19 211.5 81T349 182q0 58-39.5 95.5T202 314q-38 0-94-18l-12 62q88 20 144.5 64.5T297 524q0 41-31 66t-80 25q-68 0-137-36l-18 59q28 18 76 32.5t95 14.5q82 0 132.5-41T385 538q0-54-34.5-96.5T262 374v-3q79-8 129-56.5T441 188q0-116-103-199.5T63-115z"/><glyph glyph-name="uni021D" unicode="ȝ" horiz-adv-x="427" d="M44-209l-9 68q19 1 44 5.5t68.5 17.5T225-85.5t59.5 54T310 47q0 47-32.5 78T182 156q-37 0-88-15l-13 63q185 43 185 138 0 39-28 61.5T162 426q-54 0-124-38l-18 58q76 49 163 49 76 0 122-37.5T351 357q0-48-28.5-84.5T245 217v-3q70-8 112.5-50T400 57q0-102-94-177T44-209z"/><glyph glyph-name="uni0232" unicode="Ȳ" horiz-adv-x="541" d="M314 0h-88v286L13 674h99l95-186q40-78 67-139h2q16 37 68 139l97 186h99L314 287V0zM151 788h239v-55H151v55z"/><glyph glyph-name="uni0233" unicode="ȳ" horiz-adv-x="471" d="M9 484h96l106-286q19-54 31-99h2q1 3 12.5 41.5T275 200l96 284h93L332 139Q283 10 246.5-58T166-164q-53-47-108-57l-22 74q42 13 77 43 47 37 74 98 7 16 7 21 0 7-6 23zm115 159h225v-57H124v57z"/><glyph glyph-name="circumflex" unicode="ˆ" d="M119 693h61l96-143h-68l-58 95h-2l-58-95H25z"/><glyph glyph-name="caron" unicode="ˇ" d="M183 550h-64L23 693h68l59-95h2l59 95h66z"/><glyph glyph-name="uni02C9" unicode="ˉ" d="M38 643h225v-57H38v57z"/><glyph glyph-name="breve" unicode="˘" d="M26 682h52q5-31 23.5-50t48.5-19q33 0 51 20.5t21 48.5h52q0-56-34-90t-90-34q-62 0-93 36t-31 88z"/><glyph glyph-name="dotaccent" unicode="˙" d="M140 570q-22 0-36.5 15T89 621q0 22 14.5 37t36.5 15q21 0 35-15t14-37q0-21-14-36t-35-15z"/><glyph glyph-name="ring" unicode="˚" d="M142 537q-44 0-72.5 26T41 628q0 41 28 68t74 27q44 0 71.5-27t27.5-67-28.5-66-71.5-26zm-1 37q23 0 37.5 16.5T193 630t-14.5 39-37.5 16-36-16.5T92 628q0-21 14-37.5t35-16.5z"/><glyph glyph-name="ogonek" unicode="˛" d="M123 4h57q-53-67-53-100 0-23 14-36.5t36-13.5q24 0 46 9l14-45q-29-23-80-23-43 0-68.5 22.5T63-119q0 58 60 123z"/><glyph glyph-name="tilde" unicode="˜" d="M75 567H27q-1 48 17 76t51 28q23 0 62-22 30-17 42-17 25 0 28 43h47q2-101-69-101-23 0-61 20-30 18-43 18-23 0-26-45z"/><glyph glyph-name="hungarumlaut" unicode="˝" d="M123 693h86L99 556H44zm144 0h86L243 556h-55z"/><glyph glyph-name="uni037E" unicode=";" horiz-adv-x="207" d="M78-117l-61-6Q57-15 77 116l97 10q-18-64-46.5-136T78-117zm41 459q-26 0-42.5 17.5T60 404q0 28 16.5 45.5T119 467q27 0 43-17.5t16-45.5q0-27-16-44.5T119 342z"/><glyph glyph-name="tonos" unicode="΄" horiz-adv-x="301" d="M137 694h89l-83-143H83z"/><glyph glyph-name="dieresistonos" unicode="΅" horiz-adv-x="346" d="M153 710h75l-49-157h-48zM51 573q-21 0-34 14T4 621t14 33.5T52 668q19 0 32-13.5T97 621t-13-34-33-14zm242 0q-21 0-34 14t-13 34q0 19 14 33t33 14q20 0 33-13.5t13-33.5-13-34-33-14z"/><glyph glyph-name="Alphatonos" unicode="Ά" horiz-adv-x="615" d="M427 212H188L118 0H28l229 674h105L592 0h-93zm-221 68h203l-66 194q-14 41-35 123h-2q-17-70-34-122zM70 674h79l-35-155H62z"/><glyph glyph-name="anoteleia" unicode="·" horiz-adv-x="217" d="M108 252q-28 0-46 19t-17 48q0 30 18 49t46 19 45.5-19 17.5-49q0-29-17.5-48T108 252z"/><glyph glyph-name="Epsilontonos" unicode="Έ" horiz-adv-x="561" d="M494 388v-72H233V73h292V0H145v674h365v-73H233V388h261zM7 674h80L52 519H0z"/><glyph glyph-name="Etatonos" unicode="Ή" horiz-adv-x="722" d="M145 674h88V392h325v282h88V0h-88v316H233V0h-88v674zM7 674h80L52 519H0z"/><glyph glyph-name="Iotatonos" unicode="Ί" horiz-adv-x="309" d="M145 674h88V0h-88v674zM7 674h80L52 519H0z"/><glyph glyph-name="Omicrontonos" unicode="Ό" horiz-adv-x="728" d="M388 685q137 0 220.5-95T692 344q0-168-89-261.5T379-11 160 83.5 76 331q0 159 87.5 256.5T388 685zm-3-71q-104 0-160.5-81.5T168 333q0-114 58.5-193.5T384 60q100 0 158 80t58 200q0 110-56.5 192T385 614zM7 674h80L52 519H0z"/><glyph glyph-name="Upsilontonos" unicode="Ύ" horiz-adv-x="706" d="M128 609l16 71q37-2 84-27t80-64q85-95 104-247h4q22 140 117 245 35 37 77 62.5t76 30.5l16-71q-66-25-133-102t-99-196q-18-72-18-138V0h-87v174q0 64-14 136-29 129-90.5 206T128 609zM7 674h80L52 519H0z"/><glyph glyph-name="Omegatonos" unicode="Ώ" horiz-adv-x="742" d="M320 0H66v69h146v4q-56 46-94 120T80 358q0 143 89.5 235T394 685q137 0 220.5-91T698 366q0-96-38-170.5T565 73v-4h146V0H458v55q65 44 107.5 122.5T608 352q-1 102-58.5 182T392 614q-101 0-161-78.5T171 351q0-91 43.5-174T320 55V0zM7 674h80L52 519H0z"/><glyph glyph-name="iotadieresistonos" unicode="ΐ" horiz-adv-x="236" d="M161 484V117q0-34 9.5-47T208 58l-5-64q-17-5-40-5-43 0-66.5 26T73 108v376h88zm-54 213h75l-49-157H85zM5 560q-21 0-34 14t-13 34 14 33.5T6 655q19 0 32-13.5T51 608t-13-34-33-14zm242 0q-21 0-34 14t-13 34 14 33.5 33 13.5q20 0 33-13.5t13-33.5-13-34-33-14z"/><glyph glyph-name="Alpha" unicode="Α" horiz-adv-x="612" d="M424 212H185L115 0H25l229 674h105L589 0h-93zm-221 68h203l-66 194q-14 41-35 123h-2q-17-70-34-122z"/><glyph glyph-name="Beta" unicode="Β" horiz-adv-x="542" d="M76 2v663q66 14 159 14 124 0 185-49 56-42 56-119 0-49-30.5-89T362 363v-2q56-14 97.5-57T501 192q0-80-57-135Q375-6 211-6 134-6 76 2zm87 604V389h79q68 0 107 31.5t39 81.5q0 110-148 110-49 0-77-6zm0-283V66q23-4 73-4 75 0 124 31.5t49 99.5q0 65-48.5 97.5T235 323h-72z"/><glyph glyph-name="Gamma" unicode="Γ" horiz-adv-x="451" d="M76 674h361v-73H163V0H76v674z"/><glyph glyph-name="uni0394" unicode="Δ" horiz-adv-x="620" d="M25 0v49l235 625h99L591 50V0H25zm93 73h376L357 444q-36 99-50 150h-3q-20-67-45-137z"/><glyph glyph-name="Epsilon" unicode="Ε" horiz-adv-x="492" d="M425 388v-72H163V73h292V0H76v674h364v-73H163V388h262z"/><glyph glyph-name="Zeta" unicode="Ζ" horiz-adv-x="553" d="M30 0v51l374 547v3H62v73h455v-53L145 76v-3h377V0H30z"/><glyph glyph-name="Eta" unicode="Η" horiz-adv-x="652" d="M76 674h87V392h326v282h88V0h-88v316H163V0H76v674z"/><glyph glyph-name="Theta" unicode="Θ" horiz-adv-x="689" d="M341-11q-135 0-220 94.5T36 331q0 159 88 256.5T349 685t220.5-95T653 344q0-168-89-261.5T341-11zm3 71q101 0 159 80t58 200q0 110-56.5 192T346 614q-104 0-161-82t-57-199q0-112 58.5-192.5T344 60zM209 383h271v-72H209v72z"/><glyph glyph-name="Iota" unicode="Ι" horiz-adv-x="239" d="M76 674h87V0H76v674z"/><glyph glyph-name="Kappa" unicode="Κ" horiz-adv-x="542" d="M76 0v674h87V349h3q23 33 53 72l206 253h108L289 388 552 0H449L227 331l-64-74V0H76z"/><glyph glyph-name="Lambda" unicode="Λ" horiz-adv-x="609" d="M590 0h-94L340 464q-16 50-35 128h-3q-19-79-33-127L116 0H25l229 674h104z"/><glyph glyph-name="Mu" unicode="Μ" horiz-adv-x="804" d="M661 0l-17 296q-11 207-10 291h-3q-34-115-85-256L427 4h-66L252 325q-53 159-78 262h-2q-3-132-13-298L141 0H58l47 674h111l115-326q46-136 68-227h3q22 89 71 227l120 326h111L746 0h-85z"/><glyph glyph-name="Nu" unicode="Ν" horiz-adv-x="658" d="M158 0H76v674h95l216-341q73-115 121-219l2 1q-10 112-10 277v282h82V0h-88L280 342q-83 132-126 225l-3-1q7-119 7-278V0z"/><glyph glyph-name="Xi" unicode="Ξ" horiz-adv-x="540" d="M54 674h441v-72H54v72zm33-289h374v-72H87v72zM43 73h462V0H43v73z"/><glyph glyph-name="Omicron" unicode="Ο" horiz-adv-x="689" d="M349 685q137 0 220-95t83-246q0-168-89-261.5T339-11q-134 0-218.5 95T36 331q0 159 88 256.5T349 685zm-4-71q-103 0-159.5-81.5T129 333q0-113 58-193t157-80q100 0 158 80t58 200q0 110-56.5 192T345 614z"/><glyph glyph-name="Pi" unicode="Π" horiz-adv-x="634" d="M558 674V0h-88v600H163V0H76v674h482z"/><glyph glyph-name="Rho" unicode="Ρ" horiz-adv-x="532" d="M76 0v666q78 13 167 13 127 0 189-56 59-51 59-141t-52-144q-69-74-206-74-46 0-70 6V0H76zm87 603V341q27-7 72-7 80 0 124.5 37.5T404 478q0 65-42.5 98.5T245 610q-56 0-82-7z"/><glyph glyph-name="Sigma" unicode="Σ" horiz-adv-x="552" d="M140 76v-3h384V0H26v52l234 283L39 615v59h453v-72H151v-4l206-260z"/><glyph glyph-name="Tau" unicode="Τ" horiz-adv-x="497" d="M204 0v600H-1v74h499v-74H292V0h-88z"/><glyph glyph-name="Upsilon" unicode="Υ" horiz-adv-x="588" d="M10 609l16 71q37-2 84-27t80-64q87-97 104-247h4q22 140 117 245 35 37 77.5 62.5T569 680l15-71q-66-25-133-102t-98-196q-19-76-19-138V0h-87v174q0 72-14 136-28 129-89.5 206T10 609z"/><glyph glyph-name="Phi" unicode="Φ" horiz-adv-x="718" d="M400 26v-52h-84v52q-115 10-197.5 88.5T36 333q0 143 86.5 225.5T318 650v50h84v-50q115-9 197.5-90.5T682 338q0-72-24-131t-64-96-89.5-58.5T400 26zm-83 63v498q-73-5-132-72t-59-180q0-105 56-170.5T317 89zm84 498V89q78 7 134.5 72.5T592 336q0 113-56.5 178.5T401 587z"/><glyph glyph-name="Chi" unicode="Χ" horiz-adv-x="571" d="M546 0H445l-86 149q-52 84-78 133h-2q-30-61-73-134L125 0H25l206 341L33 674h101l89-158q42-73 62-114h3q24 50 61 114l92 158h100L336 346z"/><glyph glyph-name="Psi" unicode="Ψ" horiz-adv-x="685" d="M639 674V479q0-127-69.5-197T384 206V0h-83v206q-51 2-95 16.5t-80.5 43T68 342 47 454v220h85V469q0-185 170-194v399h82V274q74 4 121.5 55T553 488v186h86z"/><glyph glyph-name="uni03A9" unicode="Ω" horiz-adv-x="705" d="M284 0H30v69h145v4q-56 46-94 120T43 358q0 143 89.5 235T357 685q137 0 220.5-91T661 366q0-96-38-170.5T528 73v-4h147V0H422v55q64 44 106.5 122.5T571 352q0 102-58 182t-158 80q-101 0-161-78.5T134 351q0-91 44-174T284 55V0z"/><glyph glyph-name="Iotadieresis" unicode="Ϊ" horiz-adv-x="239" d="M76 674h87V0H76v674zm-50 37q-21 0-35 15t-14 36 14.5 36T27 813t34.5-15T75 762t-13.5-36T26 711zm186 0q-22 0-35.5 15T163 762t14 36 35 15 35-15 14-36-14-36-35-15z"/><glyph glyph-name="Upsilondieresis" unicode="Ϋ" horiz-adv-x="588" d="M10 609l16 71q37-2 84-27t80-64q87-97 104-247h4q22 140 117 245 35 37 77.5 62.5T569 680l15-71q-66-25-133-102t-98-196q-19-76-19-138V0h-87v174q0 72-14 136-28 129-89.5 206T10 609zm195 88q-21 0-35 15t-14 36q0 20 14.5 35t35.5 15 34.5-14.5T254 748q0-22-13.5-36.5T205 697zm186 0q-22 0-35.5 14.5T342 748q0 21 14 35.5t35 14.5 34.5-14.5T439 748q0-22-13.5-36.5T391 697z"/><glyph glyph-name="alphatonos" unicode="ά" horiz-adv-x="551" d="M416 484h73q-13-133-13-346 0-43 11.5-62T524 56l-7-63q-8-4-30-4-76 0-83 102h-3Q345-11 236-11q-87 0-142.5 67T38 232q0 115 64.5 189T254 495q52 0 90.5-25.5T403 398h4q2 47 9 86zM127 235q0-73 35.5-124.5T258 59q44 0 80.5 36.5T387 182q6 26 6 68 0 35-4 52-9 51-43.5 87.5T265 426q-61 0-99.5-54T127 235zm158 451h89l-83-143h-59z"/><glyph glyph-name="epsilontonos" unicode="έ" horiz-adv-x="440" d="M404 93l16-60q-28-19-77.5-31.5T243-11q-84 0-144 36T39 136q0 45 33.5 79t86.5 42v5q-47 10-71.5 37.5T63 364q0 52 51 91.5T256 495q93 0 147-37l-19-58q-17 11-52 20.5t-69 9.5q-51 0-81.5-19.5T151 358q0-34 37.5-51.5T286 289h58v-63h-61q-69 0-110.5-20T131 144q0-41 37.5-64.5T262 56q37 0 77.5 11.5T404 93zM256 686h89l-83-143h-60z"/><glyph glyph-name="etatonos" unicode="ή" horiz-adv-x="555" d="M161 0H73v353q0 89-14 131h79q14-30 14-80h2q20 38 62 64.5t98 26.5q28 0 55.5-9.5t54.5-31 44-64T485 289V-18q0-140 10-180h-83q-15 38-15 177v300q0 64-27 103.5T285 422q-42 0-74-26t-44-64q-6-16-6-41V0zm140 686h89l-83-143h-60z"/><glyph glyph-name="iotatonos" unicode="ί" horiz-adv-x="236" d="M161 484V117q0-34 9.5-47T208 58l-5-64q-17-5-40-5-43 0-66.5 26T73 108v376h88zm-28 203h89l-83-143H80z"/><glyph glyph-name="upsilondieresistonos" unicode="ΰ" horiz-adv-x="524" d="M360 484h82q14-26 25-79.5T478 295q0-58-10.5-108.5t-34-97T365 16 257-11q-84 0-137 50T67 184v137q0 130-11 163h84q14-17 14-91V196q0-67 32.5-100.5T264 62q62 0 95 59.5T392 287q0 60-10.5 116.5T360 484zM242 696h76l-50-157h-47zM141 560q-20 0-33.5 14T94 607q0 20 13.5 34t33.5 14q19 0 32.5-14t13.5-34q0-19-13-33t-33-14zm241 0q-20 0-33 14t-13 33q0 20 13.5 34t33.5 14q19 0 32.5-14t13.5-34q0-19-13.5-33T382 560z"/><glyph glyph-name="alpha" unicode="α" horiz-adv-x="551" d="M416 484h73q-13-133-13-346 0-43 11.5-62T524 56l-7-63q-8-4-30-4-76 0-83 102h-3Q345-11 236-11q-87 0-142.5 67T38 232q0 115 64.5 189T254 495q52 0 90.5-25.5T403 398h4q2 47 9 86zM127 235q0-73 35.5-124.5T258 59q44 0 80.5 36.5T387 182q6 26 6 68 0 35-4 52-9 51-43.5 87.5T265 426q-61 0-99.5-54T127 235z"/><glyph glyph-name="beta" unicode="β" horiz-adv-x="560" d="M159 50h-2v-67q0-136 11-181H86Q71-158 71-28v461q0 164 75 235 56 53 142 53 75 0 125-48.5T463 547q0-54-26-95.5T374 391v-4q62-13 105-63t43-128q0-96-62-151.5T313-11q-96 0-154 61zm-3 393V137q20-32 57-56t84-24q60 0 98.5 39.5T434 196q0 69-43.5 107.5T278 344h-27v60q5 0 17 2 54 4 84 40.5t30 87.5q0 53-28.5 85T280 651q-124 0-124-208z"/><glyph glyph-name="gamma" unicode="γ" horiz-adv-x="464" d="M269-198h-86q6 184-18 284-24 108-74.5 217.5T-6 484h99q37-56 81.5-165T240 107h4q114 210 114 343 0 8-.5 19t-.5 15h83q3-14 3-33 0-166-171-425-6-8-6-24 3-57 3-200z"/><glyph glyph-name="delta" unicode="δ" horiz-adv-x="546" d="M466 673l-26-58q-20 14-57.5 27T308 655q-39 0-60.5-13T226 610q0-24 61-72 3-3 5.5-5t5.5-4l82-66q128-98 128-227 0-110-67.5-178.5T273-11q-98 0-166.5 65.5T38 232q0 87 51 150.5T222 485v5l-23 18q-61 50-61 100 0 45 44.5 79T306 721q49 0 92.5-14.5T466 673zM326 402l-53 42q-146-77-146-211 0-81 45-129.5T278 55q60 0 101 47.5T420 230q0 99-94 172z"/><glyph glyph-name="epsilon" unicode="ε" horiz-adv-x="440" d="M404 93l16-60q-28-19-77.5-31.5T243-11q-84 0-144 36T39 136q0 45 33.5 79t86.5 42v5q-47 10-71.5 37.5T63 364q0 52 51 91.5T256 495q93 0 147-37l-19-58q-17 11-52 20.5t-69 9.5q-51 0-81.5-19.5T151 358q0-34 37.5-51.5T286 289h58v-63h-61q-69 0-110.5-20T131 144q0-41 37.5-64.5T262 56q37 0 77.5 11.5T404 93z"/><glyph glyph-name="zeta" unicode="ζ" horiz-adv-x="409" d="M341-143l-58 17q10 17 20.5 53.5T316-16q-62 9-118 27Q39 63 39 234q0 107 65.5 218.5T283 641v4h-71q-78 0-116 10l9 59q32-4 122-4h167l13-61q-120-61-199.5-175T128 250q0-75 32-115t92-62q54-20 140-29 9-2 9-12 0-41-19-94t-41-81z"/><glyph glyph-name="eta" unicode="η" horiz-adv-x="555" d="M161 0H73v353q0 89-14 131h79q14-30 14-80h2q20 38 62 64.5t98 26.5q28 0 55.5-9.5t54.5-31 44-64T485 289V-18q0-140 10-180h-83q-15 38-15 177v300q0 64-27 103.5T285 422q-42 0-74-26t-44-64q-6-16-6-41V0z"/><glyph glyph-name="theta" unicode="θ" horiz-adv-x="534" d="M269-11Q160-11 99 84T38 361q0 158 62 259t172 101q112 0 168.5-96.5T497 361q0-174-57.5-273T269-11zM125 399h285q-1 113-37.5 185T267 656q-64 0-103-75t-39-182zm285-66H125q0-131 40-205t106-74q68 0 103.5 76T410 333z"/><glyph glyph-name="iota" unicode="ι" horiz-adv-x="236" d="M161 484V117q0-34 9.5-47T208 58l-5-64q-17-5-40-5-43 0-66.5 26T73 108v376h88z"/><glyph glyph-name="kappa" unicode="κ" horiz-adv-x="493" d="M161 0H73v379q0 80-11 105h85q14-19 14-82V269h4q39 37 77 75.5t78 80.5 57 59h103v-4q-37-35-116-110T250 262v-3q54-12 149-138L487 0H385l-76 103q-85 111-140 112h-8V0z"/><glyph glyph-name="lambda" unicode="λ" horiz-adv-x="472" d="M364 0l-98 277q-22 66-32 105h-5q-6-26-31-102L99 0H7l175 448q6 16 6 23 0 10-7 27-27 73-56 112.5T55 650q-11 0-17-1l8 68q11 4 34 4 66 0 106.5-55T272 492L457 0h-93z"/><glyph glyph-name="uni03BC" unicode="μ" horiz-adv-x="553" d="M403 75h-3q-18-34-54-59T261-9q-76 0-106 53v-60q0-138 11-182H87Q73-156 73-20v504h87V198q0-60 27-98.5T269 61q41 0 72 24t44 57q8 21 8 45v297h87V133q0-40 10-57.5T526 57l-7-64q-13-4-30-4-75 0-86 86z"/><glyph glyph-name="nu" unicode="ν" horiz-adv-x="469" d="M4 484h93l93-272q7-19 14-40t15-46.5T232 86h3q125 244 125 353 0 31-1 45h83q3-30 3-36 0-64-29.5-147.5t-63-146T264 0h-83z"/><glyph glyph-name="xi" unicode="ξ" horiz-adv-x="433" d="M361 435v-64h-27q-100 0-152-42.5T130 220q0-59 38.5-95.5T284 68q40-11 133-25 9 0 9-11 0-38-19-93t-40-82l-58 17q10 17 20.5 54T341-16q-47 7-83.5 15t-80 25-72 40-48 61T38 212q0 71 44.5 123.5T195 407v5Q84 447 84 553q0 68 55 118t154 50q76 0 122-27l-18-61q-42 23-99 23-60 0-93-32t-33-77q0-51 39.5-80.5T313 435h48z"/><glyph glyph-name="omicron" unicode="ο" horiz-adv-x="549" d="M278 495q104 0 168.5-69T511 246q0-125-71.5-191T270-11q-100 0-166 68T38 238q0 118 68 187.5T278 495zm-2-66q-73 0-111-55.5T127 241q0-80 41.5-133T274 55q63 0 105 53.5T421 243q0 44-14 84.5t-48 71-83 30.5z"/><glyph glyph-name="pi" unicode="π" horiz-adv-x="555" d="M520 415h-67V144q0-94 14-144h-85q-15 28-15 135v280H208q-3-102-23-230T140 0H56q26 69 45.5 191.5T124 415q-67 0-99-9l-12 52q38 26 139 26h378z"/><glyph glyph-name="rho" unicode="ρ" horiz-adv-x="563" d="M163-198H79Q68-161 68-22v224q0 147 70 221 67 72 166 72 100 0 160.5-68T525 249q0-122-65-191T304-11q-48 0-86.5 18.5T158 60h-3v-78q0-134 8-180zm-8 429v-41q0-20 4-35 12-42 48.5-69.5T290 58q68 0 107.5 52.5T437 247q0 74-37.5 124.5T297 422q-58 0-100-48.5T155 231z"/><glyph glyph-name="uni03C2" unicode="ς" horiz-adv-x="417" d="M408 473l-20-64q-43 18-89 18-76 0-124-54t-48-131q0-131 137-172 54-15 129-26 10-3 10-15 0-40-18.5-93.5T345-144l-59 18q10 16 20.5 53T319-17Q255-5 220 4 138 28 88 85T38 234q0 105 70.5 183T299 495q70 0 109-22z"/><glyph glyph-name="sigma" unicode="σ" horiz-adv-x="554" d="M542 495l-3-67q-32 0-127 4v-4q42-29 66-78.5T502 245q0-124-70-190T270-11q-100 0-166 68T38 237q0 119 68.5 188T287 495h255zM272 55q60 0 101.5 54T415 245q0 71-36.5 127.5T273 429q-71 0-108.5-56T127 241q0-80 41-133t104-53z"/><glyph glyph-name="tau" unicode="τ" horiz-adv-x="413" d="M321 60l-4-63q-16-8-48-8-58 0-85 36.5T157 139v276h-53q-56 0-98-8l-12 51q37 26 132 26h279l-11-69H244V141q0-82 56-82 15 0 21 1z"/><glyph glyph-name="upsilon" unicode="υ" horiz-adv-x="524" d="M360 484h82q14-26 25-79.5T478 295q0-58-10.5-108.5t-34-97T365 16 257-11q-84 0-137 50T67 184v137q0 130-11 163h84q14-17 14-91V196q0-67 32.5-100.5T264 62q62 0 95 59.5T392 287q0 60-10.5 116.5T360 484z"/><glyph glyph-name="phi" unicode="φ" horiz-adv-x="642" d="M204 495l34-49q-113-71-113-200 0-75 40.5-127.5T282 54v294q0 74 34.5 110t88.5 36q76 0 137-66.5T603 255q0-117-70-186T363-10v-188h-81v188q-47 4-89 20.5t-77.5 46-56.5 78T38 244q0 94 52 159.5T204 495zm159-133V54q72 10 114 63t42 136q0 72-35.5 124.5T405 430q-42 0-42-68z"/><glyph glyph-name="chi" unicode="χ" horiz-adv-x="457" d="M18 484h94l123-261h4q23 52 51 107l72 154h86L277 157l176-348-82-22L227 83h-4q-1-3-18-41.5T177-20L86-213l-75 23 173 346z"/><glyph glyph-name="psi" unicode="ψ" horiz-adv-x="655" d="M295-198v187Q67 4 67 240v131q0 84-8 113h81q12-16 12-91V248q0-99 40-145t104-50v558h80V53q66 3 107.5 66.5T525 286q0 67-12 122.5T489 484h81q39-62 39-191 0-57-12.5-107.5t-39-94.5-73-71.5T376-11v-187h-81z"/><glyph glyph-name="omega" unicode="ω" horiz-adv-x="694" d="M388 356l-2-184q0-47 23.5-78.5T469 62q41 0 71 50t30 142q0 70-22.5 131T490 481v3h83q35-30 59-91.5T656 252q0-127-54-195T473-11q-44 0-77.5 23T347 75h-4q-17-40-50.5-63T215-11q-72 0-124.5 63.5T38 244q0 77 25 141.5t60 98.5h81v-3q-36-38-58-99.5T124 246q0-93 31.5-138.5T227 62q34 0 57 32t23 77l-2 185h83z"/><glyph glyph-name="iotadieresis" unicode="ϊ" horiz-adv-x="236" d="M161 484V117q0-34 9.5-47T208 58l-5-64q-17-5-40-5-43 0-66.5 26T73 108v376h88zM28 557q-22 0-36.5 14.5T-23 607q0 22 15 36.5T28 658t35-14.5T77 607q0-21-14-35.5T28 557zm185 0q-22 0-36 14.5T163 607q0 22 14.5 36.5T214 658q21 0 34.5-14.5T262 607q0-21-13.5-35.5T213 557z"/><glyph glyph-name="upsilondieresis" unicode="ϋ" horiz-adv-x="524" d="M360 484h82q14-26 25-79.5T478 295q0-58-10.5-108.5t-34-97T365 16 257-11q-84 0-137 50T67 184v137q0 130-11 163h84q14-17 14-91V196q0-67 32.5-100.5T264 62q62 0 95 59.5T392 287q0 60-10.5 116.5T360 484zm-196 72q-21 0-35.5 15T114 607t14.5 36 36.5 15q20 0 34-14.5t14-36.5q0-21-13.5-36T164 556zm186 0q-22 0-36 15t-14 36 14.5 36 35.5 15 35-14.5 14-36.5q0-21-14-36t-35-15z"/><glyph glyph-name="omicrontonos" unicode="ό" horiz-adv-x="549" d="M278 495q104 0 168.5-69T511 246q0-125-71.5-191T270-11q-100 0-166 68T38 238q0 118 68 187.5T278 495zm-2-66q-73 0-111-55.5T127 241q0-80 41.5-133T274 55q63 0 105 53.5T421 243q0 44-14 84.5t-48 71-83 30.5zm13 257h89l-83-143h-60z"/><glyph glyph-name="upsilontonos" unicode="ύ" horiz-adv-x="524" d="M360 484h82q14-26 25-79.5T478 295q0-58-10.5-108.5t-34-97T365 16 257-11q-84 0-137 50T67 184v137q0 130-11 163h84q14-17 14-91V196q0-67 32.5-100.5T264 62q62 0 95 59.5T392 287q0 60-10.5 116.5T360 484zm-88 203h89l-83-143h-59z"/><glyph glyph-name="omegatonos" unicode="ώ" horiz-adv-x="694" d="M388 356l-2-184q0-47 23.5-78.5T469 62q41 0 71 50t30 142q0 70-22.5 131T490 481v3h83q35-30 59-91.5T656 252q0-127-54-195T473-11q-44 0-77.5 23T347 75h-4q-17-40-50.5-63T215-11q-72 0-124.5 63.5T38 244q0 77 25 141.5t60 98.5h81v-3q-36-38-58-99.5T124 246q0-93 31.5-138.5T227 62q34 0 57 32t23 77l-2 185h83zm-28 330h89l-83-143h-59z"/><glyph glyph-name="uni0401" unicode="Ё" horiz-adv-x="492" d="M425 388v-72H163V73h292V0H76v674h364v-73H163V388h262zM163 721q-22 0-36 15t-14 36q0 20 14.5 35t35.5 15 34.5-14.5T211 772q0-22-13.5-36.5T163 721zm185 0q-21 0-35 15t-14 36 14 35.5 35 14.5 35-14.5 14-35.5q0-22-13.5-36.5T348 721z"/><glyph glyph-name="uni0402" unicode="Ђ" horiz-adv-x="665" d="M-1 674h518v-73H273V409h3q66 41 135 41 103 0 163-84 51-72 51-188 0-162-93-241-56-63-139-76l-16 68q72 18 110 70 47 62 47 171 0 93-34 146-41 61-113 61-61 0-114-39V0h-87v601H-1v73z"/><glyph glyph-name="uni0403" unicode="Ѓ" horiz-adv-x="433" d="M76 674h358v-73H163V0H76v674zm207 153h106L262 710h-72z"/><glyph glyph-name="uni0404" unicode="Є" horiz-adv-x="576" d="M544 653l-21-68q-58 28-133 28-111 0-180-66t-80-168h346v-70H131q3-105 73-176t183-71q78 0 140 27l16-67q-68-33-172-33-147 0-241 93.5T36 336q0 148 96 248.5T387 685q93 0 157-32z"/><glyph glyph-name="uni0405" unicode="Ѕ" horiz-adv-x="493" d="M42 33l22 73q72-44 156-44 66 0 103.5 31.5T361 177q0 47-29 77.5T234 311Q56 374 56 502q0 80 60.5 131.5T274 685q91 0 149-33l-24-71q-59 32-128 32-63 0-95-30.5T144 512q0-46 30.5-74T278 382q89-34 130.5-80T450 184q0-83-61-138.5T214-10q-48 0-96 12.5T42 33z"/><glyph glyph-name="uni0406" unicode="І" horiz-adv-x="239" d="M76 674h87V0H76v674z"/><glyph glyph-name="uni0407" unicode="Ї" horiz-adv-x="239" d="M76 674h87V0H76v674zm-48 47q-22 0-36 15t-14 36q0 20 14.5 35T28 822t34.5-14.5T76 772q0-22-13.5-36.5T28 721zm185 0q-21 0-35 15t-14 36 14.5 35.5T214 822t34.5-14.5T262 772q0-22-13.5-36.5T213 721z"/><glyph glyph-name="uni0408" unicode="Ј" horiz-adv-x="370" d="M214 230v444h87V223Q301-11 97-11 43-11 4 5l13 71q33-13 73-13 63 0 93.5 36.5T214 230z"/><glyph glyph-name="uni0409" unicode="Љ" horiz-adv-x="881" d="M125 674h376V420q35 5 82 5 111 0 185-52.5T842 215q0-88-56-146Q708-6 549-6q-77 0-135 8v599H209V397q0-66-3-112.5t-12-102T163.5 87 108 24Q60-8 7-8L-6 62q43 8 72 37 59 57 59 291v284zm376-321V66q28-4 70-4 77 0 128.5 39T751 213q0 74-51 109t-129 35q-26 0-70-4z"/><glyph glyph-name="uni040A" unicode="Њ" horiz-adv-x="897" d="M76 674h87V405h267v269h87V411q35 5 92 5 107 0 178-50.5T858 214q0-91-57-146Q727-6 566-6q-78 0-136 8v329H163V0H76v674zm441-330V67q25-5 71-5 77 0 128 37.5T767 211q0 70-50 103.5T591 348q-36 0-74-4z"/><glyph glyph-name="uni040B" unicode="Ћ" horiz-adv-x="675" d="M-1 674h507v-73H271V408h2q76 46 153 46 79 0 125-46 53-54 53-157V0h-88v239q0 75-32 110-32 34-86 34-67 0-127-43V0h-88v601H-1v73z"/><glyph glyph-name="uni040C" unicode="Ќ" horiz-adv-x="542" d="M76 674h86V375h27l231 299h105L270 365q77-10 118-53t71-121q6-16 17.5-49t18-51 17-44T533 0h-94q-20 38-61 159-26 75-67 112.5T190 309h-28V0H76v674zm242 148h107L297 705h-71z"/><glyph glyph-name="uni040E" unicode="Ў" horiz-adv-x="521" d="M2 674h99l134-287q24-56 49-119h2q37 107 42 122l105 284h92L384 328Q304 134 258 72q-66-83-153-83-33 0-49 6l9 71q11-3 32-3 82 1 132 116 8 18-3 41zm131 143h67q4-29 16.5-45.5T261 755t44.5 16.5T322 817h67q-8-108-130-108-118 0-126 108z"/><glyph glyph-name="uni040F" unicode="Џ" horiz-adv-x="635" d="M76 674h87V73h311v601h87V0H362l-8-174h-72L275 0H76v674z"/><glyph glyph-name="uni0410" unicode="А" horiz-adv-x="612" d="M424 212H185L115 0H25l229 674h105L589 0h-93zm-221 68h203l-66 194q-14 41-35 123h-2q-17-70-34-122z"/><glyph glyph-name="uni0411" unicode="Б" horiz-adv-x="546" d="M76 674h378v-73H163V420q35 5 83 5 106 0 174-45 86-56 86-165 0-90-56-146Q374-6 212-6 134-6 76 2v672zm87-321V67q25-5 73-5 93 0 142 52 37 39 37 99 0 72-55 110-50 34-128 34-25 0-69-4z"/><glyph glyph-name="uni0412" unicode="В" horiz-adv-x="542" d="M76 2v663q66 14 159 14 124 0 185-49 56-42 56-119 0-49-30.5-89T362 363v-2q56-14 97.5-57T501 192q0-80-57-135Q375-6 211-6 134-6 76 2zm87 604V389h79q68 0 107 31.5t39 81.5q0 110-148 110-49 0-77-6zm0-283V66q23-4 73-4 75 0 124 31.5t49 99.5q0 65-48.5 97.5T235 323h-72z"/><glyph glyph-name="uni0413" unicode="Г" horiz-adv-x="433" d="M76 674h358v-73H163V0H76v674z"/><glyph glyph-name="uni0414" unicode="Д" horiz-adv-x="630" d="M160 674h377V71l59-2-6-231h-68L516 0H91l-6-162H17L11 69l51 2q48 88 66 148 32 109 32 284v171zm81-72V475q0-167-34-275-19-63-55-128h298v530H241z"/><glyph glyph-name="uni0415" unicode="Е" horiz-adv-x="492" d="M425 388v-72H163V73h292V0H76v674h364v-73H163V388h262z"/><glyph glyph-name="uni0416" unicode="Ж" horiz-adv-x="801" d="M21 674h102l209-299h26v299h85V375h27l208 299h102L541 364q74-8 114-50.5T723 191q4-12 27-83T790 0h-89q-10 20-20 47.5T660.5 109 645 158q-26 78-62 114.5T472 309h-29V0h-85v309h-30q-75 0-111-36t-63-115q-5-14-15.5-49T119 47 100 0H11q13 28 24 59.5t23.5 71T78 190q28 79 68.5 122T260 364z"/><glyph glyph-name="uni0417" unicode="З" horiz-adv-x="492" d="M74 570l-24 64q78 51 178 51 89 0 143.5-44T426 520q0-61-39-105.5T287 356v-2q73-8 118.5-53T451 185q0-98-71-147T207-11Q103-11 31 33l23 68q70-41 151-41 73 0 114 35.5t41 92.5q0 69-53.5 99.5T177 318h-40v66h40q67 0 112.5 36t45.5 88q0 50-32.5 78T214 614q-71 0-140-44z"/><glyph glyph-name="uni0418" unicode="И" horiz-adv-x="658" d="M76 674h82V390q0-165-8-285l2-1q44 91 125 223l218 347h87V0h-82v287q0 177 8 274l-3 1q-38-85-125-227L169 0H76v674z"/><glyph glyph-name="uni0419" unicode="Й" horiz-adv-x="658" d="M76 674h82V390q0-165-8-285l2-1q44 91 125 223l218 347h87V0h-82v287q0 177 8 274l-3 1q-38-85-125-227L169 0H76v674zm125 141h67q4-29 16.5-45.5T329 753t44.5 16.5T390 815h67q-8-107-130-107-118 0-126 107z"/><glyph glyph-name="uni041A" unicode="К" horiz-adv-x="542" d="M76 674h86V375h27l231 299h105L270 365q77-10 118-53t71-121q6-16 17.5-49t18-51 17-44T533 0h-94q-20 38-61 159-26 75-67 112.5T190 309h-28V0H76v674z"/><glyph glyph-name="uni041B" unicode="Л" horiz-adv-x="594" d="M123 674h396V0h-88v601H208V397q0-67-2.5-113t-12-102-31-95.5T107 24Q57-8 4-8L-7 62q41 8 71 36 59 58 59 292v284z"/><glyph glyph-name="uni041C" unicode="М" horiz-adv-x="804" d="M661 0l-17 296q-11 207-10 291h-3q-34-115-85-256L427 4h-66L252 325q-53 159-78 262h-2q-3-132-13-298L141 0H58l47 674h111l115-326q46-136 68-227h3q22 89 71 227l120 326h111L746 0h-85z"/><glyph glyph-name="uni041D" unicode="Н" horiz-adv-x="652" d="M76 674h87V392h326v282h88V0h-88v316H163V0H76v674z"/><glyph glyph-name="uni041E" unicode="О" horiz-adv-x="689" d="M349 685q137 0 220-95t83-246q0-168-89-261.5T339-11q-134 0-218.5 95T36 331q0 159 88 256.5T349 685zm-4-71q-103 0-159.5-81.5T129 333q0-113 58-193t157-80q100 0 158 80t58 200q0 110-56.5 192T345 614z"/><glyph glyph-name="uni041F" unicode="П" horiz-adv-x="639" d="M76 674h487V0h-87v601H163V0H76v674z"/><glyph glyph-name="uni0420" unicode="Р" horiz-adv-x="532" d="M76 0v666q78 13 167 13 127 0 189-56 59-51 59-141t-52-144q-69-74-206-74-46 0-70 6V0H76zm87 603V341q27-7 72-7 80 0 124.5 37.5T404 478q0 65-42.5 98.5T245 610q-56 0-82-7z"/><glyph glyph-name="uni0421" unicode="С" horiz-adv-x="580" d="M529 91l18-69q-64-32-178-32-147 0-240 90T36 331q0 158 97.5 256T388 685q102 0 160-30l-21-71q-58 28-136 28-120 0-191.5-73.5T128 334q0-125 68.5-198T387 63q84 0 142 28z"/><glyph glyph-name="uni0422" unicode="Т" horiz-adv-x="497" d="M204 0v600H-1v74h499v-74H292V0h-88z"/><glyph glyph-name="uni0423" unicode="У" horiz-adv-x="521" d="M2 674h99l134-287q24-56 49-119h2q37 107 42 122l105 284h92L384 328Q304 134 258 72q-66-83-153-83-33 0-49 6l9 71q11-3 32-3 82 1 132 116 8 18-3 41z"/><glyph glyph-name="uni0424" unicode="Ф" horiz-adv-x="725" d="M322 701h83v-60q56-2 105-20.5t90-53.5 65-94.5T689 337t-24-134.5-65.5-93T509 57 404 36v-63h-84v63q-56 4-104.5 21t-90 50.5-65.5 91T36 333q0 79 26 139.5t69 95 91 52.5 100 21v60zm-1-603v480q-35-2-68-15.5T190.5 522t-47-74.5T126 337q0-112 56-171.5T321 98zm83 480V98q82 7 138.5 65.5T599 338q0 120-56 178t-139 62z"/><glyph glyph-name="uni0425" unicode="Х" horiz-adv-x="571" d="M546 0H445l-86 149q-52 84-78 133h-2q-30-61-73-134L125 0H25l206 341L33 674h101l89-158q42-73 62-114h3q24 50 61 114l92 158h100L336 346z"/><glyph glyph-name="uni0426" unicode="Ц" horiz-adv-x="652" d="M76 674h87V73h309v601h88V71l59-2-6-231h-69L538 0H76v674z"/><glyph glyph-name="uni0427" unicode="Ч" horiz-adv-x="597" d="M71 674h87V460q0-70 36-107t107-37q73 0 133 38v320h88V0h-88v286h-2q-73-42-162-42-37 0-69.5 9t-63 30T89 346 71 447v227z"/><glyph glyph-name="uni0428" unicode="Ш" horiz-adv-x="847" d="M76 674h86V73h219v601h86V73h218v601h87V0H76v674z"/><glyph glyph-name="uni0429" unicode="Щ" horiz-adv-x="864" d="M76 674h86V73h219v601h86V73h218v601h87V71l59-2-6-231h-69L751 0H76v674z"/><glyph glyph-name="uni042A" unicode="Ъ" horiz-adv-x="631" d="M-2 674h260V422q33 5 81 5 68 0 123.5-21t92.5-70 37-119q0-89-52-144Q465-6 305-6q-76 0-134 8v600H-2v72zm260-321V67q24-5 69-5 76 0 124.5 39T500 213q0 74-49.5 109.5T328 358q-35 0-70-5z"/><glyph glyph-name="uni042B" unicode="Ы" horiz-adv-x="746" d="M76 674h87V422q33 5 80 5 113 0 186.5-52.5T503 216q0-86-52-143Q376-6 211-6 134-6 76 2v672zm87-321V67q23-5 70-5 77 0 128 39t51 112-52.5 109T232 358q-41 0-69-5zm415 321h88V0h-88v674z"/><glyph glyph-name="uni042C" unicode="Ь" horiz-adv-x="545" d="M76 674h87V422q33 5 83 5 113 0 186.5-52.5T506 217q0-87-52-144Q379-6 212-6 134-6 76 2v672zm87-321V67q25-5 72-5 78 0 129 38.5T415 212q0 75-51 110.5T234 358q-34 0-71-5z"/><glyph glyph-name="uni042D" unicode="Э" horiz-adv-x="568" d="M123 310v70h314q-9 102-69.5 167.5T206 613q-67 0-144-34l-21 67q89 39 170 39 153 0 236.5-97.5T531 336q0-161-93-254T206-11Q106-11 30 24l19 69q67-31 145-31 109 0 174 70t70 178H123z"/><glyph glyph-name="uni042E" unicode="Ю" horiz-adv-x="867" d="M76 674h87V383h100q13 141 90 221.5T550 685q129 0 205-94.5T831 344q0-169-82-262T541-11q-123 0-199 87t-81 234h-98V0H76v674zM544 59q93 0 145.5 80.5T742 340q0 70-20.5 131T655 573.5 546 615q-95 0-147-82t-52-200q0-113 53.5-193.5T544 59z"/><glyph glyph-name="uni042F" unicode="Я" horiz-adv-x="543" d="M108 0H15q14 25 27 61 7 19 20 58.5t21.5 64 25 54.5 35.5 49q25 25 56 34v3q-65 11-107 55T51 490q0 86 62 137 64 52 193 52 93 0 161-14V0h-87v292h-64q-64 0-97-33-21-21-36.5-55.5t-31.5-87T130 49q-15-36-22-49zm272 359v245q-40 8-82 8-71 0-115-30.5T139 486q0-59 47-93.5T306 358q57 0 74 1z"/><glyph glyph-name="uni0430" unicode="а" horiz-adv-x="482" d="M421 0h-80l-7 61h-3q-22-31-60.5-51.5T183-11q-70 0-109 41t-39 98q0 88 75.5 134.5T326 308v10q0 112-110 112-70 0-126-36l-20 58q66 43 159 43 53 0 90.5-17t57-46.5 28-62T413 297V116q0-72 8-116zm-93 163v84q-205 4-205-109 0-41 23.5-62.5T206 54q44 0 74.5 23.5T323 135q5 15 5 28z"/><glyph glyph-name="uni0431" unicode="б" horiz-adv-x="528" d="M443 721l-4-73q-31-11-101-22-122-19-172-91-46-65-53-160h3q23 51 69 80t99 29q92 0 149-63t57-176q0-119-59-187.5T266-11q-61 0-106.5 27.5T89 91.5 52 194 40 313q0 170 75 268 34 49 84 75t124 39q84 13 120 26zm-42-483q0 44-11 82.5T347 389t-81 30q-75 0-109-66-24-43-24-103 0-44 13-86.5T191 88t77-33q67 0 100 54t33 129z"/><glyph glyph-name="uni0432" unicode="в" horiz-adv-x="500" d="M71 0v478q62 11 154 11 215 0 215-121 0-43-28.5-71T339 259v-2q56-8 89.5-38.5T462 137Q462-6 207-6 149-6 71 0zm84 424V281h66q56 0 94 18t38 58q0 71-130 71-26 0-68-4zm-1-201V58q33-4 71-4 25 0 48 3.5t47 12 38 26 14 42.5q0 48-41 66.5T218 223h-64z"/><glyph glyph-name="uni0433" unicode="г" horiz-adv-x="385" d="M71 484h297v-71H158V0H71v484z"/><glyph glyph-name="uni0434" unicode="д" horiz-adv-x="530" d="M125 484h323V66l50-1-5-219h-69L420 0H85l-4-154H12L8 65l41 1q31 46 48 99 28 88 28 193v126zm78-67v-80q0-96-25-180-13-44-39-90h223v350H203z"/><glyph glyph-name="uni0435" unicode="е" horiz-adv-x="501" d="M462 226H122q1-84 48-126t118-42q75 0 134 25l15-63q-66-30-161-30-111 0-174.5 66.5T38 234q0 112 62 186.5T265 495q56 0 97.5-22.5t62.5-59 30.5-73T465 267q0-14-3-41zm-339 63h257q1 54-27.5 98.5T258 432q-61 0-95-44t-40-99z"/><glyph glyph-name="uni0436" unicode="ж" horiz-adv-x="667" d="M13 484h101l160-211h18v211h84V273h17l160 211h101L463 264q101-11 145-128Q649 23 661 0h-88q-18 32-44 111-22 57-55 80t-83 23h-15V0h-84v214h-16q-53 0-85-23t-54-81Q103 22 91 0H6q8 15 53 135 45 118 146 129z"/><glyph glyph-name="uni0437" unicode="з" horiz-adv-x="431" d="M113 221v60h42q55 0 89.5 22.5T279 360q0 32-26 51t-68 19q-62 0-117-34l-22 54q72 44 161 44 40 0 75.5-11.5t62-41.5 26.5-74q0-42-32.5-71.5T262 257v-2q56-5 94-37.5t38-83.5q0-73-61.5-108.5T185-10Q98-10 28 29l23 59q61-33 128-33 54 0 86.5 23t32.5 60q0 83-141 83h-44z"/><glyph glyph-name="uni0438" unicode="и" horiz-adv-x="554" d="M71 484h83V280q0-108-5-194l3-1q44 89 78 149l151 250h103V0h-84v205q0 81 6 198h-3q-40-80-80-150-23-37-74-123.5T172 0H71v484z"/><glyph glyph-name="uni0439" unicode="й" horiz-adv-x="554" d="M71 484h83V280q0-108-5-194l3-1q44 89 78 149l151 250h103V0h-84v205q0 81 6 198h-3q-40-80-80-150-23-37-74-123.5T172 0H71v484zm76 197h64q2-34 18.5-55t45.5-21q59 0 68 76h63q-3-60-38.5-92T273 557q-62 0-92.5 34T147 681z"/><glyph glyph-name="uni043A" unicode="к" horiz-adv-x="479" d="M73 484h87V274h21l182 210h107L259 265q56-6 94.5-42.5T422 118q37-92 52-118h-92q-20 32-45 99-25 60-62.5 87T177 213h-17V0H73v484z"/><glyph glyph-name="uni043B" unicode="л" horiz-adv-x="507" d="M100 484h336V0h-87v415H183V289q0-112-16-175.5T107 21Q69-9 11-9L2 60q30 5 48 20 31 23 40.5 70t9.5 139v195z"/><glyph glyph-name="uni043C" unicode="м" horiz-adv-x="639" d="M42 0l36 484h108l88-244q42-125 44-133h2q14 47 57 166l78 211h109L598 0h-84l-11 231q-8 132-9 173h-3q-18-62-53-157L345 3h-64l-86 239q-28 85-48 161h-4q-3-86-8-174L123 0H42z"/><glyph glyph-name="uni043D" unicode="н" horiz-adv-x="546" d="M71 484h87V289h230v195h87V0h-87v219H158V0H71v484z"/><glyph glyph-name="uni043E" unicode="о" horiz-adv-x="549" d="M278 495q104 0 168.5-69T511 246q0-125-71.5-191T270-11q-100 0-166 68T38 238q0 118 68 187.5T278 495zm-2-66q-73 0-111-55.5T127 241q0-80 41.5-133T274 55q63 0 105 53.5T421 243q0 44-14 84.5t-48 71-83 30.5z"/><glyph glyph-name="uni043F" unicode="п" horiz-adv-x="541" d="M71 484h400V0h-88v414H158V0H71v484z"/><glyph glyph-name="uni0440" unicode="р" horiz-adv-x="569" d="M73-198v524q0 66-4 158h79l4-83h2q57 94 172 94 89 0 147-68.5T531 249q0-124-64-192T311-11q-48 0-87.5 20T162 65h-2v-263H73zm87 478v-83q0-14 4-36 12-46 48.5-74.5T296 58q69 0 108 51t39 136q0 76-38.5 128T299 425q-46 0-83-30t-50-79q-6-22-6-36z"/><glyph glyph-name="uni0441" unicode="с" horiz-adv-x="448" d="M403 84l15-66q-54-28-139-28-109 0-175 68T38 237q0 113 71.5 185T298 494q72 0 122-25l-20-68q-40 23-102 23-80 0-125.5-52T127 241q0-83 47.5-132T295 60q53 0 108 24z"/><glyph glyph-name="uni0442" unicode="т" horiz-adv-x="411" d="M11 484h389v-70H249V0h-87v414H11v70z"/><glyph glyph-name="uni0443" unicode="у" horiz-adv-x="471" d="M9 484h96l106-286q19-54 31-99h2q1 3 12.5 41.5T275 200l96 284h93L332 139Q283 10 246.5-58T166-164q-53-47-108-57l-22 74q42 13 77 43 47 37 74 98 7 16 7 21 0 7-6 23z"/><glyph glyph-name="uni0444" unicode="ф" horiz-adv-x="641" d="M281 710h80V493q109-8 176-74t67-176q0-114-68-179.5T361-9v-189h-80v188Q173-3 105.5 62.5T38 238q0 115 67.5 180.5T281 493v217zm0-659v382q-72-10-114-63t-42-129 42.5-128.5T281 51zm80 382V51q72 10 114 63t42 129-42 128-114 62z"/><glyph glyph-name="uni0445" unicode="х" horiz-adv-x="463" d="M16 484h98l69-104q20-30 49-79h3q11 19 48 80l68 103h95L281 250 451 0H351l-71 109q-20 30-52 84h-2q-9-16-51-84L105 0H8l172 247z"/><glyph glyph-name="uni0446" unicode="ц" horiz-adv-x="550" d="M71 484h87V69h223v415h87V66l50-1-5-219h-68L441 0H71v484z"/><glyph glyph-name="uni0447" unicode="ч" horiz-adv-x="515" d="M65 484h88V325q0-103 100-103 58 0 104 34v228h87V0h-87v194h-2q-55-37-131-37-73 0-116 39T65 315v169z"/><glyph glyph-name="uni0448" unicode="ш" horiz-adv-x="738" d="M71 484h86V69h169v415h86V69h169v415h87V0H71v484z"/><glyph glyph-name="uni0449" unicode="щ" horiz-adv-x="749" d="M71 484h86V69h169v415h86V69h169v415h87V66l49-1-5-219h-68L640 0H71v484z"/><glyph glyph-name="uni044A" unicode="ъ" horiz-adv-x="579" d="M14 484h231V321q31 4 83 4 55 0 101-14t80-52 34-97q0-69-51-112Q427-5 287-5q-65 0-130 7v413H14v69zm230-227V62q30-5 66-5 62 0 103.5 24.5T455 159q0 30-13 51t-35.5 32-47 15.5T306 262q-27 0-62-5z"/><glyph glyph-name="uni044B" unicode="ы" horiz-adv-x="665" d="M71 484h87V319q28 6 79 6 88 0 148.5-39.5T446 163q0-70-50-112Q330-5 201-5 134-5 71 2v482zm87-227V61q34-4 61-4 57 0 98.5 25.5T359 160q0 54-39.5 78T223 262q-35 0-65-5zm349 227h87V0h-87v484z"/><glyph glyph-name="uni044C" unicode="ь" horiz-adv-x="498" d="M71 484h87V320q25 5 80 5 44 0 81.5-7.5t71-25 52.5-51 19-79.5q0-68-51-111Q345-5 201-5 134-5 71 2v482zm87-227V61q34-4 65-4 60 0 105.5 24t45.5 79q0 30-14.5 51T321 242.5t-48.5 15T221 262q-30 0-63-5z"/><glyph glyph-name="uni044D" unicode="э" horiz-adv-x="464" d="M93 216v60h244q-6 67-48 109t-119 42q-58 0-116-27l-19 57q67 38 149 38 110 0 176-69t66-186q0-109-68.5-180T169-11Q92-11 28 22l17 63q60-26 121-26 73 0 118.5 42.5T336 216H93z"/><glyph glyph-name="uni044E" unicode="ю" horiz-adv-x="705" d="M71 484h86V280h83q11 97 70 156t145 59q95 0 153.5-68.5T667 246q0-115-62-186T449-11q-88 0-146 60.5T238 213h-81V0H71v484zM450 54q62 0 95.5 57T579 244q0 75-33 130t-94 55-95.5-56T322 239q0-76 34-130.5T450 54z"/><glyph glyph-name="uni044F" unicode="я" horiz-adv-x="496" d="M426 480V0h-87v203h-65q-51 0-81-27-13-10-23.5-28T153 115.5 138 76t-13-36q-7-18-20-40H11q17 25 30 55 5 10 18 46.5t26 60 32 39.5q26 23 55 28v3q-52 6-90 37t-38 83q0 69 64 105 57 33 162 33 72 0 156-10zm-87-217v163q-37 5-73 5-54 0-92.5-19T135 347q0-42 40.5-63t88.5-21h75z"/><glyph glyph-name="uni0451" unicode="ё" horiz-adv-x="501" d="M462 226H122q1-84 48-126t118-42q75 0 134 25l15-63q-66-30-161-30-111 0-174.5 66.5T38 234q0 112 62 186.5T265 495q56 0 97.5-22.5t62.5-59 30.5-73T465 267q0-14-3-41zm-339 63h257q1 54-27.5 98.5T258 432q-61 0-95-44t-40-99zm53 281q-22 0-36.5 15T125 621t15 36 36 15 35-14.5 14-36.5q0-21-14-36t-35-15zm185 0q-22 0-36 15t-14 36 14.5 36 35.5 15 35-14.5 14-36.5q0-21-14-36t-35-15z"/><glyph glyph-name="uni0452" unicode="ђ" horiz-adv-x="557" d="M7 625h82v85h88v-85h226v-63H177V420h2q62 69 147 69 89 0 138-78 53-76 53-212 0-204-99-287-57-49-125-56l-17 69q60 13 94 50 59 67 59 219 0 107-38 170-34 54-92 54-59 0-107-58-15-21-15-55V0H89v562H7v63z"/><glyph glyph-name="uni0453" unicode="ѓ" horiz-adv-x="385" d="M71 484h297v-71H158V0H71v484zm179 209h97L224 550h-62z"/><glyph glyph-name="uni0454" unicode="є" horiz-adv-x="460" d="M432 463l-21-63q-56 27-110 27-76 0-120.5-42.5T128 276h245v-60H129q5-72 51.5-115T299 58q57 0 115 25l18-62q-59-32-147-32-114 0-180.5 70T38 237q0 115 74 186.5T302 495q73 0 130-32z"/><glyph glyph-name="uni0455" unicode="ѕ" horiz-adv-x="396" d="M39 23l22 67q54-35 116-35 46 0 70 20t24 52q0 31-20.5 51T181 216Q53 262 53 353q0 60 45.5 101T220 495q68 0 119-30l-22-64q-44 28-99 28-38 0-59.5-19T137 363q0-29 20.5-46t71.5-36q65-25 96-59t31-87q0-65-48-105T175-10Q95-10 39 23z"/><glyph glyph-name="uni0456" unicode="і" horiz-adv-x="234" d="M161 0H73v484h88V0zm-44 675q24 0 39-15.5t15-39.5q1-23-14.5-38.5T115 566q-23 0-38 15.5T62 620t15.5 39 39.5 16z"/><glyph glyph-name="uni0457" unicode="ї" horiz-adv-x="234" d="M161 0H73v484h88V0zM25 570q-22 0-36.5 15T-26 621t15 36 36 15 35-14.5T74 621q0-21-14-36t-35-15zm185 0q-22 0-36 15t-14 36 14.5 36 36.5 15q20 0 34-14.5t14-36.5q0-21-13.5-36T210 570z"/><glyph glyph-name="uni0458" unicode="ј" horiz-adv-x="243" d="M-36-209l-9 69q67 5 96 37 19 22 26 59.5T84 79v405h88V45q0-140-58-199-27-27-69-41t-81-14zm165 884q24 0 38.5-15.5T182 620q1-23-14.5-38.5T127 566q-24 0-39 16t-15 38q0 24 15.5 39.5T129 675z"/><glyph glyph-name="uni0459" unicode="љ" horiz-adv-x="775" d="M105 484h332V319q33 5 79 5 43 0 80.5-8t71-26 52.5-51 19-78q0-68-49-110Q625-5 480-5q-66 0-131 7v413H187V289q0-108-18-173t-63-94Q70-8 11-8L2 61q32 6 48 19 32 23 43.5 72.5T105 289v195zm331-228V61q36-4 65-4 60 0 105 24t45 78q0 56-43.5 79.5T506 262q-28 0-70-6z"/><glyph glyph-name="uni045A" unicode="њ" horiz-adv-x="782" d="M71 484h87V304h204v180h88V315q25 5 82 5 54 0 100-14t80-51.5 34-94.5q0-69-49-111Q635-5 493-5q-59 0-131 6v235H158V0H71v484zm378-231V61q34-4 66-4 57 0 100.5 23.5T659 157q0 55-42 78t-102 23q-33 0-66-5z"/><glyph glyph-name="uni045B" unicode="ћ" horiz-adv-x="555" d="M485 0h-88v278q0 64-27 104t-85 40q-41 0-73-25t-45-63q-6-14-6-42V0H73v552H-4v55h77v103h88V607h193v-55H161V408h2q22 39 63 62 43 25 90 25 28 0 54.5-9.5t54-31 44-64.5T485 288V0z"/><glyph glyph-name="uni045C" unicode="ќ" horiz-adv-x="479" d="M73 484h87V274h21l182 210h107L259 265q56-6 94.5-42.5T422 118q37-92 52-118h-92q-20 32-45 99-25 60-62.5 87T177 213h-17V0H73v484zm205 209h97L253 550h-62z"/><glyph glyph-name="uni045E" unicode="ў" horiz-adv-x="471" d="M9 484h96l106-286q19-54 31-99h2q1 3 12.5 41.5T275 200l96 284h93L332 139Q283 10 246.5-58T166-164q-53-47-108-57l-22 74q42 13 77 43 47 37 74 98 7 16 7 21 0 7-6 23zm97 197h64q2-34 18-55t46-21q59 0 68 76h63q-4-60-39-92t-94-32q-62 0-92.5 34T106 681z"/><glyph glyph-name="uni045F" unicode="џ" horiz-adv-x="538" d="M71 484h87V69h222v415h88V0H311l-6-157h-70L228 0H71v484z"/><glyph glyph-name="uni0490" unicode="Ґ" horiz-adv-x="447" d="M76 674h292l16 122h64l-11-195H163V0H76v674z"/><glyph glyph-name="uni0491" unicode="ґ" horiz-adv-x="392" d="M71 484h229l12 109h63l-6-179H158V0H71v484z"/><glyph glyph-name="uni04D9" unicode="ә" horiz-adv-x="501" d="M78 400l-15 62q68 33 162 33 110 0 173.5-67.5T462 250q0-112-62-186T235-10q-56 0-97 22T76 70t-30.5 72.5T36 216q0 28 3 41h339q-1 86-46.5 127.5T214 426q-75 0-136-26zm299-206H120q0-23 5.5-45.5t18-45 38-36.5T242 53q62 0 95.5 43t39.5 98z"/><glyph glyph-name="Wgrave" unicode="Ẁ" horiz-adv-x="846" d="M277 0h-91L15 674h92l80-341q31-131 50-233h2q11 68 55 234l90 340h91l82-342q36-150 47-231h2q13 70 54 233l89 340h89L647 0h-91l-85 351q-32 133-44 220h-2q-19-104-52-220zm-4 827h106l93-116h-72z"/><glyph glyph-name="wgrave" unicode="ẁ" horiz-adv-x="736" d="M18 484h90l64-246q27-104 36-154h3q11 49 43 153l79 247h74l75-242q27-88 43-158h3q10 60 37 157l69 243h87L565 0h-80l-74 231q-29 91-43 159h-2q-14-69-44-160L244 0h-80zm219 209h97l87-143h-62z"/><glyph glyph-name="Wacute" unicode="Ẃ" horiz-adv-x="846" d="M277 0h-91L15 674h92l80-341q31-131 50-233h2q11 68 55 234l90 340h91l82-342q36-150 47-231h2q13 70 54 233l89 340h89L647 0h-91l-85 351q-32 133-44 220h-2q-19-104-52-220zm199 827h107L455 710h-71z"/><glyph glyph-name="wacute" unicode="ẃ" horiz-adv-x="736" d="M18 484h90l64-246q27-104 36-154h3q11 49 43 153l79 247h74l75-242q27-88 43-158h3q10 60 37 157l69 243h87L565 0h-80l-74 231q-29 91-43 159h-2q-14-69-44-160L244 0h-80zm393 209h97L386 550h-63z"/><glyph glyph-name="Wdieresis" unicode="Ẅ" horiz-adv-x="846" d="M277 0h-91L15 674h92l80-341q31-131 50-233h2q11 68 55 234l90 340h91l82-342q36-150 47-231h2q13 70 54 233l89 340h89L647 0h-91l-85 351q-32 133-44 220h-2q-19-104-52-220zm57 721q-21 0-35 15t-14 36 14.5 35.5T335 822q20 0 33.5-14.5T382 772q0-22-13.5-36.5T334 721zm185 0q-21 0-34.5 14.5T471 772q0 21 14 35.5t35 14.5 34.5-14.5T568 772q0-22-13.5-36.5T519 721z"/><glyph glyph-name="wdieresis" unicode="ẅ" horiz-adv-x="736" d="M18 484h90l64-246q27-104 36-154h3q11 49 43 153l79 247h74l75-242q27-88 43-158h3q10 60 37 157l69 243h87L565 0h-80l-74 231q-29 91-43 159h-2q-14-69-44-160L244 0h-80zm258 86q-22 0-36.5 15T225 621t15 36 36 15 35-14.5 14-36.5q0-21-14-36t-35-15zm185 0q-22 0-36 15t-14 36 14.5 36 35.5 15 35-14.5 14-36.5q0-21-14-36t-35-15z"/><glyph glyph-name="uni1EA0" unicode="Ạ" horiz-adv-x="612" d="M424 212H185L115 0H25l229 674h105L589 0h-93zm-221 68h203l-66 194q-14 41-35 123h-2q-17-70-34-122zm101-461q-21 0-35.5 15.5T254-130t14.5 35T304-80q20 0 34-15t14-35-14-35.5-34-15.5z"/><glyph glyph-name="uni1EA1" unicode="ạ" horiz-adv-x="482" d="M421 0h-80l-7 61h-3q-22-31-60.5-51.5T183-11q-70 0-109 41t-39 98q0 88 75.5 134.5T326 308v10q0 112-110 112-70 0-126-36l-20 58q66 43 159 43 53 0 90.5-17t57-46.5 28-62T413 297V116q0-72 8-116zm-93 163v84q-205 4-205-109 0-41 23.5-62.5T206 54q44 0 74.5 23.5T323 135q5 15 5 28zM242-80q21 0 35-15t14-36q0-22-14-37t-37-15q-21 0-35 15.5T191-131t14.5 36T242-80z"/><glyph glyph-name="uni1EA2" unicode="Ả" horiz-adv-x="612" d="M424 212H185L115 0H25l229 674h105L589 0h-93zm-221 68h203l-66 194q-14 41-35 123h-2q-17-70-34-122zm127 429l-46 13q7 20 29.5 43.5T336 806q0 14-9.5 22.5T303 837q-25 0-50-35l-33 20q34 67 99 67 35 0 59-20.5t24-51.5q0-22-11.5-38.5t-31-34.5-29.5-35z"/><glyph glyph-name="uni1EA3" unicode="ả" horiz-adv-x="482" d="M421 0h-80l-7 61h-3q-22-31-60.5-51.5T183-11q-70 0-109 41t-39 98q0 88 75.5 134.5T326 308v10q0 112-110 112-70 0-126-36l-20 58q66 43 159 43 53 0 90.5-17t57-46.5 28-62T413 297V116q0-72 8-116zm-93 163v84q-205 4-205-109 0-41 23.5-62.5T206 54q44 0 74.5 23.5T323 135q5 15 5 28zm-73 367l-47 12q6 21 31.5 48t25.5 46q0 15-9.5 24.5T231 670q-27 0-48-35l-34 20q32 67 97 67 36 0 60.5-21t24.5-54q0-25-13.5-43.5T284 566t-29-36z"/><glyph glyph-name="uni1EA4" unicode="Ấ" horiz-adv-x="612" d="M424 212H185L115 0H25l229 674h105L589 0h-93zm-221 68h203l-66 194q-14 41-35 123h-2q-17-70-34-122zm77 544h63l95-114h-70l-55 70h-2l-56-70h-67zm194 76h89L442 795h-52z"/><glyph glyph-name="uni1EA5" unicode="ấ" horiz-adv-x="482" d="M421 0h-80l-7 61h-3q-22-31-60.5-51.5T183-11q-70 0-109 41t-39 98q0 88 75.5 134.5T326 308v10q0 112-110 112-70 0-126-36l-20 58q66 43 159 43 53 0 90.5-17t57-46.5 28-62T413 297V116q0-72 8-116zm-93 163v84q-205 4-205-109 0-41 23.5-62.5T206 54q44 0 74.5 23.5T323 135q5 15 5 28zM201 693h65l86-143h-67l-50 94h-3l-51-94h-64zm192 82h82L375 643h-51z"/><glyph glyph-name="uni1EA6" unicode="Ầ" horiz-adv-x="612" d="M424 212H185L115 0H25l229 674h105L589 0h-93zm-221 68h203l-66 194q-14 41-35 123h-2q-17-70-34-122zm133 601h91l73-105h-54zm-62-57h63l95-114h-70l-56 70h-2l-55-70h-68z"/><glyph glyph-name="uni1EA7" unicode="ầ" horiz-adv-x="482" d="M421 0h-80l-7 61h-3q-22-31-60.5-51.5T183-11q-70 0-109 41t-39 98q0 88 75.5 134.5T326 308v10q0 112-110 112-70 0-126-36l-20 58q66 43 159 43 53 0 90.5-17t57-46.5 28-62T413 297V116q0-72 8-116zm-93 163v84q-205 4-205-109 0-41 23.5-62.5T206 54q44 0 74.5 23.5T323 135q5 15 5 28zm-56 612h80l64-132h-51zm-72-82h65l86-143h-67l-51 94h-2l-51-94h-64z"/><glyph glyph-name="uni1EA8" unicode="Ẩ" horiz-adv-x="612" d="M424 212H185L115 0H25l229 674h105L589 0h-93zm-221 68h203l-66 194q-14 41-35 123h-2q-17-70-34-122zm74 544h63l94-114h-70l-55 70h-2l-55-70h-68zm182-70l-42 12q7 19 29.5 42.5T469 849q0 14-10 23.5t-24 9.5q-25 0-49-37l-33 19q33 64 96 64 34 0 56.5-20t22.5-50q0-28-30.5-58.5T459 754z"/><glyph glyph-name="uni1EA9" unicode="ẩ" horiz-adv-x="482" d="M421 0h-80l-7 61h-3q-22-31-60.5-51.5T183-11q-70 0-109 41t-39 98q0 88 75.5 134.5T326 308v10q0 112-110 112-70 0-126-36l-20 58q66 43 159 43 53 0 90.5-17t57-46.5 28-62T413 297V116q0-72 8-116zm-93 163v84q-205 4-205-109 0-41 23.5-62.5T206 54q44 0 74.5 23.5T323 135q5 15 5 28zM198 693h65l86-143h-67l-51 94h-2l-51-94h-64zm180-58l-44 11q8 20 29.5 43t21.5 39q0 14-9.5 23.5T352 761q-25 0-48-36l-32 20q32 64 95 64 34 0 57-21t23-50q0-22-11-37t-29.5-32-28.5-34z"/><glyph glyph-name="uni1EAA" unicode="Ẫ" horiz-adv-x="612" d="M424 212H185L115 0H25l229 674h105L589 0h-93zm-221 68h203l-66 194q-14 41-35 123h-2q-17-70-34-122zm70 544h67l105-114h-74l-63 69h-2l-64-69h-71zm-38 13h-48q-1 43 17.5 69t50.5 26q23 0 62-22 32-16 42-16 24 0 28 41h46q3-96-68-96-22 0-60 21-31 17-44 17-23 0-26-40z"/><glyph glyph-name="uni1EAB" unicode="ẫ" horiz-adv-x="482" d="M421 0h-80l-7 61h-3q-22-31-60.5-51.5T183-11q-70 0-109 41t-39 98q0 88 75.5 134.5T326 308v10q0 112-110 112-70 0-126-36l-20 58q66 43 159 43 53 0 90.5-17t57-46.5 28-62T413 297V116q0-72 8-116zm-93 163v84q-205 4-205-109 0-41 23.5-62.5T206 54q44 0 74.5 23.5T323 135q5 15 5 28zM208 668h65l91-118h-69l-54 73h-2l-53-73h-67zm-39 12h-48q-1 43 17.5 69t49.5 26q20 0 62-22 28-16 43-16 25 0 27 40h47q2-96-68-96-21 0-61 21-31 17-43 17-24 0-26-39z"/><glyph glyph-name="uni1EAC" unicode="Ậ" horiz-adv-x="612" d="M424 212H185L115 0H25l229 674h105L589 0h-93zm-221 68h203l-66 194q-14 41-35 123h-2q-17-70-34-122zm73 544h67l105-114h-74l-63 69h-2l-64-69h-71zm27-1005q-21 0-35.5 15.5T253-130t15 35 36 15q20 0 34-15t14-35-14.5-35.5T303-181z"/><glyph glyph-name="uni1EAD" unicode="ậ" horiz-adv-x="482" d="M421 0h-80l-7 61h-3q-22-31-60.5-51.5T183-11q-70 0-109 41t-39 98q0 88 75.5 134.5T326 308v10q0 112-110 112-70 0-126-36l-20 58q66 43 159 43 53 0 90.5-17t57-46.5 28-62T413 297V116q0-72 8-116zm-93 163v84q-205 4-205-109 0-41 23.5-62.5T206 54q44 0 74.5 23.5T323 135q5 15 5 28zM205 693h61l96-143h-67l-58 95h-2l-58-95h-66zm37-773q21 0 35-15t14-36q0-22-14-37t-37-15q-21 0-35 15.5T191-131t14.5 36T242-80z"/><glyph glyph-name="uni1EAE" unicode="Ắ" horiz-adv-x="612" d="M424 212H185L115 0H25l229 674h105L589 0h-93zm-221 68h203l-66 194q-14 41-35 123h-2q-17-70-34-122zm-18 522h48q14-49 77-49t78 49h47q-6-43-38.5-73T309 699t-86.5 29-37.5 74zm162 94h93L328 791h-55z"/><glyph glyph-name="uni1EAF" unicode="ắ" horiz-adv-x="482" d="M421 0h-80l-7 61h-3q-22-31-60.5-51.5T183-11q-70 0-109 41t-39 98q0 88 75.5 134.5T326 308v10q0 112-110 112-70 0-126-36l-20 58q66 43 159 43 53 0 90.5-17t57-46.5 28-62T413 297V116q0-72 8-116zm-93 163v84q-205 4-205-109 0-41 23.5-62.5T206 54q44 0 74.5 23.5T323 135q5 15 5 28zm-48 610h84L253 642h-53zM108 657h50q5-30 26-49.5t53-19.5q36 0 57 20.5t23 48.5h49q-1-56-36.5-90T237 533q-62 0-95 36t-34 88z"/><glyph glyph-name="uni1EB0" unicode="Ằ" horiz-adv-x="612" d="M424 212H185L115 0H25l229 674h105L589 0h-93zm-221 68h203l-66 194q-14 41-35 123h-2q-17-70-34-122zm-18 616h92l74-105h-54zm1-94h48q12-49 76-49t79 49h46q-5-43-37.5-73T309 699q-55 0-86 29t-37 74z"/><glyph glyph-name="uni1EB1" unicode="ằ" horiz-adv-x="482" d="M421 0h-80l-7 61h-3q-22-31-60.5-51.5T183-11q-70 0-109 41t-39 98q0 88 75.5 134.5T326 308v10q0 112-110 112-70 0-126-36l-20 58q66 43 159 43 53 0 90.5-17t57-46.5 28-62T413 297V116q0-72 8-116zm-93 163v84q-205 4-205-109 0-41 23.5-62.5T206 54q44 0 74.5 23.5T323 135q5 15 5 28zM113 773h84l80-131h-54zm-5-116h50q5-30 26-49.5t53-19.5q36 0 57 20.5t23 48.5h50q-1-56-37-90t-93-34q-62 0-95 36t-34 88z"/><glyph glyph-name="uni1EB2" unicode="Ẳ" horiz-adv-x="612" d="M424 212H185L115 0H25l229 674h105L589 0h-93zm-221 68h203l-66 194q-14 41-35 123h-2q-17-70-34-122zm121 498l-43 12q7 19 29 42.5t22 39.5q0 14-9.5 23t-23.5 9q-25 0-48-35l-32 19q31 64 95 64 34 0 56.5-20.5T393 882q0-22-11-37t-29.5-32.5T324 778zm-138 24h48q12-49 77-49 63 0 78 49h47q-6-43-38.5-73T309 699q-55 0-86 29t-37 74z"/><glyph glyph-name="uni1EB3" unicode="ẳ" horiz-adv-x="482" d="M421 0h-80l-7 61h-3q-22-31-60.5-51.5T183-11q-70 0-109 41t-39 98q0 88 75.5 134.5T326 308v10q0 112-110 112-70 0-126-36l-20 58q66 43 159 43 53 0 90.5-17t57-46.5 28-62T413 297V116q0-72 8-116zm-93 163v84q-205 4-205-109 0-41 23.5-62.5T206 54q44 0 74.5 23.5T323 135q5 15 5 28zm-79 471l-44 11q8 20 29.5 43t21.5 39q0 14-10 23.5t-24 9.5q-24 0-47-36l-33 20q34 64 96 64 34 0 57-21t23-50q0-22-11-37t-29.5-32-28.5-34zm-143 23h50q5-30 26.5-49.5T235 588q36 0 57 20.5t23 48.5h50q-1-56-37-90t-93-34q-62 0-95 36t-34 88z"/><glyph glyph-name="uni1EB4" unicode="Ẵ" horiz-adv-x="612" d="M424 212H185L115 0H25l229 674h105L589 0h-93zm-221 68h203l-66 194q-14 41-35 123h-2q-17-70-34-122zm29 556h-49q2 38 19.5 62t48.5 24q22 0 62-21 28-16 42-16 13 0 19.5 8.5T383 925h46q3-96-68-96-22 0-60 21-31 17-44 17-19 0-25-31zm-52-34h47q14-49 77-49t78 49h47q-5-43-37.5-73T303 699q-55 0-86 29t-37 74z"/><glyph glyph-name="uni1EB5" unicode="ẵ" horiz-adv-x="482" d="M421 0h-80l-7 61h-3q-22-31-60.5-51.5T183-11q-70 0-109 41t-39 98q0 88 75.5 134.5T326 308v10q0 112-110 112-70 0-126-36l-20 58q66 43 159 43 53 0 90.5-17t57-46.5 28-62T413 297V116q0-72 8-116zm-93 163v84q-205 4-205-109 0-41 23.5-62.5T206 54q44 0 74.5 23.5T323 135q5 15 5 28zM168 698h-50q2 38 19.5 62t48.5 24q20 0 62-22 32-16 43-16 24 0 27 41h47q2-96-68-96-24 0-61 21-32 16-44 16-20 0-24-30zm-55-41h50q5-30 25.5-50t51.5-20q35 0 55.5 21t22.5 49h49q-1-56-35.5-90T240 533q-62 0-94 36t-33 88z"/><glyph glyph-name="uni1EB6" unicode="Ặ" horiz-adv-x="612" d="M424 212H185L115 0H25l229 674h105L589 0h-93zm-221 68h203l-66 194q-14 41-35 123h-2q-17-70-34-122zm-21 552h52q11-49 72-49 62 0 73 49h50q-1-47-32-76.5T305 726t-91.5 29-31.5 77zM305-181q-21 0-35.5 15.5T255-130t14.5 35T305-80q20 0 34-15t14-35-14-35.5-34-15.5z"/><glyph glyph-name="uni1EB7" unicode="ặ" horiz-adv-x="482" d="M421 0h-80l-7 61h-3q-22-31-60.5-51.5T183-11q-70 0-109 41t-39 98q0 88 75.5 134.5T326 308v10q0 112-110 112-70 0-126-36l-20 58q66 43 159 43 53 0 90.5-17t57-46.5 28-62T413 297V116q0-72 8-116zm-93 163v84q-205 4-205-109 0-41 23.5-62.5T206 54q44 0 74.5 23.5T323 135q5 15 5 28zM117 682h52q5-31 23.5-50t48.5-19q33 0 51 20.5t21 48.5h52q0-56-34-90t-90-34q-62 0-93 36t-31 88zM242-80q21 0 35-15t14-36q0-22-14-37t-37-15q-21 0-35 15.5T191-131t14.5 36T242-80z"/><glyph glyph-name="uni1EB8" unicode="Ẹ" horiz-adv-x="492" d="M425 388v-72H163V73h292V0H76v674h364v-73H163V388h262zM268-181q-21 0-35.5 15.5T218-130t15 35 36 15q20 0 34-15t14-35-14.5-35.5T268-181z"/><glyph glyph-name="uni1EB9" unicode="ẹ" horiz-adv-x="501" d="M462 226H122q1-84 48-126t118-42q75 0 134 25l15-63q-66-30-161-30-111 0-174.5 66.5T38 234q0 112 62 186.5T265 495q56 0 97.5-22.5t62.5-59 30.5-73T465 267q0-14-3-41zm-339 63h257q1 54-27.5 98.5T258 432q-61 0-95-44t-40-99zM251-80q21 0 35-15t14-36q0-22-14-37t-37-15q-21 0-35 15.5T200-131t14.5 36T251-80z"/><glyph glyph-name="uni1EBA" unicode="Ẻ" horiz-adv-x="492" d="M425 388v-72H163V73h292V0H76v674h364v-73H163V388h262zM290 709l-46 13q7 20 29.5 43.5T296 806q0 14-9.5 22.5T263 837q-25 0-50-35l-33 20q34 67 99 67 35 0 59-20.5t24-51.5q0-22-11.5-38.5t-31-34.5-29.5-35z"/><glyph glyph-name="uni1EBB" unicode="ẻ" horiz-adv-x="501" d="M462 226H122q1-84 48-126t118-42q75 0 134 25l15-63q-66-30-161-30-111 0-174.5 66.5T38 234q0 112 62 186.5T265 495q56 0 97.5-22.5t62.5-59 30.5-73T465 267q0-14-3-41zm-339 63h257q1 54-27.5 98.5T258 432q-61 0-95-44t-40-99zm141 241l-47 12q6 21 31.5 48t25.5 46q0 15-9.5 24.5T240 670q-27 0-48-35l-34 20q32 67 97 67 36 0 60.5-21t24.5-54q0-25-13.5-43.5T293 566t-29-36z"/><glyph glyph-name="uni1EBC" unicode="Ẽ" horiz-adv-x="492" d="M425 388v-72H163V73h292V0H76v674h364v-73H163V388h262zM189 715h-47q-2 46 16.5 74t51.5 28q21 0 59-20 32-18 48-18 12 0 18.5 8t8.5 31h46q2-97-67-97-23 0-61 19-36 19-47 19-23 0-26-44z"/><glyph glyph-name="uni1EBD" unicode="ẽ" horiz-adv-x="501" d="M462 226H122q1-84 48-126t118-42q75 0 134 25l15-63q-66-30-161-30-111 0-174.5 66.5T38 234q0 112 62 186.5T265 495q56 0 97.5-22.5t62.5-59 30.5-73T465 267q0-14-3-41zm-339 63h257q1 54-27.5 98.5T258 432q-61 0-95-44t-40-99zm52 278h-48q-1 48 17 76t51 28q23 0 62-22 30-17 42-17 25 0 28 43h47q2-101-69-101-23 0-61 20-30 18-43 18-23 0-26-45z"/><glyph glyph-name="uni1EBE" unicode="Ế" horiz-adv-x="492" d="M425 388v-72H163V73h292V0H76v674h364v-73H163V388h262zM230 824h63l95-114h-70l-55 70h-2l-56-70h-67zm194 76h89L392 795h-52z"/><glyph glyph-name="uni1EBF" unicode="ế" horiz-adv-x="501" d="M462 226H122q1-84 48-126t118-42q75 0 134 25l15-63q-66-30-161-30-111 0-174.5 66.5T38 234q0 112 62 186.5T265 495q56 0 97.5-22.5t62.5-59 30.5-73T465 267q0-14-3-41zm-339 63h257q1 54-27.5 98.5T258 432q-61 0-95-44t-40-99zm111 404h64l87-143h-67l-51 94h-2l-51-94h-64zm191 82h82l-99-132h-51z"/><glyph glyph-name="uni1EC0" unicode="Ề" horiz-adv-x="492" d="M425 388v-72H163V73h292V0H76v674h364v-73H163V388h262zM289 881h91l72-105h-54zm-62-57h63l94-114h-70l-55 70h-2l-55-70h-68z"/><glyph glyph-name="uni1EC1" unicode="ề" horiz-adv-x="501" d="M462 226H122q1-84 48-126t118-42q75 0 134 25l15-63q-66-30-161-30-111 0-174.5 66.5T38 234q0 112 62 186.5T265 495q56 0 97.5-22.5t62.5-59 30.5-73T465 267q0-14-3-41zm-339 63h257q1 54-27.5 98.5T258 432q-61 0-95-44t-40-99zm180 486h80l63-132h-51zm-72-82h64l86-143h-66l-51 94h-2l-51-94h-64z"/><glyph glyph-name="uni1EC2" unicode="Ể" horiz-adv-x="492" d="M425 388v-72H163V73h292V0H76v674h364v-73H163V388h262zM226 824h63l95-114h-70l-55 70h-2l-55-70h-68zm182-70l-42 12q7 19 29.5 42.5T418 849q0 14-9.5 23.5T384 882q-23 0-49-37l-32 19q33 64 95 64 34 0 56.5-20t22.5-50q0-28-30.5-59T408 754z"/><glyph glyph-name="uni1EC3" unicode="ể" horiz-adv-x="501" d="M462 226H122q1-84 48-126t118-42q75 0 134 25l15-63q-66-30-161-30-111 0-174.5 66.5T38 234q0 112 62 186.5T265 495q56 0 97.5-22.5t62.5-59 30.5-73T465 267q0-14-3-41zm-339 63h257q1 54-27.5 98.5T258 432q-61 0-95-44t-40-99zm103 404h64l86-143h-66l-51 94h-2l-51-94h-64zm180-58l-44 11q8 20 29.5 43t21.5 39q0 14-10 23.5t-24 9.5q-24 0-47-36l-33 20q34 64 96 64 33 0 56-20.5t23-50.5q0-22-11-37t-29-32-28-34z"/><glyph glyph-name="uni1EC4" unicode="Ễ" horiz-adv-x="492" d="M425 388v-72H163V73h292V0H76v674h364v-73H163V388h262zM235 824h67l105-114h-74l-64 69h-2l-63-69h-72zm-38 13h-48q-1 43 17.5 69t50.5 26q21 0 62-22 32-16 42-16 24 0 27 41h47q2-96-68-96-21 0-61 21-31 17-43 17-23 0-26-40z"/><glyph glyph-name="uni1EC5" unicode="ễ" horiz-adv-x="501" d="M462 226H122q1-84 48-126t118-42q75 0 134 25l15-63q-66-30-161-30-111 0-174.5 66.5T38 234q0 112 62 186.5T265 495q56 0 97.5-22.5t62.5-59 30.5-73T465 267q0-14-3-41zm-339 63h257q1 54-27.5 98.5T258 432q-61 0-95-44t-40-99zm105 379h64l91-118h-69l-53 73h-2l-54-73h-67zm-40 12h-48q-1 43 17.5 69t50.5 26q20 0 62-22 28-16 42-16 13 0 19.5 8.5T340 777h46q3-96-68-96-22 0-60 21-31 17-44 17-23 0-26-39z"/><glyph glyph-name="uni1EC6" unicode="Ệ" horiz-adv-x="492" d="M425 388v-72H163V73h292V0H76v674h364v-73H163V388h262zM223 824h67l105-114h-74l-64 69h-2l-63-69h-72zm45-1005q-21 0-35.5 15.5T218-130t15 35 36 15q20 0 34-15t14-35-14.5-35.5T268-181z"/><glyph glyph-name="uni1EC7" unicode="ệ" horiz-adv-x="501" d="M462 226H122q1-84 48-126t118-42q75 0 134 25l15-63q-66-30-161-30-111 0-174.5 66.5T38 234q0 112 62 186.5T265 495q56 0 97.5-22.5t62.5-59 30.5-73T465 267q0-14-3-41zm-339 63h257q1 54-27.5 98.5T258 432q-61 0-95-44t-40-99zm96 404h61l96-143h-68l-58 95h-2l-57-95h-66zm32-773q21 0 35-15t14-36q0-22-14-37t-37-15q-21 0-35 15.5T200-131t14.5 36T251-80z"/><glyph glyph-name="uni1EC8" unicode="Ỉ" horiz-adv-x="239" d="M76 674h87V0H76v674zm68 35l-47 13q8 20 30.5 43.5T150 806q0 14-9.5 22.5T116 837q-26 0-49-35l-34 20q35 67 99 67 35 0 59-20.5t24-51.5q0-30-32-62.5T144 709z"/><glyph glyph-name="uni1EC9" unicode="ỉ" horiz-adv-x="234" d="M161 0H73v484h88V0zm-30 530l-47 12q6 21 31.5 48t25.5 46q0 15-9.5 24.5T107 670q-27 0-48-35l-34 20q32 67 97 67 36 0 60.5-21t24.5-54q0-25-13.5-43.5T160 566t-29-36z"/><glyph glyph-name="uni1ECA" unicode="Ị" horiz-adv-x="239" d="M76 674h87V0H76v674zm45-855q-21 0-35.5 15.5T71-130t14.5 35T121-80q20 0 34-15t14-35-14-35.5-34-15.5z"/><glyph glyph-name="uni1ECB" unicode="ị" horiz-adv-x="234" d="M161 0H73v484h88V0zm-44 675q24 0 39-15.5t15-39.5q1-23-14.5-38.5T115 566q-23 0-38 15.5T62 620t15.5 39 39.5 16zm1-755q21 0 35-15t14-36q0-22-14-37t-37-15q-21 0-35 15.5T67-131t14.5 36T118-80z"/><glyph glyph-name="uni1ECC" unicode="Ọ" horiz-adv-x="689" d="M349 685q137 0 220-95t83-246q0-168-89-261.5T339-11q-134 0-218.5 95T36 331q0 159 88 256.5T349 685zm-4-71q-103 0-159.5-81.5T129 333q0-113 58-193t157-80q100 0 158 80t58 200q0 110-56.5 192T345 614zm0-795q-21 0-35.5 15.5T295-130t15 35 36 15q20 0 34-15t14-35-14.5-35.5T345-181z"/><glyph glyph-name="uni1ECD" unicode="ọ" horiz-adv-x="549" d="M278 495q104 0 168.5-69T511 246q0-125-71.5-191T270-11q-100 0-166 68T38 238q0 118 68 187.5T278 495zm-2-66q-73 0-111-55.5T127 241q0-80 41.5-133T274 55q63 0 105 53.5T421 243q0 44-14 84.5t-48 71-83 30.5zm-1-509q21 0 35-15t14-36q0-22-14-37t-37-15q-21 0-35 15.5T224-131t14.5 36T275-80z"/><glyph glyph-name="uni1ECE" unicode="Ỏ" horiz-adv-x="689" d="M349 685q137 0 220-95t83-246q0-168-89-261.5T339-11q-134 0-218.5 95T36 331q0 159 88 256.5T349 685zm-4-71q-103 0-159.5-81.5T129 333q0-113 58-193t157-80q100 0 158 80t58 200q0 110-56.5 192T345 614zm23 95l-47 13q8 20 30.5 43.5T374 806q0 14-9.5 22.5T340 837q-26 0-49-35l-34 20q35 67 99 67 35 0 59-20.5t24-51.5q0-30-32-62.5T368 709z"/><glyph glyph-name="uni1ECF" unicode="ỏ" horiz-adv-x="549" d="M278 495q104 0 168.5-69T511 246q0-125-71.5-191T270-11q-100 0-166 68T38 238q0 118 68 187.5T278 495zm-2-66q-73 0-111-55.5T127 241q0-80 41.5-133T274 55q63 0 105 53.5T421 243q0 44-14 84.5t-48 71-83 30.5zm12 101l-47 12q6 21 31.5 48t25.5 46q0 15-9.5 24.5T264 670q-27 0-48-35l-34 20q32 67 97 67 36 0 60.5-21t24.5-54q0-25-13.5-43.5T317 566t-29-36z"/><glyph glyph-name="uni1ED0" unicode="Ố" horiz-adv-x="689" d="M349 685q137 0 220-95t83-246q0-168-89-261.5T339-11q-134 0-218.5 95T36 331q0 159 88 256.5T349 685zm-4-71q-103 0-159.5-81.5T129 333q0-113 58-193t157-80q100 0 158 80t58 200q0 110-56.5 192T345 614zm-24 210h63l95-114h-70l-56 70h-2l-55-70h-67zm194 76h89L483 795h-52z"/><glyph glyph-name="uni1ED1" unicode="ố" horiz-adv-x="549" d="M278 495q104 0 168.5-69T511 246q0-125-71.5-191T270-11q-100 0-166 68T38 238q0 118 68 187.5T278 495zm-2-66q-73 0-111-55.5T127 241q0-80 41.5-133T274 55q63 0 105 53.5T421 243q0 44-14 84.5t-48 71-83 30.5zm-30 264h65l86-143h-67l-51 94h-2l-51-94h-64zm191 82h82l-99-132h-51z"/><glyph glyph-name="uni1ED2" unicode="Ồ" horiz-adv-x="689" d="M349 685q137 0 220-95t83-246q0-168-89-261.5T339-11q-134 0-218.5 95T36 331q0 159 88 256.5T349 685zm-4-71q-103 0-159.5-81.5T129 333q0-113 58-193t157-80q100 0 158 80t58 200q0 110-56.5 192T345 614zm34 267h91l72-105h-53zm-62-57h63l94-114h-69l-56 70h-2l-55-70h-68z"/><glyph glyph-name="uni1ED3" unicode="ồ" horiz-adv-x="549" d="M278 495q104 0 168.5-69T511 246q0-125-71.5-191T270-11q-100 0-166 68T38 238q0 118 68 187.5T278 495zm-2-66q-73 0-111-55.5T127 241q0-80 41.5-133T274 55q63 0 105 53.5T421 243q0 44-14 84.5t-48 71-83 30.5zm42 346h80l64-132h-51zm-71-82h64l86-143h-67l-50 94h-3l-50-94h-65z"/><glyph glyph-name="uni1ED4" unicode="Ổ" horiz-adv-x="689" d="M349 685q137 0 220-95t83-246q0-168-89-261.5T339-11q-134 0-218.5 95T36 331q0 159 88 256.5T349 685zm-4-71q-103 0-159.5-81.5T129 333q0-113 58-193t157-80q100 0 158 80t58 200q0 110-56.5 192T345 614zm-27 210h63l94-114h-70l-55 70h-2l-55-70h-68zm182-70l-42 12q7 19 29.5 42.5T510 849q0 14-10 23.5t-24 9.5q-25 0-49-37l-32 19q31 64 95 64 34 0 56.5-20t22.5-50q0-28-30.5-58.5T500 754z"/><glyph glyph-name="uni1ED5" unicode="ổ" horiz-adv-x="549" d="M278 495q104 0 168.5-69T511 246q0-125-71.5-191T270-11q-100 0-166 68T38 238q0 118 68 187.5T278 495zm-2-66q-73 0-111-55.5T127 241q0-80 41.5-133T274 55q63 0 105 53.5T421 243q0 44-14 84.5t-48 71-83 30.5zm-35 264h65l86-143h-67l-51 94h-2l-51-94h-64zm180-58l-44 11q8 20 29.5 43t21.5 39q0 14-10 23.5t-24 9.5q-24 0-47-36l-32 20q32 64 95 64 34 0 57-21t23-50q0-22-11-37t-29.5-32-28.5-34z"/><glyph glyph-name="uni1ED6" unicode="Ỗ" horiz-adv-x="689" d="M349 685q137 0 220-95t83-246q0-168-89-261.5T339-11q-134 0-218.5 95T36 331q0 159 88 256.5T349 685zm-4-71q-103 0-159.5-81.5T129 333q0-113 58-193t157-80q100 0 158 80t58 200q0 110-56.5 192T345 614zm-34 210h67l104-114h-73l-64 69h-2l-64-69h-71zm-38 13h-49q-1 43 18 69t50 26q23 0 62-22 32-16 43-16 24 0 27 41h47q2-96-68-96-21 0-61 21-31 17-44 17-23 0-25-40z"/><glyph glyph-name="uni1ED7" unicode="ỗ" horiz-adv-x="549" d="M278 495q104 0 168.5-69T511 246q0-125-71.5-191T270-11q-100 0-166 68T38 238q0 118 68 187.5T278 495zm-2-66q-73 0-111-55.5T127 241q0-80 41.5-133T274 55q63 0 105 53.5T421 243q0 44-14 84.5t-48 71-83 30.5zm-35 239h65l91-118h-69l-54 73h-2l-53-73h-67zm-39 12h-48q-1 43 17.5 69t49.5 26q20 0 62-22 28-16 43-16 24 0 27 40h47q2-96-68-96-21 0-61 21-31 17-43 17-24 0-26-39z"/><glyph glyph-name="uni1ED8" unicode="Ộ" horiz-adv-x="689" d="M349 685q137 0 220-95t83-246q0-168-89-261.5T339-11q-134 0-218.5 95T36 331q0 159 88 256.5T349 685zm-4-71q-103 0-159.5-81.5T129 333q0-113 58-193t157-80q100 0 158 80t58 200q0 110-56.5 192T345 614zm-35 213h67l105-114h-74l-64 69h-2l-63-69h-72zm35-1008q-21 0-35.5 15.5T295-130t15 35 36 15q20 0 34-15t14-35-14.5-35.5T345-181z"/><glyph glyph-name="uni1ED9" unicode="ộ" horiz-adv-x="549" d="M278 495q104 0 168.5-69T511 246q0-125-71.5-191T270-11q-100 0-166 68T38 238q0 118 68 187.5T278 495zm-2-66q-73 0-111-55.5T127 241q0-80 41.5-133T274 55q63 0 105 53.5T421 243q0 44-14 84.5t-48 71-83 30.5zm-33 264h61l96-143h-68l-58 95h-2l-58-95h-65zm32-773q21 0 35-15t14-36q0-22-14-37t-37-15q-21 0-35 15.5T224-131t14.5 36T275-80z"/><glyph glyph-name="uni1EDA" unicode="Ớ" horiz-adv-x="689" d="M344 60q100 0 158 80t58 200q0 110-56.5 192T345 614q-103 0-160-82t-56-199q-1-112 57.5-192.5T344 60zm249 680l68 13q18-40 18-82 0-44-26.5-69T574 582q78-90 78-238 0-168-89-261.5T339-11q-134 0-218.5 95T36 331q0 159 88 256.5T349 685q55 0 104-17 10-3 33.5-13t43.5-16.5 34-6.5q45 0 45 44 0 32-16 64zm-201 87h107L371 710h-71z"/><glyph glyph-name="uni1EDB" unicode="ớ" horiz-adv-x="553" d="M276 429q-73 0-111-55.5T127 241q0-80 41.5-133T274 55q63 0 105 53.5T421 243q0 44-14 84.5t-48 71-83 30.5zm194 125l67 12q17-36 17-73 0-42-24-65.5T461 406q50-63 50-160 0-125-71.5-191T270-11q-100 0-166 68T38 238q0 118 68 187.5T278 495q41 0 83-14 8-2 24.5-9.5t31.5-12 29-4.5q40 0 40 40 0 29-16 59zM319 693h97L293 550h-62z"/><glyph glyph-name="uni1EDC" unicode="Ờ" horiz-adv-x="689" d="M344 60q100 0 158 80t58 200q0 110-56.5 192T345 614q-103 0-160-82t-56-199q-1-112 57.5-192.5T344 60zm249 680l68 13q18-40 18-82 0-44-26.5-69T574 582q78-90 78-238 0-168-89-261.5T339-11q-134 0-218.5 95T36 331q0 159 88 256.5T349 685q55 0 104-17 10-3 33.5-13t43.5-16.5 34-6.5q45 0 45 44 0 32-16 64zm-387 87h107l92-116h-71z"/><glyph glyph-name="uni1EDD" unicode="ờ" horiz-adv-x="553" d="M276 429q-73 0-111-55.5T127 241q0-80 41.5-133T274 55q63 0 105 53.5T421 243q0 44-14 84.5t-48 71-83 30.5zm194 125l67 12q17-36 17-73 0-42-24-65.5T461 406q50-63 50-160 0-125-71.5-191T270-11q-100 0-166 68T38 238q0 118 68 187.5T278 495q41 0 83-14 8-2 24.5-9.5t31.5-12 29-4.5q40 0 40 40 0 29-16 59zM147 693h96l88-143h-62z"/><glyph glyph-name="uni1EDE" unicode="Ở" horiz-adv-x="689" d="M344 60q100 0 158 80t58 200q0 110-56.5 192T345 614q-103 0-160-82t-56-199q-1-112 57.5-192.5T344 60zm249 680l68 13q18-40 18-82 0-44-26.5-69T574 582q78-90 78-238 0-168-89-261.5T339-11q-134 0-218.5 95T36 331q0 159 88 256.5T349 685q55 0 104-17 10-3 33.5-13t43.5-16.5 34-6.5q45 0 45 44 0 32-16 64zm-225-31l-47 13q8 20 30.5 43.5T374 806q0 14-9.5 22.5T340 837q-26 0-49-35l-34 20q35 67 99 67 35 0 59-20.5t24-51.5q0-30-32-62.5T368 709z"/><glyph glyph-name="uni1EDF" unicode="ở" horiz-adv-x="553" d="M276 429q-73 0-111-55.5T127 241q0-80 41.5-133T274 55q63 0 105 53.5T421 243q0 44-14 84.5t-48 71-83 30.5zm194 125l67 12q17-36 17-73 0-42-24-65.5T461 406q50-63 50-160 0-125-71.5-191T270-11q-100 0-166 68T38 238q0 118 68 187.5T278 495q41 0 83-14 8-2 24.5-9.5t31.5-12 29-4.5q40 0 40 40 0 29-16 59zm-182-24l-47 12q6 21 31.5 48t25.5 46q0 15-9.5 24.5T264 670q-27 0-48-35l-34 20q32 67 97 67 36 0 60.5-21t24.5-54q0-25-13.5-43.5T317 566t-29-36z"/><glyph glyph-name="uni1EE0" unicode="Ỡ" horiz-adv-x="689" d="M344 60q100 0 158 80t58 200q0 110-56.5 192T345 614q-103 0-160-82t-56-199q-1-112 57.5-192.5T344 60zm249 680l68 13q18-40 18-82 0-44-26.5-69T574 582q78-90 78-238 0-168-89-261.5T339-11q-134 0-218.5 95T36 331q0 159 88 256.5T349 685q55 0 104-17 10-3 33.5-13t43.5-16.5 34-6.5q45 0 45 44 0 32-16 64zm-319-25h-47q-2 46 17 74t51 28q21 0 59-20 32-18 48-18 13 0 19.5 8t7.5 31h47q2-97-68-97-23 0-61 19-36 19-47 19-21 0-26-44z"/><glyph glyph-name="uni1EE1" unicode="ỡ" horiz-adv-x="553" d="M276 429q-73 0-111-55.5T127 241q0-80 41.5-133T274 55q63 0 105 53.5T421 243q0 44-14 84.5t-48 71-83 30.5zm194 125l67 12q17-36 17-73 0-42-24-65.5T461 406q50-63 50-160 0-125-71.5-191T270-11q-100 0-166 68T38 238q0 118 68 187.5T278 495q41 0 83-14 8-2 24.5-9.5t31.5-12 29-4.5q40 0 40 40 0 29-16 59zm-271 13h-48q-1 48 17 76t51 28q23 0 62-22 30-17 42-17 13 0 19.5 9.5T351 675h46q3-101-68-101-23 0-61 20-30 18-43 18-23 0-26-45z"/><glyph glyph-name="uni1EE2" unicode="Ợ" horiz-adv-x="689" d="M344 60q100 0 158 80t58 200q0 110-56.5 192T345 614q-103 0-160-82t-56-199q-1-112 57.5-192.5T344 60zm249 680l68 13q18-40 18-82 0-44-26.5-69T574 582q78-90 78-238 0-168-89-261.5T339-11q-134 0-218.5 95T36 331q0 159 88 256.5T349 685q55 0 104-17 10-3 33.5-13t43.5-16.5 34-6.5q45 0 45 44 0 32-16 64zM345-181q-21 0-35.5 15.5T295-130t15 35 36 15q20 0 34-15t14-35-14.5-35.5T345-181z"/><glyph glyph-name="uni1EE3" unicode="ợ" horiz-adv-x="553" d="M276 429q-73 0-111-55.5T127 241q0-80 41.5-133T274 55q63 0 105 53.5T421 243q0 44-14 84.5t-48 71-83 30.5zm194 125l67 12q17-36 17-73 0-42-24-65.5T461 406q50-63 50-160 0-125-71.5-191T270-11q-100 0-166 68T38 238q0 118 68 187.5T278 495q41 0 83-14 8-2 24.5-9.5t31.5-12 29-4.5q40 0 40 40 0 29-16 59zM276-80q20 0 34.5-15t14.5-36q0-22-14-37t-37-15q-21 0-35.5 15.5T224-131t15 36 37 15z"/><glyph glyph-name="uni1EE4" unicode="Ụ" horiz-adv-x="647" d="M75 674h88V275q0-108 43-161.5T320 60q78 0 121 53t43 162v399h88V281q0-148-69.5-220T317-11q-111 0-176.5 69.5T75 277v397zm249-855q-21 0-35.5 15.5T274-130t15 35 36 15q20 0 34-15t14-35-14.5-35.5T324-181z"/><glyph glyph-name="uni1EE5" unicode="ụ" horiz-adv-x="551" d="M478 484V132q0-81 4-132h-78l-5 79h-2q-21-36-61.5-63T237-11q-31 0-58.5 9.5t-53 32-40.5 66T70 201v283h88V216q0-154 108-154 41 0 72 23.5t44 56.5q8 21 8 45v297h88zM276-80q21 0 35-15t14-36q0-22-14-37t-37-15q-21 0-35 15.5T225-131t14.5 36T276-80z"/><glyph glyph-name="uni1EE6" unicode="Ủ" horiz-adv-x="647" d="M75 674h88V275q0-108 43-161.5T320 60q78 0 121 53t43 162v399h88V281q0-148-69.5-220T317-11q-111 0-176.5 69.5T75 277v397zm272 35l-46 13q7 20 29.5 43.5T353 806q0 14-9 22.5t-24 8.5q-25 0-50-35l-33 20q33 67 99 67 35 0 59-20.5t24-51.5q0-22-11.5-38.5t-31-34.5-29.5-35z"/><glyph glyph-name="uni1EE7" unicode="ủ" horiz-adv-x="551" d="M478 484V132q0-81 4-132h-78l-5 79h-2q-21-36-61.5-63T237-11q-31 0-58.5 9.5t-53 32-40.5 66T70 201v283h88V216q0-154 108-154 41 0 72 23.5t44 56.5q8 21 8 45v297h88zm-189 46l-47 12q6 21 31.5 48t25.5 46q0 15-9.5 24.5T265 670q-27 0-48-35l-34 20q32 67 98 67 36 0 60-21t24-54q0-25-13.5-43.5T318 566t-29-36z"/><glyph glyph-name="uni1EE8" unicode="Ứ" horiz-adv-x="677" d="M593 770l67 12q17-37 17-75t-23-61-67-24l-15-1V281q0-148-69.5-220T317-11q-111 0-176.5 69.5T75 277v397h88V275q0-108 43-161.5T320 60q78 0 121 53t43 162v399h79q25 0 35.5 9t10.5 29q0 29-16 58zm-226 57h106L346 710h-72z"/><glyph glyph-name="uni1EE9" unicode="ứ" horiz-adv-x="551" d="M489 581l67 11q18-33 18-72 0-37-24-59.5T489 436l-11-1V132q0-81 4-132h-78l-5 79h-2q-21-36-61.5-63T237-11q-31 0-58.5 9.5t-53 32-40.5 66T70 201v283h88V216q0-154 108-154 41 0 72 23.5t44 56.5q8 21 8 45v297h69q47 0 47 39 0 27-17 58zM331 693h97L306 550h-63z"/><glyph glyph-name="uni1EEA" unicode="Ừ" horiz-adv-x="677" d="M593 770l67 12q17-37 17-75t-23-61-67-24l-15-1V281q0-148-69.5-220T317-11q-111 0-176.5 69.5T75 277v397h88V275q0-108 43-161.5T320 60q78 0 121 53t43 162v399h79q25 0 35.5 9t10.5 29q0 29-16 58zm-410 57h107l92-116h-71z"/><glyph glyph-name="uni1EEB" unicode="ừ" horiz-adv-x="551" d="M489 581l67 11q18-33 18-72 0-37-24-59.5T489 436l-11-1V132q0-81 4-132h-78l-5 79h-2q-21-36-61.5-63T237-11q-31 0-58.5 9.5t-53 32-40.5 66T70 201v283h88V216q0-154 108-154 41 0 72 23.5t44 56.5q8 21 8 45v297h69q47 0 47 39 0 27-17 58zM146 693h96l88-143h-62z"/><glyph glyph-name="uni1EEC" unicode="Ử" horiz-adv-x="677" d="M593 770l67 12q17-37 17-75t-23-61-67-24l-15-1V281q0-148-69.5-220T317-11q-111 0-176.5 69.5T75 277v397h88V275q0-108 43-161.5T320 60q78 0 121 53t43 162v399h79q25 0 35.5 9t10.5 29q0 29-16 58zm-230-61l-47 13q7 20 29.5 43.5T368 806q0 14-9 22.5t-24 8.5q-26 0-49-35l-34 20q34 67 99 67 35 0 59-20.5t24-51.5q0-30-32-62.5T363 709z"/><glyph glyph-name="uni1EED" unicode="ử" horiz-adv-x="551" d="M489 581l67 11q18-33 18-72 0-37-24-59.5T489 436l-11-1V132q0-81 4-132h-78l-5 79h-2q-21-36-61.5-63T237-11q-31 0-58.5 9.5t-53 32-40.5 66T70 201v283h88V216q0-154 108-154 41 0 72 23.5t44 56.5q8 21 8 45v297h69q47 0 47 39 0 27-17 58zm-192-51l-47 12q6 21 31.5 48t25.5 46q0 15-9.5 24.5T273 670q-27 0-48-35l-34 20q32 67 98 67 36 0 60-21t24-54q0-25-13.5-43.5T326 566t-29-36z"/><glyph glyph-name="uni1EEE" unicode="Ữ" horiz-adv-x="677" d="M593 770l67 12q17-37 17-75t-23-61-67-24l-15-1V281q0-148-69.5-220T317-11q-111 0-176.5 69.5T75 277v397h88V275q0-108 43-161.5T320 60q78 0 121 53t43 162v399h79q25 0 35.5 9t10.5 29q0 29-16 58zm-332-55h-47q-1 46 17.5 74t50.5 28q22 0 60-20 32-18 47-18 13 0 19.5 8t8.5 31h46q2-97-67-97-24 0-62 19-36 19-47 19-21 0-26-44z"/><glyph glyph-name="uni1EEF" unicode="ữ" horiz-adv-x="551" d="M489 581l67 11q18-33 18-72 0-37-24-59.5T489 436l-11-1V132q0-81 4-132h-78l-5 79h-2q-21-36-61.5-63T237-11q-31 0-58.5 9.5t-53 32-40.5 66T70 201v283h88V216q0-154 108-154 41 0 72 23.5t44 56.5q8 21 8 45v297h69q47 0 47 39 0 27-17 58zm-288-14h-48q-1 48 17.5 76t50.5 28q22 0 63-22 30-17 42-17 24 0 27 43h47q2-101-68-101-24 0-62 20-30 18-43 18-23 0-26-45z"/><glyph glyph-name="uni1EF0" unicode="Ự" horiz-adv-x="677" d="M593 770l67 12q17-37 17-75t-23-61-67-24l-15-1V281q0-148-69.5-220T317-11q-111 0-176.5 69.5T75 277v397h88V275q0-108 43-161.5T320 60q78 0 121 53t43 162v399h79q25 0 35.5 9t10.5 29q0 29-16 58zM327-181q-21 0-35.5 15.5T277-130t14.5 35T327-80q20 0 34-15t14-35-14-35.5-34-15.5z"/><glyph glyph-name="uni1EF1" unicode="ự" horiz-adv-x="551" d="M489 581l67 11q18-33 18-72 0-37-24-59.5T489 436l-11-1V132q0-81 4-132h-78l-5 79h-2q-21-36-61.5-63T237-11q-31 0-58.5 9.5t-53 32-40.5 66T70 201v283h88V216q0-154 108-154 41 0 72 23.5t44 56.5q8 21 8 45v297h69q47 0 47 39 0 27-17 58zM273-80q21 0 35-15t14-36q0-22-14-37t-36-15q-21 0-35.5 15.5T222-131t14.5 36T273-80z"/><glyph glyph-name="Ygrave" unicode="Ỳ" horiz-adv-x="541" d="M314 0h-88v286L13 674h99l95-186q40-78 67-139h2q16 37 68 139l97 186h99L314 287V0zM131 820h107l92-116h-71z"/><glyph glyph-name="ygrave" unicode="ỳ" horiz-adv-x="471" d="M9 484h96l106-286q19-54 31-99h2q1 3 12.5 41.5T275 200l96 284h93L332 139Q283 10 246.5-58T166-164q-53-47-108-57l-22 74q42 13 77 43 47 37 74 98 7 16 7 21 0 7-6 23zm99 209h96l88-143h-62z"/><glyph glyph-name="uni1EF4" unicode="Ỵ" horiz-adv-x="541" d="M314 0h-88v286L13 674h99l95-186q40-78 67-139h2q16 37 68 139l97 186h99L314 287V0zm-43-181q-21 0-35.5 15.5T221-130t15 35 36 15q20 0 34-15t14-35-14.5-35.5T271-181z"/><glyph glyph-name="uni1EF5" unicode="ỵ" horiz-adv-x="471" d="M9 484h96l106-286q19-54 31-99h2q1 3 12.5 41.5T275 200l96 284h93L332 139Q283 10 246.5-58T166-164q-53-47-108-57l-22 74q42 13 77 43 47 37 74 98 7 16 7 21 0 7-6 23zM326-80q21 0 35-15t14-36q0-22-14-37t-36-15q-21 0-35.5 15.5T275-131t15 36 36 15z"/><glyph glyph-name="uni1EF6" unicode="Ỷ" horiz-adv-x="541" d="M314 0h-88v286L13 674h99l95-186q40-78 67-139h2q16 37 68 139l97 186h99L314 287V0zm-20 709l-46 13q7 20 29.5 43.5T300 806q0 14-9 22.5t-24 8.5q-25 0-50-35l-33 20q34 67 99 67 35 0 59-20.5t24-51.5q0-22-11.5-38.5t-31-34.5-29.5-35z"/><glyph glyph-name="uni1EF7" unicode="ỷ" horiz-adv-x="471" d="M9 484h96l106-286q19-54 31-99h2q1 3 12.5 41.5T275 200l96 284h93L332 139Q283 10 246.5-58T166-164q-53-47-108-57l-22 74q42 13 77 43 47 37 74 98 7 16 7 21 0 7-6 23zm250 46l-48 12q6 21 31.5 48t25.5 46q0 15-9.5 24.5T235 670q-28 0-49-35l-34 20q34 67 98 67 36 0 60-21t24-54q0-25-13-43.5T288 566t-29-36z"/><glyph glyph-name="uni1EF8" unicode="Ỹ" horiz-adv-x="541" d="M314 0h-88v286L13 674h99l95-186q40-78 67-139h2q16 37 68 139l97 186h99L314 287V0zM193 715h-47q-1 46 17.5 74t50.5 28q22 0 60-20 32-18 48-18 12 0 18.5 8t8.5 31h46q2-97-67-97-25 0-61 19t-48 19q-21 0-26-44z"/><glyph glyph-name="uni1EF9" unicode="ỹ" horiz-adv-x="471" d="M9 484h96l106-286q19-54 31-99h2q1 3 12.5 41.5T275 200l96 284h93L332 139Q283 10 246.5-58T166-164q-53-47-108-57l-22 74q42 13 77 43 47 37 74 98 7 16 7 21 0 7-6 23zm157 83h-48q-1 48 17 76t51 28q23 0 62-22 30-17 42-17 25 0 28 43h47q2-101-69-101-23 0-61 20-30 18-43 18-23 0-26-45z"/><glyph glyph-name="uni2010" unicode="‐" horiz-adv-x="307" d="M30 303h247v-65H30v65z"/><glyph glyph-name="endash" unicode="–" horiz-adv-x="500" d="M30 284h440v-60H30v60z"/><glyph glyph-name="emdash" unicode="—" horiz-adv-x="1000" d="M30 284h940v-60H30v60z"/><glyph glyph-name="quoteleft" unicode="‘" horiz-adv-x="207" d="M125 451l-90-10q17 62 44.5 132.5T128 679l56 6q-41-114-59-234z"/><glyph glyph-name="quoteright" unicode="’" horiz-adv-x="207" d="M93 676l91 9q-17-62-45-132T90 448l-56-7q39 105 59 235z"/><glyph glyph-name="quotesinglbase" unicode="‚" horiz-adv-x="207" d="M76-111l-55-7Q62-2 79 116l91 10Q153 64 125-6T76-111z"/><glyph glyph-name="quotedblleft" unicode="“" horiz-adv-x="354" d="M125 451l-91-10q17 63 45 133t49 105l56 6q-39-106-59-234zm148 0l-90-10q16 61 44 131.5T276 679l56 6q-39-106-59-234z"/><glyph glyph-name="quotedblright" unicode="”" horiz-adv-x="354" d="M93 676l90 9q-17-62-44.5-132T90 448l-56-7q40 114 59 235zm148 0l90 9q-17-62-44.5-132T238 448l-56-7q39 105 59 235z"/><glyph glyph-name="quotedblbase" unicode="„" horiz-adv-x="356" d="M76-111l-56-7Q59-14 79 116l90 10Q153 66 125-4.5T76-111zm148 0l-56-7q39 104 59 234l91 10Q301 64 273-6t-49-105z"/><glyph glyph-name="dagger" unicode="†" horiz-adv-x="500" d="M209 674h82l-8-211 174 7v-72l-174 8 8-456h-82l8 456-174-8v72l174-7z"/><glyph glyph-name="daggerdbl" unicode="‡" horiz-adv-x="500" d="M210 674h81l-7-201 173 8v-72l-173 7V212l173 8v-72l-173 7 7-205h-81l5 205-172-7v72l173-8v204l-173-7v72l173-8z"/><glyph glyph-name="bullet" unicode="•" horiz-adv-x="282" d="M141 157q-44 0-74.5 30T36 261q-1 44 30 74.5t75 30.5 74.5-30.5T246 262q0-44-30.5-74.5T141 157z"/><glyph glyph-name="ellipsis" unicode="…" horiz-adv-x="1000" d="M167-11q-26 0-43 18t-16 45q0 28 16.5 45.5T167 115q27 0 43-17.5T226 52q0-27-16-45t-43-18zm333 0q-26 0-43 18t-16 45q0 28 17 45.5t43 17.5 42-17.5T560 52q0-27-16.5-45T500-11zm333 0q-26 0-42.5 18T774 52q0 28 17 45.5t43 17.5 42.5-17.5T893 52 876.5 6.5 833-11z"/><glyph glyph-name="perthousand" unicode="‰" horiz-adv-x="1156" d="M611 392q69 0 109.5-51T761 198q0-98-44.5-151.5T606-7q-64 0-107.5 51T454 188q0 95 45 149.5T611 392zm-3-53q-40 0-62.5-41.5T523 192q-1-64 22-105t63-41q42 0 63 40t21 108q0 64-20.5 104.5T608 339zm367 53q69 0 110-51t41-143q0-98-44.5-151.5T970-7q-64 0-107.5 51T818 188q0 95 45 149.5T975 392zm-2-53q-40 0-62.5-41.5T888 192q-2-64 21-105t63-41q42 0 63 40t21 108q0 65-20 105t-63 40zM187 661q69 0 110-51t41-143q0-98-44.5-151.5T182 262q-64 0-107.5 51T30 458q0 94 45 148.5T187 661zm-3-53q-40 0-62-41.5T100 461q-2-64 21-105t63-41q42 0 63 40t21 108q0 64-20.5 104.5T184 608zm48-619h-56l382 672h56z"/><glyph glyph-name="guilsinglleft" unicode="‹" horiz-adv-x="255" d="M232 436L98 252 232 68h-71L29 252l132 184h71z"/><glyph glyph-name="guilsinglright" unicode="›" horiz-adv-x="255" d="M157 252L23 436h70l134-184L94 68H23z"/><glyph glyph-name="fraction" unicode="⁄" horiz-adv-x="121" d="M-101-11h-56l379 672h57z"/><glyph glyph-name="zero.superior" unicode="⁰" horiz-adv-x="336" d="M166 438q-66 0-104.5 53T23 637t39.5 147T170 838t105.5-53T313 640q0-94-37.5-148T166 438zm1 50q37 0 56.5 39.5T243 639q0 148-75 148-34 0-54.5-39.5T93 639q0-71 20-111t54-40z"/><glyph glyph-name="four.superior" unicode="⁴" horiz-adv-x="347" d="M272 443h-67v102H16v41l177 249h79V595h56v-50h-56V443zm-67 152v117q0 6 3 63l-2 1q-16-32-34-59L85 596l1-1h119z"/><glyph glyph-name="five.superior" unicode="⁵" horiz-adv-x="308" d="M268 833v-56H113l-13-84q8 1 31 1 56 0 92-22 56-31 56-100 0-58-43.5-96T123 438q-62 0-104 23l14 50q40-21 89-21 36 0 62 21t26 55q0 79-113 79-27 0-57-4l26 192h202z"/><glyph glyph-name="six.superior" unicode="⁶" horiz-adv-x="332" d="M267 837v-53q-33 0-40-1-58-8-92.5-42T92 660h1q36 42 94 42 54 0 88-34.5t34-91.5q0-58-39.5-98T171 438q-69 0-108.5 46T23 605q0 109 68 172 49 49 136 58 32 2 40 2zm-97-349q31 0 51 24t20 60q0 37-20.5 59.5T165 654q-22 0-41.5-12.5T94 609q-5-10-5-22 0-43 21.5-71t59.5-28z"/><glyph glyph-name="seven.superior" unicode="⁷" horiz-adv-x="294" d="M19 833h263v-43L111 443H40l171 334v1H19v55z"/><glyph glyph-name="eight.superior" unicode="⁸" horiz-adv-x="328" d="M167 838q58 0 90-28.5t32-68.5q0-61-63-89v-2q78-29 78-98 0-51-39.5-82.5T162 438q-64 0-101 31t-37 74q0 69 76 101v2q-62 28-62 86 0 47 37 76.5t92 29.5zm-3-353q32 0 52 17.5t20 44.5q0 56-79 76-31-8-48.5-27T91 551q0-27 20-46.5t53-19.5zm1 306q-30 0-47-16t-17-39q0-48 70-66 55 18 55 64 0 23-15.5 40T165 791z"/><glyph glyph-name="nine.superior" unicode="⁹" horiz-adv-x="327" d="M58 438v53q20-2 42 1 50 5 84 33 41 35 51 92l-1 1q-34-39-90-39-53 0-87 33.5T23 699q0 57 40 98t101 41q66 0 103-46t37-120q0-116-69-180-48-46-131-52-23-4-46-2zm103 349q-31 0-51-24t-20-61q0-32 19.5-53.5T161 627q48 0 71 37 4 7 4 20 0 46-18.5 74.5T161 787z"/><glyph glyph-name="parenleft.superior" unicode="⁽" horiz-adv-x="180" d="M117 868h51Q96 765 96 625q0-132 72-241h-51Q40 489 40 625q0 138 77 243z"/><glyph glyph-name="parenright.superior" unicode="⁾" horiz-adv-x="180" d="M64 384H13q72 109 72 242 0 135-72 242h51q77-103 77-242 0-135-77-242z"/><glyph glyph-name="zero.inferior" unicode="₀" horiz-adv-x="336" d="M166-152q-66 0-104.5 53T23 47t39.5 147T170 248t105.5-52.5T313 51q0-94-37.5-148.5T166-152zm1 51q37 0 56.5 39.5T243 50q0 147-75 147-34 0-54.5-39T93 50q0-72 20-111.5t54-39.5z"/><glyph glyph-name="one.inferior" unicode="₁" horiz-adv-x="244" d="M177-147h-70v329h-2l-72-35-11 52 94 44h61v-390z"/><glyph glyph-name="two.inferior" unicode="₂" horiz-adv-x="311" d="M12-147v37l63 59q68 61 97 99t29 74q0 30-19.5 50T125 192q-39 0-84-31l-21 45q49 42 122 42 66 0 99.5-34t33.5-79q0-51-32-94T142-62l-31-28v-2h171v-55H12z"/><glyph glyph-name="three.inferior" unicode="₃" horiz-adv-x="305" d="M45 170l-17 47q48 31 115 31 61 0 91.5-27t30.5-67q0-30-20.5-54T188 64v-2q42-6 67.5-32.5T281-35q0-49-42.5-83T123-152 9-124l18 50q38-26 93-26 43 0 65.5 20.5T207-33q0 35-31 52.5T101 37H74v46h28q33 0 61.5 16t29.5 48q0 20-16 34.5T130 196q-47 0-85-26z"/><glyph glyph-name="four.inferior" unicode="₄" horiz-adv-x="347" d="M272-147h-67v103H16v40l177 249h79V5h56v-49h-56v-103zM205 5v118q0 3 3 63h-2q-19-37-34-59L85 7l1-2h119z"/><glyph glyph-name="five.inferior" unicode="₅" horiz-adv-x="308" d="M268 243v-55H113l-13-85q16 2 31 2 56 0 92-22 56-31 56-101 0-58-43.5-96T123-152q-64 0-104 24l14 50q37-22 89-22 35 0 61.5 21T210-24q0 80-113 80-10 0-20.5-.5t-21-2T40 52l26 191h202z"/><glyph glyph-name="six.inferior" unicode="₆" horiz-adv-x="332" d="M267 247v-52q-26 0-40-2-58-8-92.5-41.5T92 71h1q35 41 94 41 54 0 88-34.5T309-13q0-58-39.5-98.5T171-152q-69 0-108.5 46.5T23 15q0 110 68 173 51 49 136 57 27 3 40 2zm-97-348q31 0 51 24t20 60q0 37-20.5 59T165 64q-23 0-42-12.5T94 19Q89 9 89-2q0-43 21.5-71t59.5-28z"/><glyph glyph-name="seven.inferior" unicode="₇" horiz-adv-x="294" d="M19 243h263v-43L111-147H40l171 334v1H19v55z"/><glyph glyph-name="eight.inferior" unicode="₈" horiz-adv-x="328" d="M167 248q58 0 90-28.5t32-68.5q0-60-63-88v-2q78-29 78-98 0-51-39.5-83T162-152q-64 0-101 31T24-46q0 68 76 100v2q-62 30-62 87 0 46 37 75.5t92 29.5zm-3-353q32 0 52 18t20 45q0 54-79 76-66-19-66-72 0-28 20-47.5t53-19.5zm1 307q-30 0-47-16t-17-40q0-47 70-65 55 16 55 63 0 23-15.5 40.5T165 202z"/><glyph glyph-name="nine.inferior" unicode="₉" horiz-adv-x="327" d="M58-151v52q11-1 42 1 51 7 84 34 41 33 51 92h-1q-33-38-90-38-53 0-87 33.5T23 110q0 57 40 97.5T164 248q66 0 103-45.5T304 83q0-116-69-180-48-45-131-53-25-3-46-1zm103 349q-31 0-51-24.5T90 113q0-32 19.5-53.5T161 38q48 0 71 36 4 7 4 20 0 46-18.5 75T161 198z"/><glyph glyph-name="parenleft.inferior" unicode="₍" horiz-adv-x="180" d="M117 278h51Q96 175 96 35q0-133 72-240h-51Q40-102 40 35q0 140 77 243z"/><glyph glyph-name="parenright.inferior" unicode="₎" horiz-adv-x="180" d="M64-205H13Q85-98 85 37q0 134-72 241h51q77-103 77-241 0-137-77-242z"/><glyph glyph-name="dong" unicode="₫" horiz-adv-x="513" d="M89 98h337V39H89v59zm257 566h76v-68h62v-49h-62V250q0-54 3-89h-69l-3 57h-2q-38-65-125-65-68 0-113 48.5T68 327q-1 84 47.5 134.5T236 512q73 0 108-51h2v86H219v49h127v68zm0-353v47q0 16-3 26-8 29-33.5 49T250 453q-48 0-75.5-34T147 331q0-51 26-84.5t73-33.5q34 0 61 19.5t35 51.5q4 16 4 27z"/><glyph glyph-name="Euro" unicode="€" horiz-adv-x="513" d="M479 94l17-63q-62-42-149-42-126 0-203 89-59 65-72 172H10v49h57v15q0 17 2 45H10v50h66q18 103 82 169 80 83 198 83 73 0 133-32l-20-66q-47 28-112 28-80 0-132-55-44-43-60-127h279v-50H156q-2-26-2-42v-18h290v-49H161q11-83 55-131 55-58 141-58 64 0 122 33z"/><glyph glyph-name="uni20B9" unicode="₹" horiz-adv-x="513" d="M480 659v-50H315q48-38 56-102h109v-50H372q-8-77-65.5-122.5T153 286q90-93 247-286h-96Q160 174 59 281v62h55q79 0 123.5 30.5T287 457H59v50h225q-21 87-154 87H59v65h421z"/><glyph glyph-name="uni20BA" unicode="₺" horiz-adv-x="513" d="M390 307h79q-1-144-79.5-227T147-3q-25 0-48 3v296l-88-32v53l88 32v51l-88-32v53l88 32v197h83V483l176 63v-53l-176-63v-51l175 63v-53l-175-63V69q90 4 147.5 62T390 307z"/><glyph glyph-name="uni2113" unicode="ℓ" horiz-adv-x="504" d="M194 515V296q131 134 131 265 0 97-61 97-30 0-50-36t-20-107zm238-364l43-40Q406-10 275-10q-74 0-114.5 44T112 152v8q-19-13-55-37l-26 49q54 38 79 59v267q0 113 43.5 168T268 721q59 0 94.5-43.5T398 563q0-90-51-175T194 212v-14q3-135 102-135 77 0 136 88z"/><glyph glyph-name="uni2116" unicode="№" horiz-adv-x="916" d="M728 635q72 0 114.5-46.5T885 464q0-87-46-131t-112-44q-69 0-113.5 45.5T569 460q0 81 46 128t113 47zm-1-50q-41 0-63.5-37.5T641 460q0-52 25-86.5t61-34.5q39 0 62.5 34t23.5 89q0 49-21.5 86T727 585zm132-391H596v52h263v-52zM152 0H74v650h96l170-321q68-134 102-217l1 1q-9 117-9 270v267h78V0h-89L252 323q-61 116-103 221l-3-1q6-126 6-274V0z"/><glyph glyph-name="trademark" unicode="™" horiz-adv-x="619" d="M30 674h228v-45h-87V402h-54v227H30v45zm576-272h-54l-10 160q-1 11-1.5 37t-.5 39h-3q-2-7-10-37t-13-44l-49-151h-56l-49 155q-5 21-19 77h-3q0-26-2-76l-10-160h-52l20 272h81l47-133q6-21 18-69h1q2 9 6 23t7 25 6 20l47 134h78z"/><glyph glyph-name="Omega" unicode="Ω" horiz-adv-x="705" d="M284 0H30v69h145v4q-56 46-94 120T43 358q0 143 89.5 235T357 685q137 0 220.5-91T661 366q0-96-38-170.5T528 73v-4h147V0H422v55q64 44 106.5 122.5T571 352q0 102-58 182t-158 80q-101 0-161-78.5T134 351q0-91 44-174T284 55V0z"/><glyph glyph-name="estimated" unicode="℮" horiz-adv-x="817" d="M782 316H177q-5 0-5-4V129q0-10 9-21Q274 9 410 9q145 0 240 111h55q-52-61-130-96T409-11q-155 0-264.5 98.5T35 325t109.5 237.5T409 661t264-98.5T782 325v-9zm-136 24v184q0 12-10 22-95 95-226 95-133 0-228-98-10-10-10-23V340q0-5 5-5h464q5 0 5 5z"/><glyph glyph-name="partialdiff" unicode="∂" horiz-adv-x="530" d="M86 614l-28 59q73 53 173 53 110 0 186.5-94.5T494 372q0-181-78-282T225-11q-95 0-147 62T26 199q0 102 63.5 173T245 443q57 0 101-26.5t62-60.5h1q1 10 1 33 0 125-55.5 195T223 654q-80 0-137-40zM232 61q65 0 111 63t57 153q-15 40-53.5 68T259 373q-60 0-102.5-49.5T114 201q0-65 32.5-102.5T232 61z"/><glyph glyph-name="Delta" unicode="∆" horiz-adv-x="620" d="M25 0v49l235 625h99L591 50V0H25zm93 73h376L357 444q-36 99-50 150h-3q-20-67-45-137z"/><glyph glyph-name="product" unicode="∏" horiz-adv-x="615" d="M605 577h-93V-90h-83v667H185V-90h-83v667H9v73h596v-73z"/><glyph glyph-name="summation" unicode="∑" horiz-adv-x="507" d="M514-90H9v52l251 316L22 591v59h461v-72H134v-4l222-293L122-14v-3h392v-73z"/><glyph glyph-name="minus" unicode="−" horiz-adv-x="596" d="M40 297h516v-60H40v60z"/><glyph glyph-name="uni2215" unicode="∕" horiz-adv-x="121" d="M-101-11h-56l379 672h57z"/><glyph glyph-name="uni2219" unicode="∙" horiz-adv-x="207" d="M103 200q-26 0-43 18t-16 45q0 27 17 45t43 18 42-17.5 17-45.5q0-27-16.5-45T103 200z"/><glyph glyph-name="radical" unicode="√" horiz-adv-x="562" d="M579 827L349-95h-64L126 333l-75-32-19 47 138 58L293 60q12-32 19-64h2q6 35 13 65l186 766h66z"/><glyph glyph-name="infinity" unicode="∞" horiz-adv-x="728" d="M541 116q-26 0-50 8t-50.5 29-37 31-39.5 39q-28-28-40.5-39.5t-39-31.5-51.5-28-54-8q-63 0-103.5 41.5T35 264q0 60 43.5 104T187 412q26 0 50-8t50.5-29 37-31 39.5-39q28 28 40.5 39.5t39 31.5 51.5 28 54 8q64 0 104-41.5T693 264q0-60-43.5-104T541 116zm1 60q37 0 62.5 26t25.5 62q0 38-24 63t-61 25q-26 0-55-16t-43.5-30-42.5-42q6-6 23-22.5t26.5-24.5 25-19.5 31-16.5 32.5-5zm-359 0q26 0 55 16t43.5 30 42.5 42q-6 6-23 22.5T274.5 311t-25 19.5-31 16.5-32.5 5q-37 0-62.5-26T98 264q0-38 24-63t61-25z"/><glyph glyph-name="integral" unicode="∫" horiz-adv-x="316" d="M306 788l-11-56q-18 4-30 4-30 0-46-22-30-38-30-158 0-72 6-233t6-237q0-132-42-188-33-48-95-48-38 0-54 9l12 58q16-6 35-6 27 0 44 21 31 38 31 154 0 76-6 239.5T120 562q0 140 52 196 34 37 89 37 27 0 45-7z"/><glyph glyph-name="approxequal" unicode="≈" horiz-adv-x="596" d="M533 416l37-41q-26-33-67-55.5T418 297q-17 0-32 2t-29.5 7-23.5 8.5-24 10.5-19 9q-6 2-22.5 10T240 356t-29 8-35 4q-61 0-118-59l-35 42q27 32 68 54.5t85 22.5q21 0 41-4t31.5-8.5 30.5-13 25-10.5q3-2 22-10.5t28-12 27-7.5 36-4q60 0 116 58zm5-198l36-40q-26-33-67.5-56T421 99q-20 0-40 4t-31.5 8.5-30.5 13-25 10.5-23 10-27.5 12-28.5 8-36 4q-62 0-117-59l-34 43q25 31 66.5 53.5T180 229q21 0 42-4.5t30-7.5 32-13.5 24-10.5q6-3 22.5-10.5T358 171t28.5-8 34.5-4q33 0 64.5 17.5T538 218z"/><glyph glyph-name="notequal" unicode="≠" horiz-adv-x="596" d="M556 140H246L170 18h-65l79 122H40v60h182l89 138H40v60h309l76 122h65l-79-122h145v-60H373l-88-138h271v-60z"/><glyph glyph-name="lessequal" unicode="≤" horiz-adv-x="596" d="M530 99L66 292v59l464 192v-66L148 322v-2l382-154V99zm0-99H68v58h462V0z"/><glyph glyph-name="greaterequal" unicode="≥" horiz-adv-x="596" d="M530 292L66 99v67l382 154v2L66 477v66l464-192v-59zM528 0H66v58h462V0z"/><glyph glyph-name="lozenge" unicode="◊" horiz-adv-x="522" d="M477 325L295-31h-69L45 325l181 355h69zm-76-2L271 590q-5 8-11 23h-2q-3-13-10-23L120 326 251 60l5-10q4-9 5-13h2q2 3 5 11t5 12z"/><glyph glyph-name="G_tildecomb" unicode="" horiz-adv-x="646" d="M589 354V30Q486-7 382-7 223-7 130 82q-94 91-94 251 1 154 99.5 251T401 681q104 0 168-31l-21-71q-65 29-149 29-124 0-197.5-72.5T128 337q0-127 70.5-199.5T388 65q80 0 116 18v201H367v70h222zM291 715h-47q-1 46 17.5 74t50.5 28q22 0 60-20 32-18 47-18 13 0 19.5 8t7.5 31h47q2-97-68-97-23 0-61 19-36 19-47 19-21 0-26-44z"/><glyph glyph-name="M_uni0302" unicode="" horiz-adv-x="804" d="M661 0l-17 296q-11 207-10 291h-3q-34-115-85-256L427 4h-66L252 325q-53 159-78 262h-2q-3-132-13-298L141 0H58l47 674h111l115-326q46-136 68-227h3q22 89 71 227l120 326h111L746 0h-85zM367 824h67l105-114h-74l-63 69h-2l-64-69h-72z"/><glyph glyph-name="N_uni0302" unicode="" horiz-adv-x="658" d="M158 0H76v674h95l216-341q73-115 121-219l2 1q-10 112-10 277v282h82V0h-88L280 342q-83 132-126 225l-3-1q7-119 7-278V0zm137 824h67l104-114h-73l-64 69h-2l-64-69h-71z"/><glyph glyph-name="g_tildecomb" unicode="" horiz-adv-x="559" d="M413 484h77q-4-70-4-133V70q0-159-69-221-62-58-176-58-101 0-161 40l22 67q61-38 142-38 72 0 114 41t42 128v54h-2Q349 2 244 2 155 2 96.5 69.5T38 238q0 117 65 187t153 70q107 0 151-84h2zm-14-278v87q0 25-5 40-13 41-45 67t-78 26q-64 0-104-50t-40-133q0-75 37.5-124.5T270 69q41 0 74.5 24.5T392 159q7 21 7 47zM205 567h-48q-1 48 17 76t51 28q23 0 62-22 30-17 42-17 13 0 19.5 9.5T356 675h47q2-101-68-101-25 0-61 20-30 18-43 18-23 0-26-45z"/><glyph glyph-name="m_uni0302" unicode="" horiz-adv-x="834" d="M73 0v353q0 78-4 131h77l4-78h3q52 89 152 89 48 0 84.5-26.5T442 398h2q21 39 54 63 45 34 107 34 27 0 52.5-10t50.5-31.5 40.5-65T764 285V0h-86v274q0 149-105 149-36 0-64-23t-40-57q-7-21-7-44V0h-86v290q0 60-26 96.5T275 423q-39 0-68.5-26T166 335q-7-18-7-43V0H73zm313 693h61l96-143h-68l-58 95h-2l-58-95h-65z"/><glyph glyph-name="n_uni0302" unicode="" horiz-adv-x="555" d="M73 0v353q0 78-4 131h78l5-80h2q20 38 62 64.5t98 26.5q28 0 55.5-9.5t54.5-31 44-64T485 289V0h-88v279q0 64-27 103.5T285 422q-42 0-74-26t-44-64q-6-16-6-41V0H73zm173 693h61l96-143h-68l-58 95h-2l-58-95h-65z"/><glyph glyph-name="zero.slashfitted" unicode="" horiz-adv-x="513" d="M146 168l201 374q-32 51-90 51-61 0-98-72.5T121 328q0-97 25-160zm225 313L169 106q34-49 86-49 67 0 102 72t35 199q0 88-21 153zM262 661q102 0 158.5-86.5T477 332q0-165-59-254T251-11q-97 0-155.5 87.5T36 323q0 160 62 249t164 89z"/><glyph glyph-name="dong.alt" unicode="" horiz-adv-x="513" d="M346 664h76v-68h62v-49h-62V250q0-54 3-89h-69l-3 57h-2q-38-65-125-65-68 0-113 48.5T68 327q-1 84 47.5 134.5T236 512q73 0 108-51h2v86H219v49h127v68zm0-353v47q0 16-3 26-8 29-33.5 49T250 453q-48 0-75.5-34T147 331q0-51 26-84.5t73-33.5q34 0 61 19.5t35 51.5q4 16 4 27z"/><glyph glyph-name="breve_acutecomb" unicode="" d="M192 773h85L166 642h-53zM21 657h50q5-30 26-49.5t53-19.5q36 0 56.5 20.5T229 657h50q-1-56-36.5-90T150 533q-62 0-95 36t-34 88z"/><glyph glyph-name="breve_gravecomb" unicode="" d="M22 773h84l80-131h-54zm-5-116h50q5-30 26-49.5t53-19.5q36 0 57 20.5t23 48.5h49q-1-56-36.5-90T146 533q-62 0-95 36t-34 88z"/><glyph glyph-name="breve_hookabovecomb" unicode="" d="M163 634l-44 11q8 20 29.5 43t21.5 39q0 14-9.5 23.5T136 760q-24 0-47-36l-32 20q32 64 95 64 34 0 57-21t23-50q0-22-11-37t-29.5-32-28.5-34zM21 657h50q5-30 26-49.5t53-19.5q36 0 56.5 20.5T229 657h50q-1-56-36.5-90T150 533q-62 0-95 36t-34 88z"/><glyph glyph-name="breve_tildecomb" unicode="" d="M78 698H28q2 38 19.5 62T96 784q20 0 62-22 32-16 42-16 25 0 28 41h47q2-96-69-96-25 0-60 21-32 16-44 16-20 0-24-30zm-55-41h49q5-30 26-50t52-20q35 0 55.5 21t22.5 49h49q-1-56-36-90t-91-34q-62 0-94 36t-33 88z"/><glyph glyph-name="circumflex_acutecomb" unicode="" d="M117 693h65l86-143h-67l-51 94h-2l-51-94H33zm192 82h81l-99-132h-51z"/><glyph glyph-name="circumflex_gravecomb" unicode="" d="M189 775h80l64-132h-51zm-72-82h65l86-143h-67l-51 94h-2l-51-94H33z"/><glyph glyph-name="circumflex_hookabovecomb" unicode="" d="M117 693h65l86-143h-67l-51 94h-2l-51-94H33zm180-58l-44 11q8 20 29.5 43t21.5 39q0 14-9.5 23.5T271 761q-25 0-48-36l-32 20q32 64 95 64 34 0 57-21t23-50q0-22-11-37t-29.5-32-28.5-34z"/><glyph glyph-name="circumflex_tildecomb" unicode="" d="M117 668h64l92-118h-69l-54 73h-2l-53-73H28zm-39 12H29q-1 43 18 69t50 26q20 0 62-22 28-16 43-16 24 0 27 40h47q2-96-68-96-21 0-61 21-31 17-44 17-23 0-25-39z"/><glyph glyph-name="space_dotbelowcomb" unicode="" d="M151-80q20 0 34.5-15t14.5-36-14.5-36.5T149-183q-21 0-35.5 15.5T99-131t15 36 37 15z"/><glyph glyph-name="space_hookabovecomb" unicode="" d="M161 530l-47 12q6 21 31 48t25 46q0 15-9.5 24.5T137 670q-26 0-49-35l-34 20q34 67 98 67 36 0 60-21t24-54q0-25-13-43.5T190 566t-29-36z"/><glyph glyph-name="space_uni031B" unicode="" d="M173 433v51h15q47 0 47 39 0 30-17 58l67 11q18-33 18-72 0-38-26.5-62.5T204 433h-31z"/><glyph glyph-name="breve_acutecomb.cap" unicode="" d="M29 802h48q12-49 76-49t79 49h46q-5-43-37.5-73T152 699q-55 0-86 29t-37 74zm162 94h92L171 791h-54z"/><glyph glyph-name="breve_gravecomb.cap" unicode="" d="M29 896h92l74-105h-54zm1-94h48q12-49 76-49t79 49h46q-5-43-37.5-73T153 699q-55 0-86 29t-37 74z"/><glyph glyph-name="breve_hookabovecomb.cap" unicode="" d="M168 778l-43 12q7 19 29 42.5t22 39.5q0 14-9.5 23t-23.5 9q-25 0-48-35l-32 19q31 64 95 64 34 0 56.5-20.5T237 882q0-22-11-37t-29.5-32.5T168 778zM30 802h48q12-49 77-49 63 0 78 49h47q-6-43-38.5-73T153 699q-55 0-86 29t-37 74z"/><glyph glyph-name="breve_tildecomb.cap" unicode="" d="M78 836H29q2 38 19.5 62T97 922q20 0 62-21 28-16 42-16 13 0 19.5 8.5T229 925h46q2-96-68-96-21 0-61 21-31 17-43 17-19 0-25-31zm-52-34h47q14-49 77-49t78 49h47q-5-43-37.5-73T149 699q-55 0-86.5 29.5T26 802z"/><glyph glyph-name="circumflex_acutecomb.cap" unicode="" d="M121 824h63l95-114h-70l-55 70h-2l-56-70H29zm194 76h89L283 795h-52z"/><glyph glyph-name="circumflex_gravecomb.cap" unicode="" d="M180 881h91l72-105h-54zm-63-57h64l94-114h-70l-55 70h-2l-55-70H25z"/><glyph glyph-name="circumflex_hookabovecomb.cap" unicode="" d="M120 824h63l95-114h-70l-56 70h-2l-55-70H27zm182-70l-42 12q7 19 29.5 42.5T312 849q0 14-10 23.5t-24 9.5q-25 0-49-37l-32 19q31 64 95 64 34 0 56.5-20t22.5-50q0-28-30.5-58.5T302 754z"/><glyph glyph-name="circumflex_tildecomb.cap" unicode="" d="M117 824h67l104-114h-73l-64 69h-2l-63-69H14zm-38 13H30q-1 43 18 69t50 26q23 0 62-22 32-16 43-16 24 0 27 41h47q2-96-68-96-21 0-61 21-31 17-44 17-23 0-25-40z"/><glyph glyph-name="space_dotbelowcomb.cap" unicode="" d="M151-181q-21 0-35.5 15.5T101-130t15 35 36 15q20 0 34-15t14-35-14.5-35.5T151-181z"/><glyph glyph-name="space_hookabovecomb.cap" unicode="" d="M169 709l-47 13q7 20 29.5 43.5T174 806q0 14-9 22.5t-24 8.5q-26 0-49-35l-34 20q34 67 99 67 35 0 59-20.5t24-51.5q0-22-11.5-38.5T198 744t-29-35z"/><glyph glyph-name="space_uni031B.cap" unicode="" d="M173 621v53h15q26 0 36.5 9t10.5 29q0 30-17 58l68 12q17-37 17-75 0-39-25.5-62.5T203 621h-30z"/><glyph glyph-name="dotaccent.cap" unicode="" d="M151 721q-21 0-35.5 15.5T101 772t15 35 36 15q20 0 34-15t14-35-14.5-35.5T151 721z"/><glyph glyph-name="breve.cap" unicode="" d="M26 832h52q11-49 72-49 64 0 73 49h51q-2-47-33-76.5T149 726t-91 29-32 77z"/><glyph glyph-name="ogonek.cap" unicode="" d="M123 4h57q-53-67-53-100 0-23 14-36.5t36-13.5q24 0 46 9l14-45q-29-23-80-23-43 0-68.5 22.5T63-119q0 58 60 123z"/><glyph glyph-name="cedilla.cap" unicode="" d="M137 3h54l-32-53q30-6 50.5-26t20.5-49q0-41-30-61t-73-20q-42 0-71 17l14 45q24-13 56-13 42 0 42 30 0 35-78 43z"/><glyph glyph-name="ring.cap" unicode="" horiz-adv-x="400" d="M202 877q45 0 72-26t27-65q0-38-28-63t-71-25q-45 0-73 25.5T101 786q0 39 28 65t73 26zm-2-37q-22 0-34.5-15.5T153 786q0-20 13.5-35.5T200 735q22 0 35.5 15t13.5 37-13.5 37.5T200 840z"/><glyph glyph-name="tilde.cap" unicode="" d="M73 715H26q-2 46 16.5 74T94 817q21 0 59-20 32-18 48-18 12 0 18.5 8t8.5 31h46q2-97-67-97-23 0-61 19-36 19-47 19-23 0-26-44z"/><glyph glyph-name="circumflex.cap" unicode="" d="M116 824h67l104-114h-73l-64 69h-2l-64-69H13z"/><glyph glyph-name="cent.denominator" unicode="" horiz-adv-x="315" d="M206-8h-46v60q-56 7-90 44t-34 99q0 58 33 99t91 50v59h46v-57q34 0 64-15l-13-49q-30 14-62 14-41 0-66.5-27.5T103 199q0-46 26-71.5t65-25.5q34 0 67 13l11-47q-26-14-66-17V-8z"/><glyph glyph-name="dollar.denominator" unicode="" horiz-adv-x="317" d="M179-51h-45V8Q78 8 35 34l17 51q43-27 93-27 31 0 50 14t19 37q0 22-15.5 36T146 173q-54 19-79.5 43T41 279t25.5 66 70.5 34v59h45v-56q46-1 83-22l-16-49q-36 22-82 22-32 0-46.5-13.5T106 287q0-20 16.5-33t59.5-29q51-18 74.5-44t23.5-66q0-38-26.5-67.5T179 10v-61z"/><glyph glyph-name="hyphen.denominator" unicode="" horiz-adv-x="191" d="M18 208h155v-48H18v48z"/><glyph glyph-name="parenleft.denominator" unicode="" horiz-adv-x="180" d="M117 425h51Q96 322 96 182q0-133 72-240h-51Q40 45 40 182q0 140 77 243z"/><glyph glyph-name="parenright.denominator" unicode="" horiz-adv-x="180" d="M64-58H13Q85 49 85 184q0 134-72 241h51q77-103 77-241 0-137-77-242z"/><glyph glyph-name="cent.numerator" unicode="" horiz-adv-x="315" d="M206 258h-46v60q-56 7-90 44t-34 99q0 58 33 99t91 50v59h46v-57q34 0 64-15l-13-49q-30 14-62 14-41 0-66.5-27.5T103 465q0-46 26-71.5t65-25.5q34 0 67 13l11-47q-26-14-66-17v-59z"/><glyph glyph-name="dollar.numerator" unicode="" horiz-adv-x="317" d="M179 215h-45v59q-56 0-99 26l17 51q43-27 93-27 31 0 50 14t19 37q0 22-15.5 36T146 439q-54 19-79.5 43T41 545t25.5 66 70.5 34v59h45v-56q46-1 83-22l-16-49q-36 22-82 22-32 0-46.5-13.5T106 553q0-20 16.5-33t59.5-29q51-18 74.5-44t23.5-66q0-38-26.5-67.5T179 276v-61z"/><glyph glyph-name="hyphen.numerator" unicode="" horiz-adv-x="191" d="M18 474h155v-48H18v48z"/><glyph glyph-name="parenleft.numerator" unicode="" horiz-adv-x="180" d="M117 691h51Q96 588 96 448q0-133 72-240h-51Q40 311 40 448q0 140 77 243z"/><glyph glyph-name="parenright.numerator" unicode="" horiz-adv-x="180" d="M64 208H13q72 107 72 242 0 134-72 241h51q77-103 77-241 0-137-77-242z"/><glyph glyph-name="at.cap" unicode="" horiz-adv-x="737" d="M448 348l21 113q-23 7-50 7-66 0-112.5-53.5T260 288q0-34 17-55t49-21q41 0 77 43t45 93zm60-276l16-43q-76-40-178-40-127 0-215 86T43 301q0 159 101.5 271.5T408 685q129 0 210-81.5T699 396q0-108-52-173t-126-65q-33 0-54.5 22.5T447 246h-4q-52-88-141-88-45 0-76.5 34.5T194 284q0 96 67.5 166.5T431 521q61 0 107-21l-34-181q-22-110 30-112 41-1 74.5 50T642 390q0 111-64 180t-178 69q-126 0-213-92t-87-240q0-123 72-196.5T357 37q89 0 151 35z"/><glyph glyph-name="space_uni0326.cap" unicode="" d="M93-222l-17 41q75 13 75 66 0 34-34 60l65 14q40-26 40-73 0-51-38-78t-91-30z"/><glyph glyph-name="zero.slash" unicode="" horiz-adv-x="513" d="M146 168l201 374q-32 51-90 51-61 0-98-72.5T121 328q0-97 25-160zm225 313L169 106q34-49 86-49 67 0 102 72t35 199q0 88-21 153zM262 661q102 0 158.5-86.5T477 332q0-165-59-254T251-11q-97 0-155.5 87.5T36 323q0 160 62 249t164 89z"/><glyph glyph-name="zero.fitted" unicode="" horiz-adv-x="513" d="M262 661q102 0 158.5-86.5T477 332q0-165-59-254T251-11q-97 0-155.5 87.5T36 323q0 160 62 249t164 89zm-5-68q-60 0-96.5-71T124 322q0-125 35.5-195T256 57q66 0 99.5 71.5T389 328q0 124-33 194.5T257 593z"/><glyph glyph-name="two.fitted" unicode="" horiz-adv-x="447" d="M418 0H3v54l69 67q136 129 189 200t53 140q0 56-30 91.5T186 588q-72 0-138-55l-28 62q76 66 183 66 98 0 148.5-56T402 472q0-83-53-159.5T178 123l-51-48v-2h291V0z"/><glyph glyph-name="three.fitted" unicode="" horiz-adv-x="450" d="M7 33l24 68q22-15 62-28t82-13q76 0 112 38.5t35 87.5q-1 64-49.5 97T154 316h-49v66h49q55 0 100 28.5t45 81.5q0 42-28.5 70T185 590q-70 0-130-43l-24 64q28 20 74.5 35t95.5 15q91 0 139-45t48-110q0-51-31-91.5T268 353v-2q63-13 104-57t41-110q0-82-63-138.5T176-11Q74-11 7 33z"/><glyph glyph-name="four.fitted" unicode="" horiz-adv-x="503" d="M396 0h-83v177H11v58l290 415h95V246h91v-69h-91V0zM100 246h213v217q0 51 3 102h-3q-42-76-54-96L100 248v-2z"/><glyph glyph-name="five.fitted" unicode="" horiz-adv-x="460" d="M406 650v-74H158l-25-167q30 4 53 4 82 0 140-35 41-24 67-66.5T419 211q0-96-68.5-159T177-11Q77-11 15 29l22 67q61-36 139-36 64 0 109 39t45 102q-1 66-47 105t-140 39q-34 0-90-7l42 312h311z"/><glyph glyph-name="six.fitted" unicode="" horiz-adv-x="515" d="M418 660v-72q-30 2-66-4-98-16-156-80.5T126 353h3q57 75 157 75 87 0 141.5-57.5T482 218q0-94-59.5-161.5T266-11Q162-11 99 64.5T36 266q0 183 110 293 82 81 208 96 32 5 64 5zM266 57q57 0 92 43t35 113q0 69-36.5 109T259 362q-39 0-73.5-22T133 282q-10-17-10-39 2-83 39-134.5T266 57z"/><glyph glyph-name="seven.fitted" unicode="" horiz-adv-x="412" d="M1 650h410v-58L128 0H38l281 575v2H1v73z"/><glyph glyph-name="eight.fitted" unicode="" horiz-adv-x="513" d="M255-11q-99 0-158.5 51T37 165q0 119 129 174l-1 3Q62 391 62 488q0 76 57 124.5T263 661q89 0 139-47t50-113q0-101-107-152v-3q131-52 131-168 0-84-63.5-136.5T255-11zm2 64q59 0 94.5 32.5T387 169q0 56-36 89t-107 53q-56-16-86.5-51.5T127 177q-2-51 34-87.5T257 53zm1 545q-53 0-83-30t-30-74q0-87 124-120 45 15 72 45.5t27 72.5q0 44-27.5 75T258 598z"/><glyph glyph-name="nine.fitted" unicode="" horiz-adv-x="517" d="M96-10v72q20-2 71 3 81 11 136 63 69 62 86 173h-3q-57-70-153-70-86 0-139 57T41 430q0 95 62.5 163T263 661q99 0 157-74.5T478 387q0-197-112-305Q290 8 177-5q-43-7-81-5zm160 604q-56 0-92-44.5T128 436q0-61 34-99.5t91-38.5q43 0 76.5 18.5T381 366q8 13 8 32 0 88-33.5 142T256 594z"/><glyph glyph-name="percent.oldstyle" unicode="" horiz-adv-x="818" d="M184 603q69 0 110-51t41-143q0-98-44.5-151.5T179 204q-64 0-107.5 51T27 400q0 94 45 148.5T184 603zm-2-53q-40 0-62.5-41.5T97 403q-1-63 22-104.5t62-41.5q42 0 63 40t21 108q0 65-20 105t-63 40zm79-562h-56l352 620h55zm379 404q69 0 109.5-51T790 198q0-98-44.5-151.5T635-7q-65 0-108.5 51T483 188q-1 95 44.5 149.5T640 392zm-3-53q-40 0-62-41.5T552 192t22-105 63-41q42 0 63 40t21 108q0 64-20.5 104.5T637 339z"/><glyph glyph-name="zero.taboldstyle" unicode="" horiz-adv-x="530" d="M265-11q-97 0-161 68T40 242q0 115 64.5 184T265 495t160.5-68.5T490 242q0-115-64-184T265-11zm0 67q65 0 102.5 52T405 242t-37.5 134T265 428t-102.5-52T125 242t37.5-134T265 56z"/><glyph glyph-name="one.taboldstyle" unicode="" horiz-adv-x="530" d="M366 0h-85v412h-2L93 328l-15 65 215 93h73V0z"/><glyph glyph-name="two.taboldstyle" unicode="" horiz-adv-x="530" d="M462 0H66v48l49 34q119 79 171.5 134T339 328q0 47-29.5 71.5T231 424q-70 0-135-48l-24 57q83 62 182 62 77 0 125-41.5T427 340q0-64-44.5-118T250 106l-51-37v-3q33 4 82 4h181V0z"/><glyph glyph-name="three.taboldstyle" unicode="" horiz-adv-x="530" d="M62-96l10 65q44-16 109-16 75 0 122 33.5T350 74q0 47-41.5 74.5T198 176q-29 0-55-2l-2 64 19 2q73 5 118.5 32.5T324 345q0 40-28 60.5T219 426q-59 0-124-35l-18 59q26 18 70.5 31.5T238 495q77 0 125-36.5t48-98.5q0-50-32.5-86T293 222v-3q63-9 105-46t42-98q0-84-73.5-137.5T189-116q-83 0-127 20z"/><glyph glyph-name="four.taboldstyle" unicode="" horiz-adv-x="530" d="M497 50h-91v-165h-82V50H32v57l279 384h95V117h91V50zm-173 67v200q0 63 3 94l-4 1q-24-49-54-94L119 120l2-3h203z"/><glyph glyph-name="five.taboldstyle" unicode="" horiz-adv-x="530" d="M78-98l11 63q43-13 102-13 68 0 116 34.5T355 81q0 44-31 73-56 56-227 43l51 287h287l-11-72H207l-29-150q153 4 220-61 46-44 46-113 0-92-70-148t-182-56q-69 0-114 18z"/><glyph glyph-name="six.taboldstyle" unicode="" horiz-adv-x="530" d="M441 606l6-65q-129-8-204-68.5T150 321h3q53 73 147 73 78 0 132-52.5T486 202q0-96-62.5-154.5T278-11q-100 0-161 68T56 235q0 157 104 259t281 112zM278 56q49 0 85 37.5T399 198q0 61-33.5 97T278 331q-60 0-101-43-32-32-32-82 0-63 37-106.5T278 56z"/><glyph glyph-name="seven.taboldstyle" unicode="" horiz-adv-x="530" d="M454 484v-56q-45-118-124.5-269.5T171-115l-82 15q66 95 151.5 252T364 409v2H67v73h387z"/><glyph glyph-name="eight.taboldstyle" unicode="" horiz-adv-x="530" d="M350 320v-3q59-21 94-60t35-91q0-79-63-128T261-11q-95 0-154 46.5T48 155q0 102 125 158v3Q72 359 72 445q0 71 56.5 116.5T269 607q83 0 135-43.5T456 456q0-85-106-136zm-82 227q-47 0-79-26t-32-69q0-76 120-108 43 13 69.5 40.5T373 452q0 45-31 70t-74 25zm-6-495q54 0 90.5 29.5T389 158q0 92-142 129-50-17-80.5-49.5T136 164q0-50 34-81t92-31z"/><glyph glyph-name="nine.taboldstyle" unicode="" horiz-adv-x="530" d="M89-116l-6 65q124 5 200.5 61T382 158h-2q-16-27-55.5-47T237 91q-79 0-133 52T50 282q0 90 62.5 151.5T266 495q92 0 152.5-64.5T479 255Q479 91 374-9T89-116zm170 269q37 0 69.5 19t47.5 46q16 21 16 60 0 66-37.5 107.5T263 427q-50 0-88-36.5T137 288t35-100.5 87-34.5z"/><glyph glyph-name="Euro.taboldstyle" unicode="" horiz-adv-x="530" d="M466 83l12-61q-51-33-137-33-109 0-179 70-47 47-61 119H38v49h56q-2 22-2 24 0 15 3 35H38v48h64q17 71 63 117 75 75 189 75 67 0 123-28l-20-62q-46 24-104 24-74 0-123-48-34-34-41-78h249v-48H179q-2-22-2-29 0-18 1-30h260v-49H188q10-43 39-72 50-49 126-49 63 0 113 26z"/><glyph glyph-name="florin.taboldstyle" unicode="" horiz-adv-x="530" d="M128 282v58h99l6 53q4 32 11.5 60.5T267 511t35.5 49.5T354 594t70 13 69-15l-17-64q-30 10-52 10-48 0-73.5-39T318 399l-7-59h121v-58H304l-22-182Q270-6 230.5-62T108-117q-49 0-77 16l16 63q22-10 56-12 44 1 66 39t31 119l20 174h-92z"/><glyph glyph-name="numbersign.taboldstyle" unicode="" horiz-adv-x="530" d="M205 226h104l18 145H224zM174-3h-60l22 170H54v59h91l19 145H78v59h95l22 165h59l-22-165h104l22 165h59l-21-165h82v-59h-91l-18-145h86v-59h-95L337-3h-60l23 170H196z"/><glyph glyph-name="sterling.taboldstyle" unicode="" horiz-adv-x="530" d="M479 0H63v50q50 21 78.5 54.5T170 177q0 25-4 45H69v55h86q-8 42-8 62 0 86 53 140t139 54q67 0 109-25l-19-65q-34 21-90 21-54 0-81.5-33.5T230 338q0-28 7-61h149v-55H248q2-22 2-33-1-75-63-116v-2h292V0z"/><glyph glyph-name="yen.taboldstyle" unicode="" horiz-adv-x="530" d="M304 0h-82v115H69v49h153v60H69v49h128L47 515h94l85-154q30-56 39-78h3q12 28 42 80l90 152h91L331 273h127v-49H304v-60h154v-49H304V0z"/><glyph glyph-name="dollar.taboldstyle" unicode="" horiz-adv-x="530" d="M295-81h-57v80Q148 1 90 38l24 61q22-15 60-25.5T248 63q45 0 75.5 19.5T354 134q0 29-22.5 47T254 218q-81 28-117 58.5T101 356t39.5 83.5T244 482v86h57v-83q72-3 124-32l-24-60q-49 30-116 30-41 0-68.5-17T189 362t22.5-44 86.5-39q75-24 110.5-57.5T444 139t-40-88.5T295 1v-82z"/><glyph glyph-name="cent.taboldstyle" unicode="" horiz-adv-x="530" d="M403 129l14-59q-40-21-100-24v-72h-55v73q-83 9-132 61T81 244q0 81 50 137t131 68v68h55v-66q54 0 98-20l-16-60q-33 18-94 18-63 0-101.5-39T165 248q0-66 38.5-102.5T301 109q55 0 102 20z"/><glyph glyph-name="zero.denominator" unicode="" horiz-adv-x="336" d="M166-5Q100-5 61.5 48T23 194t39.5 147T170 395t105.5-52.5T313 198q0-94-37.5-148.5T166-5zm1 51q37 0 56.5 39.5T243 197q0 147-75 147-34 0-54.5-39T93 197q0-72 20-111.5T167 46z"/><glyph glyph-name="one.denominator" unicode="" horiz-adv-x="244" d="M177 0h-70v329h-2l-72-35-11 52 94 44h61V0z"/><glyph glyph-name="two.denominator" unicode="" horiz-adv-x="311" d="M12 0v37l63 59q68 61 97 99t29 74q0 30-19.5 50T125 339q-39 0-84-31l-21 45q49 42 122 42 66 0 99.5-33.5T275 282q0-51-32-94T142 85l-31-28v-2h171V0H12z"/><glyph glyph-name="three.denominator" unicode="" horiz-adv-x="305" d="M45 317l-17 47q48 31 115 31 61 0 91.5-27t30.5-67q0-30-20.5-54T188 211v-2q42-6 67.5-32.5T281 112q0-49-42.5-83T123-5 9 23l18 50q38-26 93-26 43 0 65.5 20.5T207 114q0 35-31 52.5T101 184H74v46h28q33 0 61.5 16t29.5 48q0 20-16 34.5T130 343q-47 0-85-26z"/><glyph glyph-name="four.denominator" unicode="" horiz-adv-x="347" d="M272 0h-67v103H16v40l177 249h79V152h56v-49h-56V0zm-67 152v118q0 3 3 63h-2q-19-37-34-59L85 154l1-2h119z"/><glyph glyph-name="five.denominator" unicode="" horiz-adv-x="308" d="M268 390v-55H113l-13-85q16 2 31 2 56 0 92-22 56-31 56-101 0-58-43.5-96T123-5Q59-5 19 19l14 50q37-22 89-22 35 0 61.5 21t26.5 55q0 80-113 80-10 0-20.5-.5t-21-2T40 199l26 191h202z"/><glyph glyph-name="six.denominator" unicode="" horiz-adv-x="332" d="M267 394v-52q-26 0-40-2-58-8-92.5-41.5T92 218h1q35 41 94 41 54 0 88-34.5t34-90.5q0-58-39.5-98.5T171-5Q102-5 62.5 41.5T23 162q0 110 68 173 51 49 136 57 27 3 40 2zM170 46q31 0 51 24t20 60q0 37-20.5 59T165 211q-23 0-42-12.5T94 166q-5-10-5-21 0-43 21.5-71T170 46z"/><glyph glyph-name="seven.denominator" unicode="" horiz-adv-x="294" d="M19 390h263v-43L111 0H40l171 334v1H19v55z"/><glyph glyph-name="eight.denominator" unicode="" horiz-adv-x="328" d="M167 395q58 0 90-28.5t32-68.5q0-60-63-88v-2q78-29 78-98 0-51-39.5-83T162-5Q98-5 61 26t-37 75q0 68 76 100v2q-62 30-62 87 0 46 37 75.5t92 29.5zm-3-353q32 0 52 18t20 45q0 54-79 76-66-19-66-72 0-28 20-47.5T164 42zm1 307q-30 0-47-16t-17-40q0-47 70-65 55 16 55 63 0 23-15.5 40.5T165 349z"/><glyph glyph-name="nine.denominator" unicode="" horiz-adv-x="327" d="M58-4v52q11-1 42 1 51 7 84 34 41 33 51 92h-1q-33-38-90-38-53 0-87 33.5T23 257q0 57 40 97.5T164 395q66 0 103-45.5T304 230q0-116-69-180Q187 5 104-3 79-6 58-4zm103 349q-31 0-51-24.5T90 260q0-32 19.5-53.5T161 185q48 0 71 36 4 7 4 20 0 46-18.5 75T161 345z"/><glyph glyph-name="comma.denominator" unicode="" horiz-adv-x="131" d="M48-67L0-71Q27 3 39 84l74 5Q85-6 48-67z"/><glyph glyph-name="period.denominator" unicode="" horiz-adv-x="131" d="M65-5Q46-5 33.5 8T21 40q0 20 12.5 32.5T66 85q19 0 31-12.5T109 40q0-19-12-32T65-5z"/><glyph glyph-name="zero.numerator" unicode="" horiz-adv-x="336" d="M166 261q-66 0-104.5 53T23 460t39.5 147T170 661t105.5-52.5T313 464q0-94-37.5-148.5T166 261zm1 51q37 0 56.5 39.5T243 463q0 147-75 147-34 0-54.5-39T93 463q0-72 20-111.5t54-39.5z"/><glyph glyph-name="one.numerator" unicode="" horiz-adv-x="244" d="M177 266h-70v329h-2l-72-35-11 52 94 44h61V266z"/><glyph glyph-name="two.numerator" unicode="" horiz-adv-x="311" d="M12 266v37l63 59q68 61 97 99t29 74q0 30-19.5 50T125 605q-39 0-84-31l-21 45q49 42 122 42 66 0 99.5-33.5T275 548q0-51-32-94T142 351l-31-28v-2h171v-55H12z"/><glyph glyph-name="three.numerator" unicode="" horiz-adv-x="305" d="M45 583l-17 47q48 31 115 31 61 0 91.5-27t30.5-67q0-30-20.5-54T188 477v-2q42-6 67.5-32.5T281 378q0-49-42.5-83T123 261 9 289l18 50q38-26 93-26 43 0 65.5 20.5T207 380q0 35-31 52.5T101 450H74v46h28q33 0 61.5 16t29.5 48q0 20-16 34.5T130 609q-47 0-85-26z"/><glyph glyph-name="four.numerator" unicode="" horiz-adv-x="347" d="M272 266h-67v103H16v40l177 249h79V418h56v-49h-56V266zm-67 152v118q0 3 3 63h-2q-19-37-34-59L85 420l1-2h119z"/><glyph glyph-name="five.numerator" unicode="" horiz-adv-x="308" d="M268 656v-55H113l-13-85q16 2 31 2 56 0 92-22 56-31 56-101 0-58-43.5-96T123 261q-64 0-104 24l14 50q37-22 89-22 35 0 61.5 21t26.5 55q0 80-113 80-10 0-20.5-.5t-21-2T40 465l26 191h202z"/><glyph glyph-name="six.numerator" unicode="" horiz-adv-x="332" d="M267 660v-52q-26 0-40-2-58-8-92.5-41.5T92 484h1q35 41 94 41 54 0 88-34.5t34-90.5q0-58-39.5-98.5T171 261q-69 0-108.5 46.5T23 428q0 110 68 173 51 49 136 57 27 3 40 2zm-97-348q31 0 51 24t20 60q0 37-20.5 59T165 477q-23 0-42-12.5T94 432q-5-10-5-21 0-43 21.5-71t59.5-28z"/><glyph glyph-name="seven.numerator" unicode="" horiz-adv-x="294" d="M19 656h263v-43L111 266H40l171 334v1H19v55z"/><glyph glyph-name="eight.numerator" unicode="" horiz-adv-x="328" d="M167 661q58 0 90-28.5t32-68.5q0-60-63-88v-2q78-29 78-98 0-51-39.5-83T162 261q-64 0-101 31t-37 75q0 68 76 100v2q-62 30-62 87 0 46 37 75.5t92 29.5zm-3-353q32 0 52 18t20 45q0 54-79 76-66-19-66-72 0-28 20-47.5t53-19.5zm1 307q-30 0-47-16t-17-40q0-47 70-65 55 16 55 63 0 23-15.5 40.5T165 615z"/><glyph glyph-name="nine.numerator" unicode="" horiz-adv-x="327" d="M58 262v52q11-1 42 1 51 7 84 34 41 33 51 92h-1q-33-38-90-38-53 0-87 33.5T23 523q0 57 40 97.5T164 661q66 0 103-45.5T304 496q0-116-69-180-48-45-131-53-25-3-46-1zm103 349q-31 0-51-24.5T90 526q0-32 19.5-53.5T161 451q48 0 71 36 4 7 4 20 0 46-18.5 75T161 611z"/><glyph glyph-name="comma.numerator" unicode="" horiz-adv-x="131" d="M48 199l-48-4q27 74 39 155l74 5q-28-95-65-156z"/><glyph glyph-name="period.numerator" unicode="" horiz-adv-x="131" d="M65 261q-19 0-31.5 13T21 306q0 20 12.5 32.5T66 351q19 0 31-12.5t12-32.5q0-19-12-32t-32-13z"/><glyph glyph-name="parenleft.cap" unicode="" horiz-adv-x="284" d="M195 734h69Q138 563 138 324q0-228 126-405h-69Q64 92 64 325q1 236 131 409z"/><glyph glyph-name="parenright.cap" unicode="" horiz-adv-x="284" d="M88-81H20Q146 95 146 327T20 734h68q131-168 131-407Q219 91 88-81z"/><glyph glyph-name="bracketleft.cap" unicode="" horiz-adv-x="284" d="M265-73H82v797h183v-55H150V-18h115v-55z"/><glyph glyph-name="bracketright.cap" unicode="" horiz-adv-x="284" d="M19 725h183V-73H19v55h115v689H19v54z"/><glyph glyph-name="braceleft.cap" unicode="" horiz-adv-x="284" d="M28 302v50q48 1 64.5 21.5T109 427q0 27-8 83t-8 83q0 66 39 99t106 33h21v-55h-18q-43 0-61-22t-18-65q0-29 7-71t7-76q1-89-72-107v-2q73-20 72-110 0-32-7-76-7-42-7-71 0-88 79-88h18v-55h-21q-67 0-106 33T93 64q0 28 8 82t8 81q0 75-81 75z"/><glyph glyph-name="braceright.cap" unicode="" horiz-adv-x="284" d="M256 352v-50q-81 0-81-75 0-27 8-81t8-82q0-71-39.5-104T46-73H25v55h17q80 3 80 88 0 15-7 71-8 50-8 76 0 90 72 110v2q-72 18-72 107 0 28 8 76 7 56 7 71 0 43-18.5 64.5T43 670H25v55h20q67 0 106.5-33t39.5-99q0-27-8-83t-8-83q0-33 16.5-53.5T256 352z"/><glyph glyph-name="exclamdown.cap" unicode="" horiz-adv-x="230" d="M164-3H67l14 477h68zm-48 686q26 0 42-17.5t16-45.5q0-27-16-44.5T115 558q-26 0-42.5 17.5T56 620q0 28 17 45.5t43 17.5z"/><glyph glyph-name="questiondown.cap" unicode="" horiz-adv-x="406" d="M237 685q27 0 43-17.5t16-45.5q0-27-16-44.5T237 560t-43 17.5-16 44.5q0 28 16.5 45.5T237 685zm-40-205h78l3-26q10-84-63-171-36-43-52.5-73T146 148q0-39 24-62t71-24q59 0 101 32l24-64q-59-40-144-40-81 0-124 42.5T55 137q0 46 21 83t66 89q60 73 56 146z"/><glyph glyph-name="guillemotleft.cap" unicode="" horiz-adv-x="419" d="M232 511L98 327l134-184h-71L29 327l132 184h71zm164 0L262 327l134-184h-71L193 327l132 184h71z"/><glyph glyph-name="guillemotright.cap" unicode="" horiz-adv-x="419" d="M157 327L23 511h71l133-184L94 143H24zm163 0L186 511h71l133-184-133-184h-70z"/><glyph glyph-name="guilsinglleft.cap" unicode="" horiz-adv-x="255" d="M232 511L98 327l134-184h-71L29 327l132 184h71z"/><glyph glyph-name="guilsinglright.cap" unicode="" horiz-adv-x="255" d="M157 327L23 511h70l134-184L94 143H23z"/><glyph glyph-name="hyphen.cap" unicode="" horiz-adv-x="307" d="M30 378h247v-65H30v65z"/><glyph glyph-name="endash.cap" unicode="" horiz-adv-x="500" d="M30 359h440v-60H30v60z"/><glyph glyph-name="emdash.cap" unicode="" horiz-adv-x="1000" d="M30 359h940v-60H30v60z"/><glyph glyph-name="periodcentered.cap" unicode="" horiz-adv-x="207" d="M103 275q-26 0-43 18t-16 45q0 27 17 45t43 18 42-17.5 17-45.5q0-27-16.5-45T103 275z"/><glyph glyph-name="uni015E.dup" unicode="" horiz-adv-x="493" d="M423 652l-24-71q-59 32-128 32-63 0-95-30.5T144 512q0-46 30.5-74T278 382q89-34 130.5-80T450 184q0-71-45-123T275-5l-27-45q30-6 50-26t20-49q0-41-29.5-61T216-206q-41 0-72 17l15 45q24-13 55-13 42 0 42 30 0 35-78 43l40 74h-4q-48 0-96 12.5T42 33l22 73q72-44 156-44 66 0 103.5 31.5T361 177q0 47-29 77.5T234 311Q56 374 56 502q0 80 60.5 131.5T274 685q91 0 149-33z"/><glyph glyph-name="uni015F.dup" unicode="" horiz-adv-x="396" d="M339 465l-22-64q-44 28-99 28-38 0-59.5-19T137 363q0-29 20.5-46t71.5-36q65-25 96-59t31-87q0-54-34-91.5T227-5l-28-45q29-4 49.5-23t20.5-46q0-42-29.5-61.5T165-200q-39 0-68 17l15 43q24-15 54-15 43 0 43 32-1 35-78 42l40 71Q91-8 39 23l22 67q54-35 116-35 46 0 70 20t24 52q0 31-20.5 51T181 216Q53 262 53 353q0 60 45.5 101T220 495q68 0 119-30z"/><glyph glyph-name="space_uni0326" unicode="" d="M93-222l-17 41q75 12 75 66 0 34-34 60l65 14q40-26 40-73 0-51-38-78t-91-30z"/><glyph glyph-name="acute.cap" unicode="" d="M198 827h106L177 710h-72z"/><glyph glyph-name="caron.cap" unicode="" d="M184 710h-67L12 824h74l64-69h2l63 69h72z"/></font>
</defs>
</svg>
