<?xml version="1.0" encoding="UTF-8"?>
<svg width="18px" height="22px" viewBox="0 0 18 22" version="1.1" xmlns="http://www.w3.org/2000/svg" xmlns:xlink="http://www.w3.org/1999/xlink">
    <g id="Portal" stroke="none" stroke-width="1" fill="none" fill-rule="evenodd">
        <g id="Portal---Jerarquía---Vision-general---Mapa" transform="translate(-31.000000, -245.000000)" fill="#FFFFFF">
            <g id="Group-14" transform="translate(0.000000, 64.000000)">
                <g id="Logo/Ears/Isotype-White" transform="translate(26.000000, 178.000000)">
                    <g id="ears-(1)" transform="translate(5.133333, 3.266667)">
                        <path d="M8.87928696,-3.30743928e-05 L8.87928696,-3.30743928e-05 C8.66449177,0.00238434018 8.45952162,0.0903543629 8.30981989,0.244406477 L2.60048481,5.94152144 C0.0668509021,8.48230612 -0.689107635,12.2980171 0.684421197,15.6128786 C2.05795003,18.92774 5.29113012,21.090532 8.87928696,21.094723 L8.87928696,21.094723 C12.4677104,21.0909356 15.7011148,18.9276126 17.0738327,15.6121272 C18.4465505,12.2966417 17.6887075,8.48081348 15.153201,5.94152144 C15.0008837,5.7882386 14.7937167,5.70204357 14.5776237,5.70204357 C14.3615307,5.70204357 14.1543638,5.7882386 14.0020465,5.94152144 L11.1547112,8.79863315 C11.0020303,8.9512707 10.9162514,9.15831766 10.9162514,9.37421041 C10.9162514,9.59010315 11.0020303,9.79715012 11.1547112,9.94978766 C12.0756631,10.8702263 12.3513817,12.2548447 11.8532727,13.4578606 C11.3551637,14.6608764 10.1813468,15.4453142 8.87928696,15.4453142 C7.57722716,15.4453142 6.40341026,14.6608764 5.90530121,13.4578606 C5.40719217,12.2548447 5.68291082,10.8702263 6.60386275,9.94978766 L9.45608622,7.08778782 C9.68745812,6.85411582 9.75603119,6.50443066 9.63004731,6.20068139 C9.50406344,5.89693211 9.20812402,5.69843315 8.87928696,5.69711497 L8.87928696,5.69711497 C8.66267804,5.69764161 8.45550118,5.78580197 8.30493176,5.94152144 L5.45270829,8.79863315 C4.06761998,10.1840995 3.65283949,12.2671837 4.40158153,14.0775351 C5.15032357,15.8878864 6.91532229,17.0694371 8.87439883,17.0717924 L8.87439883,17.0717924 C10.6619308,17.076548 12.3068108,16.0964976 13.1535201,14.5222114 C14.0002293,12.9479253 13.9111453,11.0352848 12.9217699,9.54651697 C12.8719759,9.46890158 12.88318,9.36704633 12.9486546,9.3021105 L14.3955409,7.85522416 C14.4351701,7.81643202 14.4892531,7.79604008 14.5446289,7.79901067 C14.6006871,7.80427805 14.6520344,7.83260756 14.6863846,7.87722074 C16.3289266,10.0753637 16.5900158,13.0123718 15.3609803,15.4657875 C14.1319448,17.9192031 11.6233306,19.4687317 8.87928696,19.4694199 L8.87928696,19.4694199 C5.94405497,19.4728323 3.29645851,17.7058592 2.17337856,14.9939797 C1.05029862,12.2821001 1.67342038,9.1606132 3.75163927,7.08778782 L9.45608622,1.39067285 C9.61171134,1.23903165 9.6997922,1.0311608 9.70049269,0.813873567 C9.7005015,0.596744465 9.61374859,0.388613567 9.45952819,0.235770135 C9.3053078,0.0829267023 9.09640724,-0.00195611821 8.87928696,-3.30743928e-05 Z" id="Path"></path>
                        <path d="M12.6089296,3.67831725 C12.597512,3.62744611 12.5819819,3.57758624 12.5624923,3.52922931 C12.5416649,3.47974087 12.5163014,3.43228652 12.4867263,3.38747356 C12.4726403,3.365308 12.4571285,3.34408137 12.4402891,3.32392788 C12.4237803,3.30312442 12.4058118,3.28352237 12.3865197,3.26527033 C12.3688463,3.24539931 12.3491921,3.22738292 12.3278621,3.21150091 L12.2643164,3.16261961 C12.2199748,3.13438906 12.1733795,3.10986522 12.1250047,3.08929767 C12.0756935,3.07014583 12.0250477,3.05462537 11.9734727,3.04286045 L11.8952627,3.04286045 C11.8684184,3.04077469 11.8414528,3.04077469 11.8146085,3.04286045 C11.3706331,3.03876372 11.0063202,3.39325976 10.9982909,3.83718145 C10.9982909,3.86406616 10.9982909,3.89095087 10.9982909,3.91539152 C10.9982909,3.93983216 10.9982909,3.96671687 11.0105112,3.99604565 C11.0207021,4.04802785 11.0362647,4.09881099 11.0569484,4.14757765 C11.0770247,4.19540726 11.1015744,4.24123337 11.1302704,4.28444527 C11.1445729,4.30646242 11.1600754,4.32767634 11.1767076,4.34799095 L11.2426974,4.39931631 C11.2646939,4.41886883 11.2842465,4.43842134 11.303799,4.45308573 C11.3244546,4.47111592 11.3465218,4.487462 11.3697887,4.50196702 C11.4136967,4.53161853 11.4603475,4.55699004 11.5091004,4.57773303 C11.5573671,4.59686617 11.6072667,4.61159065 11.6581884,4.62172619 L11.7315103,4.64372277 L11.8097204,4.64372277 L11.8903745,4.64372277 L11.9685846,4.64372277 C12.0207391,4.63422977 12.0715982,4.61864392 12.1201166,4.59728554 C12.1689739,4.57774873 12.2156631,4.55317547 12.2594283,4.52396361 L12.322974,4.47752638 L12.3816315,4.42375696 L12.435401,4.36509941 C12.4522404,4.34494591 12.4677521,4.32371928 12.4818382,4.30155373 C12.5129597,4.2551252 12.5399479,4.20605578 12.5624923,4.15490985 C12.5827589,4.10515188 12.5983063,4.05360004 12.6089296,4.00093378 C12.6102717,3.97488103 12.6102717,3.94877646 12.6089296,3.92272371 C12.616257,3.87002245 12.616257,3.81656077 12.6089296,3.76385951 C12.6162618,3.7296426 12.6138177,3.70520196 12.6089296,3.67831725 Z" id="Path"></path>
                    </g>
                </g>
            </g>
        </g>
    </g>
</svg>