<?xml version="1.0" encoding="UTF-8"?>
<svg width="116px" height="31px" viewBox="0 0 116 31" version="1.1" xmlns="http://www.w3.org/2000/svg" xmlns:xlink="http://www.w3.org/1999/xlink">
    <!-- Generator: Sketch 52.6 (67491) - http://www.bohemiancoding.com/sketch -->
    <title>goaigua</title>
    <desc>Created with Sketch.</desc>
    <g id="Launcher" stroke="none" stroke-width="1" fill="none" fill-rule="evenodd">
        <g id="GoAigua---Launcher---Dashboard---Dark" transform="translate(-21.000000, -22.000000)" fill="#FFFFFF">
            <g id="goaigua" transform="translate(20.685323, 21.969190)">
                <path d="M24.2752512,6.06342469 C20.1335873,6.13526621 16.8288772,9.45434465 16.9007187,13.4810621 C16.9725602,17.5077796 20.3814406,20.7083195 24.5266965,20.636478 C28.6719525,20.5646364 31.9694785,17.2419659 31.901229,13.2224326 C31.8329796,9.20289931 28.4169151,5.99158316 24.2752512,6.06342469 M24.4692233,17.3676886 C21.721285,17.4143856 20.2988228,15.5069931 20.262902,13.4164047 C20.2269813,11.3258164 21.6135227,9.37891105 24.3327244,9.33939821 C25.4165308,9.29674406 26.4720557,9.69117835 27.2622909,10.4341345 C28.0525261,11.1770907 28.5112475,12.2063068 28.5354536,13.2906821 C28.5713744,15.359718 27.2171616,17.3173995 24.4692233,17.3640965 M15.3669021,13.524167 C15.3959728,11.9532294 14.8093786,10.4332414 13.7325074,9.28910914 L18.3411413,6.1675949 L7.75529259,6.35079078 C3.59207624,6.42263231 0.283774023,9.28551707 0.359207624,13.7827965 C0.434641224,18.280076 3.37295958,20.966949 8.00314585,20.9022916 C9.83869681,20.8699629 11.778418,21.7428375 11.8143387,23.7292556 C11.8502595,25.7156738 10.2122727,26.8543619 8.10731606,26.8902827 C6.00235939,26.9262035 4.20632127,25.7300421 4.1560322,23.8585704 L0.510074825,22.5330942 L0.535219359,23.9232277 C0.603468808,27.8062621 3.86507403,30.295571 8.16478928,30.2201374 C12.4645045,30.1447038 15.550098,27.6374346 15.4818486,23.6645982 C15.4459278,21.8254552 14.8209065,20.1156269 12.3315977,18.9553863 C14.749065,17.8310664 15.3992308,15.3094289 15.3669021,13.524167 M7.93130433,17.6011736 C6.51964655,17.6255568 5.20221269,16.8949773 4.47526733,15.6846374 C3.74832198,14.4742975 3.72230544,12.9680766 4.40701789,11.7333535 C5.09173033,10.4986304 6.38314765,9.72298899 7.79480543,9.69860584 C9.20646321,9.67422263 10.5238971,10.4048021 11.2508424,11.615142 C11.9777878,12.8254819 12.0038043,14.3317028 11.3190919,15.5664259 C10.6343794,16.801149 9.34296211,17.5767904 7.93130433,17.6011736" id="Shape" fill-rule="nonzero"></path>
                <path d="M59.0106284,5.76528236 L61.8519607,5.71499329 L62.0926298,19.7240906 L59.1147986,19.7743797 L58.755591,18.5243371 C57.5249181,19.6580623 55.9136354,20.2887315 54.2403512,20.2916387 C52.9264354,20.3294778 51.6256834,20.0210137 50.4686711,19.3972117 C49.3436274,18.7883027 48.4106683,17.8777346 47.7746139,16.7678119 C47.114537,15.6173522 46.7642711,14.3153038 46.7580564,12.9889477 C46.7197209,11.6701226 47.0255032,10.3640485 47.6452992,9.19930724 C48.2431982,8.07813406 49.141154,7.14535442 50.2387782,6.50525006 C51.3758752,5.84049369 52.6681744,5.48737263 53.9853137,5.48150833 C55.6811057,5.42011578 57.337068,6.00419549 58.6190921,7.11590302 L59.0106284,5.76528236 Z M51.7438582,15.6470841 C53.2946222,17.0851687 55.7027861,17.0471701 57.2074061,15.5608743 C57.9189761,14.8193741 58.2943606,13.8179158 58.2455162,12.7913835 C58.2576274,11.763878 57.8487834,10.7761626 57.1140121,10.0578135 C55.5594376,8.62365481 53.1512006,8.6679879 51.6504642,10.1583916 C50.937966,10.9007648 50.5625088,11.9037162 50.6123542,12.9314744 C50.6026418,13.9532552 51.0114945,14.9345017 51.7438582,15.6470841 Z" id="Shape" fill-rule="nonzero"></path>
                <path d="M64.4346635,19.7240906 L64.1939944,5.71499329 L67.9836348,5.65033592 L68.2243039,19.6594332 L64.4346635,19.7240906 Z M67.8543201,2.01156269 C67.7873501,2.96504283 67.0024585,3.70903487 66.0467615,3.72493198 C65.0910646,3.7408291 64.2818628,3.02335329 64.1832182,2.07262799 C64.2501882,1.11914784 65.0350798,0.375155807 65.9907767,0.359258696 C66.9464737,0.343361584 67.7556754,1.06083739 67.8543201,2.01156269 Z" id="Shape" fill-rule="nonzero"></path>
                <path d="M82.6860029,5.38811435 L83.587614,5.38811435 L83.7923623,17.3820569 C83.8306778,19.6498544 83.2631298,21.4458925 82.0897182,22.7701713 C80.9163066,24.09445 79.285504,24.768563 77.1973104,24.7925102 C75.7587768,24.8712045 74.332077,24.4941032 73.1203038,23.7148873 C71.9927148,22.9377632 71.1669812,21.7961961 70.7818622,20.4820187 L72.0498651,20.4604662 C72.422289,21.4301301 73.1073816,22.2479437 73.9967704,22.7845396 C74.9547728,23.355098 76.0580584,23.6346636 77.1721658,23.5891646 C78.8484681,23.5556386 80.1715495,23.0012615 81.1414101,21.9260333 C82.1112707,20.8508052 82.5758459,19.3828434 82.5351357,17.5221479 L82.5099911,15.923674 C81.9255562,16.8653222 81.1076491,17.639921 80.1356287,18.1723137 C79.1244106,18.7310126 77.9897672,19.0285633 76.8345107,19.038004 C75.6122225,19.0742815 74.4026366,18.7814996 73.3322363,18.1902741 C72.2876427,17.6181424 71.418436,16.7725284 70.817783,15.7440701 C70.1960774,14.6824349 69.8652646,13.4756497 69.8586986,12.2453879 C69.8240563,11.0161493 70.1139733,9.79948887 70.6992445,8.71796902 C71.2678373,7.6743434 72.1097291,6.80513351 73.1346721,6.20351566 C75.2607962,4.96930756 77.8714874,4.91234702 80.0494189,6.05264846 C81.0737505,6.60146143 81.9330805,7.41367087 82.5387277,8.40545839 L82.6860029,5.38811435 Z M72.8401219,16.2361846 C73.9276213,17.2978569 75.4059871,17.8621583 76.9243126,17.7951457 C78.431407,17.8172626 79.8793072,17.2091966 80.9187014,16.1176461 C81.9608285,15.0149831 82.5071359,13.5343734 82.4309654,12.0190871 C82.4517015,10.5000614 81.8524286,9.03819858 80.7714262,7.97081717 C79.6999264,6.91272517 78.2345294,6.35131531 76.7303405,6.42263231 C75.2108283,6.41441376 73.754233,7.02879959 72.6996208,8.12277309 C71.6450086,9.21674659 71.0843858,10.6948676 71.148254,12.2130592 C71.1353025,13.7296344 71.7471969,15.1846699 72.8401219,16.2361846 Z" id="Shape" fill-rule="nonzero"></path>
                <path d="M97.5212777,17.7520408 C96.4532337,18.8919263 95.0032323,19.4774347 93.1712734,19.508566 C91.3393145,19.5396974 89.868958,19.004478 88.7602038,17.902908 C87.6586337,16.7989432 87.0898883,15.3106263 87.0539676,13.4379572 L86.9282449,5.30908868 L88.2106161,5.28753622 L88.347115,13.2368009 C88.3758516,14.8173145 88.8224664,16.0589755 89.6869594,16.961784 C90.6008612,17.8829767 91.8693308,18.362584 93.1640892,18.2764839 C94.6248669,18.2525367 95.7707392,17.7735932 96.6017062,16.8396534 C97.4326732,15.9057136 97.8337883,14.6496842 97.8050517,13.0715654 L97.6685528,5.12230071 L98.9509241,5.10074825 L99.091015,13.2260247 C99.1101728,15.1034832 98.586927,16.6121552 97.5212777,17.7520408 Z" id="Path"></path>
                <path d="M114.536943,4.83493461 L115.578645,4.81697423 L115.819314,18.8260715 L114.741691,18.8260715 L114.536943,15.8051354 C113.94606,16.8383832 113.088921,17.6942825 112.054818,18.283668 C109.806557,19.5272098 107.082105,19.5501839 104.813192,18.3447333 C103.717876,17.7442027 102.80838,16.8545855 102.183793,15.7728067 C101.53075,14.6462644 101.18515,13.3679167 101.181603,12.0657841 C101.140274,10.7655665 101.44128,9.4773094 102.054478,8.33002479 C102.642397,7.22658144 103.522134,6.30584042 104.597668,5.6682963 C105.702049,5.01592068 106.960952,4.67111773 108.243625,4.66969911 C109.491977,4.63293839 110.72885,4.91741898 111.835702,5.49587664 C112.896353,6.05001334 113.786554,6.88186163 114.41122,7.90256772 L114.536943,4.83493461 Z M108.56332,18.0142623 C110.16224,18.0302813 111.695554,17.3794689 112.794786,16.2182242 C113.902076,15.0426123 114.483081,13.4668941 114.404036,11.8538516 C114.426961,10.2376313 113.791578,8.68159146 112.643919,7.54336009 C110.221903,5.28629185 106.445538,5.35943409 104.112738,7.7085956 C102.993034,8.87390196 102.400869,10.4478137 102.474751,12.062192 C102.45536,13.6848389 103.10496,15.243878 104.270789,16.3726835 C105.411072,17.4930299 106.966446,18.0878467 108.56332,18.0142623 Z" id="Shape" fill-rule="nonzero"></path>
                <path d="M35.1556501,15.2339953 L33.6182415,15.9524106 C33.5509299,15.9867444 33.5090978,16.0564647 33.5104792,16.1320144 C33.5090096,16.2087242 33.5545977,16.278531 33.6254256,16.3080261 L35.2023471,16.9510078 C37.4545789,17.8957238 39.2326566,18.6392836 41.1436412,18.6069549 C42.7421151,18.5782183 44.0173022,17.385649 44.0173022,15.9416343 C43.9921577,14.5048038 42.6702736,13.3481553 41.0717997,13.3768919 C39.1608151,13.4092206 37.4078819,14.2138457 35.1915709,15.2339953 M36.9983852,16.1966717 C36.9442071,16.1747558 36.9087017,16.1222077 36.9085833,16.0637649 C36.9076,16.0051647 36.9414564,15.9515588 36.9947931,15.927266 C38.5573463,15.2447715 39.7606918,14.7813937 41.0717997,14.7598413 C41.9087534,14.7598413 42.6020241,15.2878765 42.6128004,15.9667789 C42.6128004,16.6456813 41.9518584,17.2096372 41.1149046,17.2240055 C39.8037968,17.245558 38.6004512,16.8252851 36.9983852,16.1966717" id="path3223" fill-rule="nonzero"></path>
            </g>
        </g>
    </g>
</svg>