<?xml version="1.0" encoding="UTF-8"?>
<svg width="28px" height="19px" viewBox="0 0 28 19" version="1.1" xmlns="http://www.w3.org/2000/svg" xmlns:xlink="http://www.w3.org/1999/xlink">
    <g id="Portal" stroke="none" stroke-width="1" fill="none" fill-rule="evenodd">
        <g id="Portal---Jerarquía---Vision-general---Mapa" transform="translate(-26.000000, -211.000000)" fill="#FFFFFF">
            <g id="Group-14" transform="translate(0.000000, 64.000000)">
                <g id="Logo/Tiresias/Isotype-White" transform="translate(26.000000, 142.000000)">
                    <g id="tiresias-(1)" transform="translate(0.466667, 5.133333)">
                        <path d="M14.1242494,16.9202603 C15.8186405,18.6110907 18.5620164,18.6110907 20.2564075,16.9202603 L25.3889432,11.7877243 C26.8169881,10.3881892 27.111548,8.19731889 26.1038644,6.47030284 C25.0961807,4.74328679 23.0439284,3.92174061 21.12288,4.47634305 C19.2018317,5.03094548 17.9032191,6.81987902 17.9710409,8.81823113 C18.0388627,10.8165832 19.4557762,12.5133549 21.410006,12.9364347 L21.71307,13.0024245 L21.4931042,13.2199462 L19.0245989,15.6884516 C18.0051342,16.6575738 16.3989317,16.6372459 15.4043198,15.6426339 C14.4097078,14.6480219 14.3893799,13.0418193 15.358502,12.0223545 L15.8253184,11.5530941 C17.1660518,10.1995235 17.1660518,8.0185352 15.8253184,6.66496458 L15.8253184,6.66496458 L15.7935455,6.63807987 L15.7715489,6.61119516 C15.2379791,6.08370416 14.5458213,5.7462128 13.8016329,5.65067771 L13.5963314,5.62134893 L13.6452127,5.43804407 C13.8354856,4.71768903 13.8396904,3.96081045 13.657433,3.2383858 C13.4674566,2.49815997 13.0816336,1.82275874 12.5404955,1.283134 C10.8461044,-0.407696405 8.10272849,-0.407696405 6.40833741,1.283134 L1.27580173,6.41566998 C-0.409101724,8.11060182 -0.409101724,10.8480085 1.27580173,12.5429403 L1.27580173,12.5429403 C2.57949568,13.8615115 4.5773867,14.2050996 6.24667663,13.3978085 C7.91596656,12.5905173 8.88712314,10.8110577 8.66297354,8.97040423 C8.43882393,7.12975077 7.06898835,5.63537063 5.25473891,5.25229515 L4.9516749,5.1863054 L5.17164072,4.96633958 L7.64014597,2.49783418 C8.65961069,1.52871204 10.2658132,1.54903992 11.2604251,2.54365194 C12.2550371,3.53826396 12.275365,5.14446653 11.3062429,6.16393131 L10.8418706,6.63319174 C9.49980754,7.98621506 9.49980754,10.1682979 10.8418706,11.5213212 L10.8760875,11.548206 L10.8980841,11.5750907 C11.4345275,12.1058756 12.1313956,12.4444281 12.8802205,12.5380522 L13.0659694,12.5624928 L13.0219762,12.7457977 C12.8302576,13.4658594 12.8252107,14.2229021 13.0073119,14.945456 C13.1946092,15.6924504 13.5805632,16.3748373 14.1242494,16.9202603 Z M20.5008152,10.5461393 C19.6224571,9.67092285 19.4850107,8.29698215 20.1725876,7.26511252 C20.8601646,6.2332429 22.1811002,5.83108183 23.3270362,6.30473538 C24.4729721,6.77838892 25.1244745,7.9958244 24.8828507,9.21202129 C24.6412268,10.4282182 23.5738302,11.3041571 22.3338638,11.303813 C21.6462131,11.3060278 20.9862146,11.0332285 20.5008152,10.5461393 L20.5008152,10.5461393 Z M6.16393121,7.6425904 C7.04228936,8.51780684 7.17973574,9.89174747 6.49215881,10.923617 C5.80458187,11.9554866 4.48364623,12.3576477 3.33771026,11.8839941 C2.19177429,11.4103406 1.54027188,10.1929052 1.78189575,8.97670837 C2.02351962,7.76051155 3.09091623,6.88457267 4.33088267,6.88490942 C5.01864068,6.88215608 5.67884118,7.15503895 6.16393121,7.6425904 Z M12.1225605,10.3310615 L12.1225605,10.3310615 C11.4832256,9.67404169 11.4692714,8.6317752 12.0907876,7.95787475 L12.0907876,7.86255623 L12.1885502,7.86255623 C12.8536724,7.23885088 13.8910686,7.24637604 14.5470727,7.87966469 L14.5470727,7.87966469 C15.1864076,8.53668453 15.2003617,9.57895102 14.5788455,10.2528515 L14.5788455,10.34817 L14.4810829,10.34817 C13.8159607,10.9718753 12.7785646,10.9643502 12.1225605,10.3310615 L12.1225605,10.3310615 Z" id="Shape" fill-rule="nonzero"></path>
                        <circle id="Oval" cx="8.87684336" cy="14.0607039" r="1"></circle>
                        <circle id="Oval" cx="17.0302423" cy="4.27466927" r="1"></circle>
                    </g>
                </g>
            </g>
        </g>
    </g>
</svg>